<?xml version="1.0" encoding="UTF-8"?>
<svg width="24px" height="23px" viewBox="0 0 24 23" version="1.1" xmlns="http://www.w3.org/2000/svg" xmlns:xlink="http://www.w3.org/1999/xlink">
    <title>1INCH</title>
    <g id="Page-1" stroke="none" stroke-width="1" fill="none" fill-rule="evenodd">
        <g id="1INCH" fill-rule="nonzero">
            <polygon id="Path" fill="#FFFFFF" points="5.71445375 12.6722858 6.34939847 7.81442217 0.84201696 3.9212162 5.87403879 5.65690838 7.062438 3.8002018 11.4017929 1.05836136 20.9667088 6.4244854 21.4624411 14.6119736 17.201181 20.6419481 13.8329181 21.1674963 15.5747718 17.920853 15.5747718 14.795224 14.3082778 12.3541908 13.0214112 11.4863447 11.0418777 13.5643347 11.0418777 15.7633392 9.49695868 17.2362572 7.53440226 17.478286 6.66517312 17.9796314 5.23909406 17.5163191 4.64489445 15.33806 5.71445375 13.8063635"></polygon>
            <path d="M14.508608,3.87972555 C13.4594212,3.65844208 12.3117671,3.7172205 12.3117671,3.7172205 C12.3117671,3.7172205 11.9348748,5.49094578 9.59882147,5.95771559 C9.61579861,5.95771559 12.685264,7.02609982 14.508608,3.87972555 Z" id="Path" fill="#94A6C3"></path>
            <path d="M15.4593273,19.9746401 C16.7258213,18.9650343 17.6765407,17.5750975 18.1145507,16.0019104 C18.1349233,15.943132 18.3114854,15.8394054 18.4303254,15.7598816 C18.6272601,15.6388672 18.8275902,15.5385981 18.8649399,15.3760931 C18.9430347,14.9127808 18.9837799,14.4287233 18.9837799,13.9446657 C18.9837799,13.7648729 18.8038223,13.5816225 18.6272601,13.4018297 C18.4880476,13.2808153 18.3488351,13.1390556 18.3488351,13.0387865 C18.1519004,11.2028252 17.320021,9.48787838 15.9924093,8.23970133 L15.8531968,8.38146105 C17.1400634,9.61235033 17.9719428,11.2858065 18.1519004,13.0595318 C18.172273,13.2220369 18.3284626,13.3810844 18.4880476,13.5435894 C18.6272601,13.6646038 18.7868451,13.8478542 18.7868451,13.9273779 C18.7868451,14.3906902 18.7461,14.8540024 18.6680052,15.3173147 C18.6476327,15.3968384 18.4710705,15.4798197 18.331858,15.5593435 C18.1349233,15.6596125 17.9549657,15.7598816 17.917616,15.9223867 C17.4422563,17.6373335 16.3523245,19.1309969 14.9058728,20.0991121 C15.1639252,19.5355307 15.9754321,17.6995695 16.4100467,16.7694874 L16.3319519,13.7856182 L13.815941,11.3065519 L12.3898619,11.50709 L10.8245704,14.089883 C10.8245704,14.089883 11.5579825,15.0372528 10.5257729,16.1471277 C9.51733124,17.2362572 8.72280148,17.478286 8.72280148,17.478286 L7.98938939,17.0737522 C8.20669668,16.7902327 8.64470667,16.3684111 8.98085388,16.0848917 C9.55468093,15.6008341 10.128508,15.5593435 10.128508,15.0372528 C10.152276,13.9446657 9.00122644,14.2454729 9.00122644,14.2454729 L8.583589,14.6500067 L8.40702683,16.1436701 L7.53779769,17.253545 L7.43933033,17.2327997 L6.01325127,16.9112471 C6.01325127,16.9112471 6.88587583,16.4479349 7.02508831,15.9223867 C7.16430079,15.4175837 6.74666335,13.7441275 6.7262908,13.6438585 C6.74666335,13.6646038 7.14392824,14.0069017 7.3204904,14.570483 C7.63626505,13.6818916 8.05390249,12.8347908 8.17274241,12.7552671 C8.29158234,12.6757433 9.89422357,11.8078972 9.89422357,11.8078972 L9.36114163,13.2393246 L9.75840651,13.0180412 L10.7091259,10.6392439 C10.7091259,10.6392439 11.6394727,10.1759317 12.3321397,10.1759317 C13.5782611,10.1551863 15.4219776,8.60274452 14.5900982,5.81941343 C14.827778,5.9196825 18.9464302,8.01841787 19.6594697,12.1329073 C20.1925516,15.2965694 18.4303254,18.2596933 15.4593273,19.9746401 Z" id="Path" fill="#94A6C3"></path>
            <path d="M10.7464756,4.32229248 C11.2014627,3.77599892 11.0249005,2.97038881 11.0249005,2.97038881 L9.69728884,4.9688551 C9.67691628,4.9688551 10.1692531,4.98960043 10.7464756,4.32229248 Z" id="Path" fill="#1B314F"></path>
            <path d="M6.2882808,15.2343334 L6.44786584,14.4287233 C6.44786584,14.4287233 5.79254855,15.5973766 5.73482631,15.7598816 C5.67370863,15.943132 5.77557142,16.2646845 6.0302284,16.2439392 C6.2882808,16.2231939 6.60405545,15.8394054 6.60405545,15.5593435 C6.60405545,15.1963003 6.2882808,15.2343334 6.2882808,15.2343334 Z" id="Path" fill="#1B314F"></path>
            <path d="M18.053433,2.40680748 C18.053433,2.40680748 19.0448975,2.44829813 20.0737117,2.56931252 C17.7546355,0.712605945 15.5577947,0.169769944 13.7751959,0.169769944 C11.3203026,0.169769944 9.65654372,1.20012108 9.55468093,1.2588995 L10.3288381,0.00726489849 C10.3288381,0.00726489849 7.23900017,-0.296999867 6.14906832,3.03262478 C5.87064336,2.32728373 5.61598638,1.2969326 5.61598638,1.2969326 C5.61598638,1.2969326 4.00994973,2.73181757 4.76373438,5.11061482 C2.92001788,4.4260191 0.288562468,3.47519171 0.186699678,3.45790394 C0.0474871978,3.43715862 0.00674208182,3.49939459 0.00674208182,3.49939459 C0.00674208182,3.49939459 -0.0340030342,3.55817301 0.0848368875,3.66189964 C0.305539599,3.8382349 4.46493686,6.9673214 5.37830654,7.57239338 C5.18137181,8.29847975 5.18137181,8.64077761 5.37830654,8.98307547 C5.6567315,9.44638773 5.67370863,9.68841652 5.63635894,10.0307144 C5.59561383,10.3730122 5.23909406,13.3395937 5.16099926,13.7026369 C5.08290445,14.0656801 4.251025,15.3553478 4.28837469,15.7391363 C4.3291198,16.1229248 4.84182918,17.7548904 5.30021174,17.9381407 C5.63635894,18.0591551 6.46823839,18.3219292 7.02169289,18.3219292 C7.21862761,18.3219292 7.39858521,18.2804386 7.47668002,18.2009148 C7.81282722,17.9001076 7.91129459,17.8378717 8.14897443,17.8378717 C8.16934699,17.8378717 8.18971955,17.8378717 8.20669668,17.8378717 C8.30516404,17.8378717 8.42400396,17.858617 8.56321644,17.858617 C8.87899109,17.858617 9.29662853,17.796381 9.59203062,17.5163191 C10.0266452,17.0737522 10.7804298,16.4686802 11.0181097,16.1851608 C11.3169072,15.8013723 11.4730968,15.2792816 11.395002,14.7537334 C11.3338843,14.2696758 11.5919367,13.8443966 11.8907342,13.422575 C12.2676266,12.9177721 12.9602935,12.0118929 12.9602935,12.0118929 C14.3286504,13.0560743 15.1809024,14.6500067 15.1809024,16.423732 C15.1809024,19.5701063 12.4883293,22.1114086 9.16081148,22.1114086 C8.64470667,22.1114086 8.15236986,22.0526302 7.65663761,21.9316158 C9.18118404,22.4744518 10.4680506,22.6577021 11.5206328,22.6577021 C13.7582187,22.6577021 14.9466179,21.8313467 14.9466179,21.8313467 C14.9466179,21.8313467 14.5323759,22.3776403 13.8566861,23 C13.8770587,23 13.8770587,23 13.8770587,23 C17.5814688,22.4744518 19.3844402,19.3695681 19.3844402,19.3695681 C19.3844402,19.3695681 19.2452277,20.379174 19.0686655,21.0637697 C23.9954291,17.2915781 23.1635497,12.5720167 23.1431771,12.4129692 C23.1839222,12.4717476 23.6796545,13.0768196 23.9343115,13.4018297 C24.7288412,5.0898695 18.053433,2.40680748 18.053433,2.40680748 Z M10.4680506,15.6803579 C10.3899558,15.7806269 10.0538086,16.0848917 9.81612876,16.3061752 C9.57844892,16.5274586 9.32039652,16.7487421 9.12346179,16.9527378 C9.04536698,17.0322615 8.88578194,17.0737522 8.6481021,17.0737522 C8.5700073,17.0737522 8.48851706,17.0737522 8.43079482,17.0737522 C8.3900497,17.0737522 8.35270001,17.0737522 8.31195489,17.0737522 C8.27120978,17.0737522 8.25083722,17.0737522 8.23386009,17.0737522 C8.17274241,17.0737522 8.11502017,17.0737522 8.05390249,17.0737522 C8.35270001,16.6692184 9.22192915,15.7425938 9.52072667,15.5420557 C9.87724643,15.3000269 10.057204,15.0579981 9.83650132,14.6361765 C9.61919403,14.2108973 9.04536698,14.314624 9.04536698,14.314624 C9.04536698,14.314624 9.38151419,14.1728643 9.68031171,14.1728643 C9.30341938,14.0725952 8.8280597,14.1728643 8.61075241,14.3941477 C8.37307257,14.6154312 8.41381768,15.4037535 8.31535032,15.9050989 C8.21688296,16.4306471 7.88073575,16.6934212 7.36463095,17.1774788 C7.08620599,17.4402529 6.88927126,17.5197767 6.72968622,17.5197767 C6.39353902,17.4609983 5.99627413,17.3572716 5.71784918,17.2570026 C5.52091445,16.9942284 5.22211693,16.1263823 5.14402212,15.7633392 C5.20174437,15.562801 5.43942422,15.1375219 5.55826414,14.8954931 C5.79594398,14.4321808 5.93515646,14.1694067 5.97590158,13.9273779 C6.05399638,13.58508 6.31204878,11.4655994 6.41051615,10.5804655 C6.66856855,10.9227634 7.02508831,11.4898022 6.94359808,11.8528454 C7.51742513,11.02649 7.10318312,10.2174223 6.90285297,9.89586977 C6.7262908,9.57431723 6.48861095,8.92775461 6.68554568,8.24315889 C6.88248041,7.55856316 7.59551994,5.66036593 7.59551994,5.66036593 C7.59551994,5.66036593 7.83319978,6.0856451 8.16934699,6.0026638 C8.50549419,5.92314005 11.2184398,1.76715996 11.2184398,1.76715996 C11.2184398,1.76715996 11.9518519,3.39912552 11.1776947,4.5919817 C10.3865604,5.78138033 9.61240318,6.0026638 9.61240318,6.0026638 C9.61240318,6.0026638 10.702335,6.20320194 11.7107767,5.45637024 C12.1250187,6.44523073 12.5222835,7.47212431 12.5426561,7.61388403 C12.4815384,7.75564375 11.6904041,9.69187407 11.6123093,9.81288847 C11.5715642,9.85437912 11.2965346,9.93390286 11.0962045,9.97539351 C10.7600573,10.0756626 10.5631226,10.1378986 10.4816323,10.196677 C10.3424198,10.3176914 9.70747512,12.0914167 9.41207303,12.9592627 C9.05555326,13.0595318 8.6990335,13.2635275 8.44098109,13.6646038 C8.58019357,13.5643347 9.01480814,13.5020987 9.33397822,13.4640657 C9.61240318,13.4433203 10.4612598,13.9066326 10.6819625,14.7744787 C10.6819625,14.795224 10.6819625,14.795224 10.6819625,14.8159693 C10.726103,15.1340643 10.6276357,15.4383291 10.4680506,15.6803579 Z M8.60735698,15.9223867 C8.78731458,15.6596125 8.76694202,15.2170456 8.78731458,15.0752859 C8.80768714,14.9335262 8.84503683,14.6707521 9.00462187,14.632719 C9.1642069,14.5912283 9.54109923,14.6534643 9.54109923,14.9335262 C9.54109923,15.1963003 9.26267427,15.2550787 9.06573954,15.4383291 C8.92313163,15.5766312 8.64470667,15.880896 8.60735698,15.9223867 Z M16.5085141,12.0672138 C16.7054488,11.0403202 16.7258213,10.1517288 16.6680991,9.4256424 C17.4388609,10.4732813 17.9142206,11.7456612 18.053433,13.0560743 C18.0738056,13.2185793 18.2299952,13.3776268 18.3895803,13.5401318 C18.5287927,13.6611462 18.6883778,13.8236513 18.6883778,13.9239204 C18.6883778,14.3872326 18.6476327,14.8505449 18.5695378,15.3173147 C18.5491653,15.3760931 18.3726031,15.4798197 18.2333906,15.5593435 C18.0364559,15.6596125 17.8564983,15.7598816 17.8191486,15.9223867 C17.3845341,17.4748285 16.4507918,18.8474775 15.2046704,19.8155926 C17.0449914,17.858617 17.9345931,14.6292614 16.5085141,12.0672138 Z M15.2623926,19.9953854 C16.5492592,18.9857796 17.5407237,17.5750975 17.9753382,15.9811651 C17.9957108,15.9223867 18.172273,15.81866 18.2911129,15.7391363 C18.4880476,15.6388672 18.6883778,15.5178528 18.7257275,15.3553478 C18.8038223,14.8920355 18.8445674,14.4079779 18.8445674,13.9239204 C18.8445674,13.7441275 18.6646098,13.5608772 18.4880476,13.3810844 C18.3895803,13.26007 18.2299952,13.1183102 18.2299952,13.0180412 C18.0704102,11.5451231 17.4965831,10.1551863 16.6069814,9.0038208 C16.2097165,6.58353289 14.6274479,5.8367012 14.5867028,5.81595587 C14.6274479,5.87819185 15.6562621,7.38914301 14.9432225,9.16286829 C14.2098104,10.9573389 12.3287442,10.677277 12.1691592,10.6945648 C12.0095742,10.6945648 11.3983974,11.5001749 10.6242402,12.9938383 C10.5257729,12.9523476 10.1081354,12.8520786 9.63277574,12.9350599 C9.9892955,11.9254541 10.5257729,10.4940266 10.6242402,10.3730122 C10.6649853,10.3315216 10.9603874,10.2519978 11.1607176,10.1932194 C11.5376099,10.0929504 11.7141721,10.0307144 11.7752898,9.95119064 C11.8160349,9.88895466 12.0129696,9.4256424 12.2099043,8.94158482 C12.3898619,8.94158482 12.844849,8.90009417 12.8821987,8.87934885 C12.9229439,8.8378582 13.2998362,7.85245527 13.2998362,7.73144087 C13.2998362,7.6311718 12.525679,5.67419615 12.2302769,4.92736445 C12.3694894,4.76485941 12.5087018,4.56432127 12.6445189,4.3430378 C16.7054488,4.78906229 19.876777,8.29847975 19.876777,12.5512714 C19.876777,15.81866 17.9957108,18.6642271 15.2623926,19.9953854 Z" id="Shape" fill="#1B314F"></path>
            <path d="M9.99269093,9.10408987 C10.3695833,8.66152294 10.1726485,7.8351675 9.47658613,7.69340778 C9.65654372,7.27158617 9.9112007,6.4244854 9.9112007,6.4244854 C9.9112007,6.4244854 7.89092203,9.65038342 7.71435986,9.7126194 C7.53440226,9.77485537 7.35784009,9.06605677 7.35784009,9.06605677 C6.98094777,10.5389748 7.99278482,10.739513 8.11162474,10.2762007 C8.66507923,10.1309835 9.61579861,9.52591148 9.99269093,9.10408987 Z" id="Path" fill="#1B314F"></path>
            <path d="M8.26781435,9.88895466 L9.29662853,8.09448406 C9.29662853,8.09448406 9.89082814,8.39874882 9.59203062,8.8828064 C9.21853372,9.44638773 8.26781435,9.88895466 8.26781435,9.88895466 Z" id="Path" fill="#FFD923"></path>
            <path d="M21.0040585,18.2009148 C20.705261,18.6054487 20.3691138,19.0272703 19.9752443,19.4318041 C22.528605,14.4287233 20.0940843,9.85092157 19.9956169,9.67112875 C20.1755745,9.85437912 20.3521367,10.0549173 20.5117217,10.2347101 C22.4708827,12.4510023 22.7085625,15.7806269 21.0040585,18.2009148 Z" id="Path" fill="#D82122"></path>
            <path d="M23.380857,11.7664066 C22.4878598,9.32537333 21.2213658,7.24738329 18.4303254,5.37338894 C15.7377523,3.55817301 12.844849,3.69993273 12.685264,3.72067806 C12.6648915,3.72067806 12.6445189,3.72067806 12.6445189,3.72067806 C12.7429863,3.67918741 12.8414536,3.65844208 12.939921,3.64115431 C13.5544932,3.44061617 14.3456275,3.27811112 15.1401573,3.17784205 C17.2419262,2.87011974 19.3606722,3.59620611 20.8071238,5.15210547 C20.8274964,5.1728508 20.8274964,5.1728508 20.8478689,5.19359612 C22.4912553,6.9673214 23.3435073,9.18361361 23.380857,11.7664066 Z" id="Path" fill="#D82122"></path>
            <path d="M17.7953806,1.78099018 C14.8447552,1.21740885 12.9433164,1.49747074 11.5749596,2.02301897 C11.5342145,1.86051392 11.395002,1.53896139 11.2761621,1.27618727 C10.8653155,1.78099018 10.4273055,2.38606215 10.152276,2.76985066 C9.39849132,3.2953989 9.08271667,3.8002018 9.08271667,3.8002018 C9.51733124,2.28579308 10.7872207,1.15863043 12.3321397,0.87511099 C12.7667542,0.795587245 13.2421139,0.754096595 13.7582187,0.754096595 C15.1231801,0.77484192 16.4881415,1.11713978 17.7953806,1.78099018 Z" id="Path" fill="#D82122"></path>
            <path d="M6.88248041,5.65345083 C4.56679965,5.57392708 5.33756143,2.82862909 5.37830654,2.66958159 C5.37830654,2.69032692 5.53449615,4.82709538 6.88248041,5.65345083 Z" id="Path" fill="#D82122"></path>
            <path d="M9.16081148,0.712605945 C7.37821265,1.8017355 7.73473242,4.40181622 7.73473242,4.40181622 C6.0302284,1.76370241 9.021599,0.77484192 9.16081148,0.712605945 Z" id="Path" fill="#D82122"></path>
            <path d="M6.23055855,6.3795372 C6.34939847,6.47980627 6.46823839,6.66305664 6.32902592,6.92583075 C6.25093111,7.06759047 6.13209119,7.04684515 5.95213359,6.9673214 C5.71445375,6.84630701 4.28837469,5.99920624 3.00150811,5.13136015 C4.46833228,5.65690838 5.95213359,6.22048971 6.18981344,6.3415041 C6.18981344,6.3415041 6.21018599,6.36224943 6.23055855,6.3795372 Z" id="Path" fill="#FFFFFF"></path>
        </g>
    </g>
</svg>