<?xml version="1.0" encoding="UTF-8"?>
<svg width="24px" height="24px" viewBox="0 0 24 24" version="1.1" xmlns="http://www.w3.org/2000/svg" xmlns:xlink="http://www.w3.org/1999/xlink">
    <title>AAVE</title>
    <defs>
        <linearGradient x1="87.2815464%" y1="18.6345361%" x2="12.8815464%" y2="81.2345361%" id="linearGradient-1">
            <stop stop-color="#B6509E" offset="0%"></stop>
            <stop stop-color="#2EBAC6" offset="100%"></stop>
        </linearGradient>
    </defs>
    <g id="Page-1" stroke="none" stroke-width="1" fill="none" fill-rule="evenodd">
        <g id="AAVE" fill-rule="nonzero">
            <circle id="Oval" fill="url(#linearGradient-1)" cx="12" cy="12" r="12"></circle>
            <path d="M17.2515464,16.7814433 L13.1938144,6.97113402 C12.9649485,6.46391753 12.6247423,6.21649485 12.1762887,6.21649485 L11.8175258,6.21649485 C11.3690722,6.21649485 11.028866,6.46391753 10.8,6.97113402 L9.03402062,11.2453608 L7.69793814,11.2453608 C7.29896907,11.2484536 6.9742268,11.5701031 6.97113402,11.9721649 L6.97113402,11.9814433 C6.9742268,12.3804124 7.29896907,12.7051546 7.69793814,12.7082474 L8.41546392,12.7082474 L6.72989691,16.7814433 C6.69896907,16.871134 6.68041237,16.9639175 6.68041237,17.0597938 C6.68041237,17.2886598 6.75154639,17.4680412 6.87835052,17.6072165 C7.00515464,17.7463918 7.18762887,17.814433 7.41649485,17.814433 C7.56804124,17.8113402 7.71340206,17.7649485 7.83402062,17.6752577 C7.96391753,17.585567 8.05360825,17.4556701 8.12474227,17.3072165 L9.98041237,12.7051546 L11.2670103,12.7051546 C11.6659794,12.7020619 11.9907216,12.3804124 11.9938144,11.9783505 L11.9938144,11.9597938 C11.9907216,11.5608247 11.6659794,11.2360825 11.2670103,11.2329897 L10.5804124,11.2329897 L11.9969072,7.70412371 L15.856701,17.3041237 C15.9278351,17.4525773 16.0175258,17.5824742 16.1474227,17.6721649 C16.2680412,17.7618557 16.4164948,17.8082474 16.5649485,17.8113402 C16.7938144,17.8113402 16.9731959,17.743299 17.1030928,17.6041237 C17.2329897,17.4649485 17.3010309,17.285567 17.3010309,17.056701 C17.3041237,16.9639175 17.2886598,16.8680412 17.2515464,16.7814433 Z" id="Path" fill="#FFFFFF"></path>
        </g>
    </g>
</svg>