<?xml version="1.0" encoding="UTF-8"?>
<svg width="24px" height="24px" viewBox="0 0 24 24" version="1.1" xmlns="http://www.w3.org/2000/svg" xmlns:xlink="http://www.w3.org/1999/xlink">
    <title>BAL</title>
    <g id="Page-1" stroke="none" stroke-width="1" fill="none" fill-rule="evenodd">
        <g id="BAL">
            <path d="M12,0 C18.6264,0 24,5.3736 24,12 C24,18.6264 18.6264,24 12,24 C5.3736,24 0,18.6264 0,12 C0,5.3736 5.3736,0 12,0 Z" id="SVGID" fill="#1E1E1E"></path>
            <path d="M12.18,17.016 C8.3424,17.016 5.232,15.9072 5.232,14.4216 C5.232,13.6464 6.0792,12.948 7.4352,12.456 C8.4936,13.1352 10.2696,13.4832 12.2832,13.4832 C14.2488,13.4832 15.9864,13.0584 17.0544,12.408 C18.3336,12.8952 19.128,13.5744 19.128,14.3232 C19.128,15.8112 16.0176,17.016 12.18,17.016 Z" id="SVGID-2" fill="#FFFFFF" fill-rule="nonzero"></path>
            <path d="M12.2208,13.1496 C9.312,13.1496 6.9528,12.2376 6.9528,11.112 C6.9528,10.488 7.68,9.9288 8.82,9.5568 C9.6336,9.9816 10.8528,10.2528 12.2208,10.2528 C13.5888,10.2528 14.808,9.9816 15.6216,9.5568 C16.764,9.9312 17.4888018,10.488 17.4888018,11.112 C17.4912,12.2376 15.132,13.1496 12.2208,13.1496 Z" id="SVGID-3" fill="#FFFFFF" fill-rule="nonzero"></path>
            <path d="M12.2016,9.9144 C9.9528,9.9144 8.1288,9.1608 8.1288,8.2344 C8.1288,7.308 9.9528,6.5544 12.2016,6.5544 C14.4504,6.5544 16.2744,7.308 16.2744,8.2344 C16.2744,9.1608 14.4504,9.9144 12.2016,9.9144 L12.2016,9.9144 Z" id="SVGID-4" fill="#FFFFFF" fill-rule="nonzero"></path>
        </g>
    </g>
</svg>