<?xml version="1.0" encoding="UTF-8"?>
<svg width="24px" height="24px" viewBox="0 0 24 24" version="1.1" xmlns="http://www.w3.org/2000/svg" xmlns:xlink="http://www.w3.org/1999/xlink">
    <title>COMP</title>
    <g id="Page-1" stroke="none" stroke-width="1" fill="none" fill-rule="evenodd">
        <g id="COMP">
            <path d="M12,24 C18.6276,24 24,18.6276 24,12 C24,5.3724 18.6276,0 12,0 C5.3724,0 0,5.3724 0,12 C0,18.6276 5.3724,24 12,24 Z" id="Path" fill="#070A0E" fill-rule="nonzero"></path>
            <path d="M6.9324,16.0236 C6.5736,15.804 6.354,15.414 6.354,14.994 L6.354,12.6492 C6.354,12.3708 6.5808,12.1452 6.8592,12.1463952 C6.948,12.1463952 7.0356,12.1704 7.1124,12.2148 L12.4032,15.3 C12.7128,15.48 12.903604,15.8112 12.903604,16.17 L12.903604,18.5988 C12.9048,18.9324 12.6348,19.2036 12.3012,19.2036 C12.1896,19.2036 12.0792,19.1724 11.9844,19.1148 L6.9324,16.0236 Z M14.8188,11.5728 C15.1284,11.7528 15.318,12.0852 15.3192,12.4428 L15.3192,17.3724 C15.3192,17.5176 15.2412,17.652 15.114,17.7228 L13.956,18.3744 C13.9416,18.3828 13.926,18.3888 13.9092,18.3936 L13.9092,15.6564 C13.9092,15.3024 13.7232,14.9736 13.4184,14.7912 L8.772,12.012 L8.772,8.922 C8.772,8.6436 8.9988,8.418 9.2772,8.41919523 C9.366,8.41919523 9.4536,8.4432 9.5304,8.4876 L14.8188,11.5728 Z M17.1348,7.932 C17.4456,8.112 17.6364,8.4444 17.6364,8.8032 L17.6364,16.0032 C17.6352,16.1508 17.5536,16.2864 17.424,16.3572 L16.326,16.95 L16.326,11.9376 C16.326,11.5836 16.14,11.256 15.8376,11.0736 L11.088,8.2248 L11.088,5.2944 C11.088,5.2056 11.112,5.118 11.1552,5.0412 C11.2956,4.8012 11.604,4.7196 11.844,4.8588 L17.1348,7.932 Z" id="Shape" fill="#00D395"></path>
        </g>
    </g>
</svg>