<?xml version="1.0" encoding="UTF-8"?>
<svg width="24px" height="24px" viewBox="0 0 24 24" version="1.1" xmlns="http://www.w3.org/2000/svg" xmlns:xlink="http://www.w3.org/1999/xlink">
    <title>DAI</title>
    <g id="Page-1" stroke="none" stroke-width="1" fill="none" fill-rule="evenodd">
        <g id="DAI" fill-rule="nonzero">
            <path d="M12,0 C18.6280263,0 24,5.37305373 24,12 C24,18.6280263 18.6280263,24 12,24 C5.37305373,24 0,18.6274863 0,12 C0,5.37305373 5.37305373,0 12,0 Z" id="Path" fill="#F5AC37"></path>
            <path d="M12.4422644,12.8472685 L17.00207,12.8472685 C17.099271,12.8472685 17.1451715,12.8472685 17.1521915,12.7198272 C17.1894519,12.2559626 17.1894519,11.7893979 17.1521915,11.3249932 C17.1521915,11.2348123 17.1073711,11.197552 17.0096301,11.197552 L7.93483935,11.197552 C7.82251823,11.197552 7.79227792,11.2348123 7.79227792,11.3401134 L7.79227792,12.6750068 C7.79227792,12.8472685 7.79227792,12.8472685 7.97209972,12.8472685 L12.4422644,12.8472685 L12.4422644,12.8472685 Z M16.6429664,9.63747637 C16.6559266,9.60345603 16.6559266,9.56619566 16.6429664,9.53271533 C16.5668257,9.36693367 16.4766448,9.20871209 16.3718837,9.0602106 C16.2142021,8.80640806 16.0284403,8.57258573 15.8167582,8.36252363 C15.7168572,8.23562236 15.601296,8.12168122 15.4716947,8.02502025 C14.8226082,7.47259473 14.0509405,7.08163082 13.2214922,6.88506885 C12.802988,6.79110791 12.3753038,6.74628746 11.9465395,6.7500675 L7.91917919,6.7500675 C7.80685807,6.7500675 7.79173792,6.79488795 7.79173792,6.89262893 L7.79173792,9.55485555 C7.79173792,9.66717667 7.79173792,9.69741697 7.93429934,9.69741697 L16.5889659,9.69741697 C16.5889659,9.69741697 16.6640266,9.68229682 16.6791468,9.63747637 L16.6424264,9.63747637 L16.6429664,9.63747637 Z M16.6429664,14.4073441 C16.5155252,14.3933039 16.3870039,14.3933039 16.2595626,14.4073441 L7.94239942,14.4073441 C7.8300783,14.4073441 7.79227792,14.4073441 7.79227792,14.5574656 L7.79227792,17.1602916 C7.79227792,17.2801728 7.79227792,17.3104131 7.94239942,17.3104131 L11.7823778,17.3104131 C11.9659797,17.3244532 12.1495815,17.3114931 12.3294033,17.2731527 C12.8866889,17.2331923 13.4347943,17.1122311 13.9575196,16.9129691 C14.1476015,16.8470885 14.3312033,16.7612276 14.504545,16.6580866 L14.5569256,16.6580866 C15.4571146,16.1899019 16.1882819,15.4544145 16.6494465,14.5515255 C16.6494465,14.5515255 16.701827,14.4381244 16.6429664,14.4084241 L16.6429664,14.4073441 Z M6.28512285,18.6598866 L6.28512285,18.6150662 L6.28512285,16.8676087 L6.28512285,16.2752228 L6.28512285,14.5126451 C6.28512285,14.4149041 6.28512285,14.400324 6.16524165,14.400324 L4.53766538,14.400324 C4.44748447,14.400324 4.4102241,14.400324 4.4102241,14.2804428 L4.4102241,12.8553686 L6.1501215,12.8553686 C6.24732247,12.8553686 6.28512285,12.8553686 6.28512285,12.7279273 L6.28512285,11.3179732 C6.28512285,11.2277923 6.28512285,11.2056521 6.16524165,11.2056521 L4.53766538,11.2056521 C4.44748447,11.2056521 4.4102241,11.2056521 4.4102241,11.0857709 L4.4102241,9.76599766 C4.4102241,9.68337683 4.4102241,9.66123661 4.5301053,9.66123661 L6.14256143,9.66123661 C6.25488255,9.66123661 6.28512285,9.66123661 6.28512285,9.51867519 L6.28512285,5.47619476 C6.28512285,5.35631356 6.28512285,5.32607326 6.43524435,5.32607326 L12.0599406,5.32607326 C12.4681847,5.34227342 12.8737287,5.38709387 13.2749527,5.46107461 C14.101701,5.61389614 14.896049,5.90927909 15.6223562,6.33102331 C16.104041,6.61452615 16.5473855,6.95688957 16.9421294,7.35109351 C17.2391324,7.65943659 17.5069751,7.99315993 17.7445774,8.34848348 C17.9805598,8.70866709 18.1765818,9.09369094 18.3304833,9.49599496 C18.3493835,9.60075601 18.4498245,9.67149671 18.5545855,9.65367654 L19.897039,9.65367654 C20.0693007,9.65367654 20.0693007,9.65367654 20.0768608,9.81891819 L20.0768608,11.0490505 C20.0768608,11.1689317 20.0320403,11.199172 19.9116191,11.199172 L18.8764288,11.199172 C18.7716677,11.199172 18.7414274,11.199172 18.7489875,11.3341733 C18.7900279,11.7910179 18.7900279,12.2494825 18.7489875,12.7063271 C18.7489875,12.8337683 18.7489875,12.8488885 18.8920889,12.8488885 L20.0763208,12.8488885 C20.1287013,12.9163892 20.0763208,12.9838898 20.0763208,13.0519305 C20.0838808,13.1388714 20.0838808,13.2268923 20.0763208,13.3138331 L20.0763208,14.2215822 C20.0763208,14.3490235 20.0390604,14.3868239 19.9261993,14.3868239 L18.5086851,14.3868239 C18.4098641,14.3679237 18.3137431,14.4311043 18.2910629,14.5293853 C17.9535595,15.4068941 17.4135541,16.1936819 16.7158672,16.8244082 C16.4609846,17.0539105 16.1931419,17.2699127 15.9134191,17.4691747 C15.6131761,17.6419764 15.3210332,17.8217982 15.0132301,17.9643596 C14.4467645,18.2192422 13.8527585,18.4071641 13.2430924,18.5265053 C12.6642066,18.6301863 12.0772208,18.6771668 11.4880749,18.6690667 L6.28296283,18.6690667 L6.28296283,18.6615066 L6.28512285,18.6598866 Z" id="Shape" fill="#FEFEFD"></path>
        </g>
    </g>
</svg>