<?xml version="1.0" encoding="UTF-8"?>
<svg width="1255px" height="1255px" viewBox="0 0 1255 1255" version="1.1" xmlns="http://www.w3.org/2000/svg" xmlns:xlink="http://www.w3.org/1999/xlink">
    <title>Artboard</title>
    <g id="Artboard" stroke="none" stroke-width="1" fill="none" fill-rule="evenodd">
        <path d="M1229,627.5 C1229,959.700807 959.700807,1229 627.5,1229 C295.302517,1229 26,959.700807 26,627.5 C26,295.302517 295.302517,26 627.5,26 C959.700807,26 1229,295.302517 1229,627.5" id="Fill-1" fill="#FFFFFF"></path>
        <path d="M627.5,26 C834.038931,26 1016.26342,130.098122 1124.57043,288.688927 L1124.57501,288.679056 C940.393305,479.125269 647.316908,811.698008 578.6,934.1 C550,987.4 544.8,1030.3 556.5,1060.2 C569.5,1090.1 592.9,1082.3 605.9,1064.1 C700.8,921.1 912.7,691 1058.3,536.3 C1109.17958,480.897792 1154.15892,432.3792 1183.82997,398.441709 L1183.8457,398.433335 C1212.94729,469.037125 1229,546.394004 1229,627.5 C1229,959.700807 959.700807,1229 627.5,1229 C401.324505,1229 204.304096,1104.16583 101.58259,919.638165 C205.980517,792.411388 341.873871,645.552762 444.7,536.3 C503.2,472.6 553.9,418 582.5,384.2 C644.9,307.5 672.2,239.9 664.4,203.5 C657.9,171 635.8,165.8 609.8,190.5 C491.217612,300.833179 207.418988,610.734483 53.5874061,808.153021 L53.5974645,808.143084 C35.6670919,751.122517 26,690.440241 26,627.5 C26,295.302517 295.302517,26 627.5,26 Z M916.6,190.5 C767.1,329.6 355,785.9 271.8,934.1 C243.2,987.4 238,1030.3 249.7,1060.2 C262.7,1090.1 286.1,1082.3 299.1,1064.1 C394,921.1 605.9,691 751.5,536.3 C810,472.6 860.7,418 889.3,384.2 C951.7,307.5 979,239.9 971.2,203.5 C964.7,171 942.6,165.8 916.6,190.5 Z" id="Combined-Shape" fill="#EF494D"></path>
    </g>
</svg>