<?xml version="1.0" encoding="UTF-8"?>
<svg width="24px" height="24px" viewBox="0 0 24 24" version="1.1" xmlns="http://www.w3.org/2000/svg" xmlns:xlink="http://www.w3.org/1999/xlink">
    <title>ENJ</title>
    <g id="Page-1" stroke="none" stroke-width="1" fill="none" fill-rule="evenodd">
        <g id="ENJ" fill-rule="nonzero">
            <circle id="Oval" fill="#7866D5" cx="12" cy="12" r="12"></circle>
            <g id="Group" transform="translate(3.858956, 5.839210)" fill="#FFFFFF">
                <path d="M12.9985896,0.32157969 C13.4047955,0.37235543 13.8279267,0.406205924 14.2341326,0.473906911 C15.0296192,0.626234133 15.3004231,1.03244006 15.1650212,1.8448519 C15.1311707,2.14950635 14.8942172,2.3864598 14.5895628,2.43723554 C14.403385,2.47108604 14.2002821,2.48801128 14.0141044,2.47108604 C11.3737659,2.47108604 8.75035261,2.48801128 6.1100141,2.48801128 C5.72073343,2.48801128 5.3145275,2.52186178 4.92524683,2.58956276 C3.62200282,2.79266573 3.11424542,3.33427362 3.01269394,4.65444288 C2.96191819,5.26375176 2.96191819,5.26375176 3.58815233,5.26375176 L14.0818054,5.26375176 C14.1833568,5.26375176 14.2849083,5.26375176 14.3864598,5.26375176 C14.5557123,5.26375176 14.7080395,5.3145275 14.8603667,5.39915374 C15.3342736,5.70380818 15.2157969,6.19464034 15.1988717,6.63469676 C15.1819464,6.99012694 14.9619182,7.1932299 14.5895628,7.26093089 C14.4372355,7.29478138 14.2849083,7.29478138 14.1156559,7.29478138 C10.5275035,7.29478138 6.9393512,7.29478138 3.35119887,7.29478138 C2.96191819,7.29478138 2.96191819,7.29478138 2.99576869,7.68406206 C3.01269394,8.03949224 3.04654443,8.39492243 3.13117066,8.75035261 C3.30042313,9.39351199 3.68970381,9.79971791 4.34978843,9.98589563 C5.0606488,10.1889986 5.80535966,10.2228491 6.53314528,10.2397743 C9.08885755,10.2397743 11.6614951,10.2397743 14.2341326,10.2397743 C14.5557123,10.2397743 14.8603667,10.2736248 15.0634697,10.5782793 C15.3850494,11.0860367 15.2157969,11.7461213 14.7080395,12.067701 C14.6403385,12.1184767 14.5726375,12.1523272 14.4880113,12.1692525 C13.9294781,12.3554302 13.3540197,12.3892807 12.7616361,12.4062059 C10.3413258,12.4569817 7.93794076,12.4569817 5.53455571,12.4062059 C4.78984485,12.3892807 4.04513399,12.3046544 3.31734838,12.1523272 C1.60789845,11.796897 0.74471086,10.9167842 0.456981664,9.19040903 C0.389280677,8.80112835 0.355430183,8.39492243 0.304654443,7.9887165 L0.304654443,4.84062059 C0.338504937,4.53596615 0.37235543,4.21438646 0.406205924,3.90973202 C0.626234133,1.96332863 1.50634697,0.998589563 3.41889986,0.558533145 C4.09590973,0.406205924 4.8067701,0.37235543 5.48377997,0.304654443 L12.9985896,0.32157969 Z" id="Path"></path>
                <path d="M9.13963329,12.7447109 C7.92101551,12.7447109 6.71932299,12.7277856 5.51763047,12.7108604 C4.75599436,12.6939351 3.99435825,12.6093089 3.24964739,12.4400564 C1.40479549,12.0507757 0.456981664,11.0691114 0.152327221,9.24118477 C0.101551481,8.95345557 0.0677009873,8.66572638 0.0507757405,8.39492243 C0.0338504937,8.2764457 0.0169252468,8.15796897 0,8.022567 L0,7.9887165 L0,4.8067701 L0.0338504937,4.50211566 C0.0507757405,4.28208745 0.0846262341,4.07898449 0.101551481,3.87588152 C0.338504937,1.79407616 1.32016925,0.727785614 3.36812412,0.270803949 C3.90973202,0.152327221 4.43441467,0.101551481 4.95909732,0.0507757405 C5.12834979,0.0338504937 5.29760226,0.0169252468 5.46685472,0 L5.50070522,0 L13.0324401,0 L13.0493653,0 C13.167842,0.0169252468 13.303244,0.0338504937 13.4217207,0.0338504937 C13.7094499,0.0677009873 13.9971791,0.0846262341 14.3018336,0.152327221 C15.2665726,0.338504937 15.6389281,0.880112835 15.4696756,1.86177715 C15.4188999,2.28490832 15.0803949,2.6403385 14.6234133,2.70803949 C14.4203103,2.74188999 14.2172073,2.75881523 13.9971791,2.75881523 C11.3737659,2.77574048 8.73342736,2.79266573 6.1100141,2.79266573 C5.73765867,2.79266573 5.348378,2.82651622 4.97602257,2.89421721 C3.80818054,3.08039492 3.41889986,3.50352609 3.31734838,4.68829337 C3.31734838,4.78984485 3.30042313,4.89139633 3.30042313,4.97602257 C3.36812412,4.97602257 3.48660085,4.97602257 3.58815233,4.97602257 L14.3864598,4.97602257 L14.3864598,4.97602257 C14.606488,4.97602257 14.8265162,5.04372355 15.0126939,5.14527504 C15.5881523,5.51763047 15.5373766,6.07616361 15.5035261,6.48236953 C15.5035261,6.53314528 15.4866008,6.60084626 15.4866008,6.651622 C15.4527504,7.12552891 15.1650212,7.4471086 14.6403385,7.54866008 C14.4541608,7.58251058 14.2849083,7.58251058 14.1156559,7.58251058 L3.36812412,7.58251058 C3.35119887,7.58251058 3.31734838,7.58251058 3.30042313,7.58251058 C3.30042313,7.59943583 3.30042313,7.61636107 3.30042313,7.63328632 L3.30042313,7.65021157 C3.31734838,8.00564175 3.35119887,8.34414669 3.43582511,8.68265162 C3.57122708,9.20733427 3.89280677,9.52891396 4.43441467,9.68124118 C5.16220028,9.88434415 5.90691114,9.91819464 6.55007052,9.91819464 C8.54724965,9.93511989 10.5782793,9.93511989 12.5585331,9.93511989 L14.2510578,9.93511989 C14.5049365,9.93511989 15.0296192,9.93511989 15.3342736,10.425952 C15.5373766,10.7475317 15.5881523,11.1198872 15.5035261,11.4753173 C15.4188999,11.8307475 15.1988717,12.135402 14.877292,12.3385049 C14.7926657,12.3892807 14.6911142,12.4400564 14.5895628,12.4739069 C13.9633286,12.6770099 13.3201693,12.7108604 12.7785614,12.7277856 C11.5768688,12.7277856 10.3582511,12.7447109 9.13963329,12.7447109 Z M0.609308886,7.97179126 C0.626234133,8.09026798 0.643159379,8.20874471 0.643159379,8.32722144 C0.677009873,8.59802539 0.710860367,8.86882934 0.74471086,9.13963329 C1.01551481,10.7306065 1.77715092,11.5091678 3.36812412,11.8476728 C4.07898449,12 4.8067701,12.0846262 5.53455571,12.1015515 C7.92101551,12.1523272 10.3582511,12.1523272 12.7616361,12.1015515 C13.2524683,12.0846262 13.8448519,12.0507757 14.3864598,11.8815233 C14.4372355,11.864598 14.4880113,11.8307475 14.538787,11.8138223 C14.7080395,11.6953456 14.8434415,11.5260931 14.8942172,11.3229901 C14.9449929,11.1198872 14.9111425,10.9167842 14.7926657,10.7306065 C14.6911142,10.5782793 14.5557123,10.5275035 14.2341326,10.5275035 L12.5416079,10.5275035 C10.5782793,10.5275035 8.5303244,10.5275035 6.53314528,10.5105783 C5.8561354,10.5105783 5.0606488,10.4767278 4.2651622,10.2397743 C3.50352609,10.0366714 3.02961918,9.54583921 2.84344147,8.7842031 C2.75881523,8.41184767 2.70803949,8.022567 2.70803949,7.65021157 L2.70803949,7.63328632 C2.69111425,7.39633286 2.674189,7.22708039 2.80959097,7.07475317 C2.94499295,6.92242595 3.13117066,6.92242595 3.36812412,6.92242595 L14.1325811,6.92242595 C14.2679831,6.92242595 14.4203103,6.92242595 14.5557123,6.88857546 C14.8265162,6.83779972 14.8942172,6.71932299 14.9111425,6.55007052 C14.9111425,6.48236953 14.9280677,6.43159379 14.9280677,6.36389281 C14.9619182,5.94076164 14.9619182,5.73765867 14.7249647,5.58533145 C14.6403385,5.53455571 14.5218618,5.50070522 14.4203103,5.50070522 L14.4203103,5.50070522 L3.58815233,5.50070522 C3.2157969,5.50070522 2.99576869,5.50070522 2.82651622,5.33145275 C2.65726375,5.16220028 2.69111425,4.92524683 2.70803949,4.56981664 C2.82651622,3.11424542 3.43582511,2.45416079 4.87447109,2.23413258 C5.28067701,2.16643159 5.68688293,2.1325811 6.1100141,2.11565585 C8.75035261,2.11565585 11.3737659,2.09873061 14.0141044,2.09873061 C14.2002821,2.09873061 14.3695346,2.09873061 14.538787,2.06488011 C14.7080395,2.04795487 14.8434415,1.91255289 14.8603667,1.74330042 C14.9788434,1.06629055 14.809591,0.846262341 14.1664316,0.710860367 C13.8956276,0.660084626 13.6248237,0.626234133 13.3540197,0.609308886 C13.235543,0.592383639 13.100141,0.575458392 12.9816643,0.575458392 L5.50070522,0.575458392 C5.33145275,0.592383639 5.16220028,0.609308886 4.99294781,0.626234133 C4.46826516,0.677009873 3.977433,0.710860367 3.4696756,0.829337094 C1.69252468,1.26939351 0.913963329,2.1325811 0.710860367,3.96050776 C0.69393512,4.16361072 0.660084626,4.36671368 0.643159379,4.58674189 L0.609308886,4.87447109 L0.609308886,7.97179126 L0.609308886,7.97179126 Z" id="Shape"></path>
            </g>
        </g>
    </g>
</svg>