<?xml version="1.0" encoding="UTF-8"?>
<svg width="25px" height="25px" viewBox="0 0 25 25" version="1.1" xmlns="http://www.w3.org/2000/svg" xmlns:xlink="http://www.w3.org/1999/xlink">
    <title>ETH</title>
    <g id="ETH" stroke="none" stroke-width="1" fill="none" fill-rule="evenodd">
        <g id="eth" transform="translate(4.864532, 0.000000)" fill-rule="nonzero">
            <path d="M7.67241379,0.13546798 L7.67241379,0.147783251 C7.68472906,0.209359606 7.68472906,0.283251232 7.68472906,0.357142857 L7.68472906,9.2364532 C7.67241379,9.28571429 7.63546798,9.29802956 7.59852217,9.3226601 C7.33990148,9.44581281 7.09359606,9.55665025 6.83497537,9.66748768 C6.47783251,9.82758621 6.10837438,10 5.75123153,10.1600985 L4.45812808,10.7512315 C4.10098522,10.91133 3.74384236,11.0714286 3.39901478,11.2315271 C2.98029557,11.4285714 2.54926108,11.6133005 2.13054187,11.8103448 C1.77339901,11.9704433 1.41625616,12.1428571 1.04679803,12.3029557 C0.751231527,12.4384236 0.455665025,12.5615764 0.172413793,12.6970443 C0.147783251,12.7093596 0.123152709,12.7216749 0.0985221675,12.7216749 C0.0862068966,12.7216749 0.0862068966,12.7216749 0.0738916256,12.7093596 L0.406403941,12.1551724 C1.04679803,11.0960591 1.67487685,10.0492611 2.31527094,8.99014778 C2.99261084,7.85714286 3.68226601,6.72413793 4.35960591,5.591133 C4.98768473,4.54433498 5.62807882,3.49753695 6.25615764,2.45073892 C6.71182266,1.68719212 7.17980296,0.92364532 7.63546798,0.160098522 C7.64778325,0.13546798 7.66009852,0.123152709 7.66009852,0.0985221675 L7.67241379,0.0985221675 C7.66009852,0.110837438 7.67241379,0.123152709 7.67241379,0.13546798 Z" id="Shape" fill="#8A92B2"></path>
            <path d="M15.2339901,12.7093596 L15.2463054,12.7216749 L13.4359606,13.7931034 L7.74630542,17.1551724 C7.72167488,17.1674877 7.69704433,17.179803 7.68472906,17.1921182 C7.64778325,17.1921182 7.64778325,17.1551724 7.64778325,17.1428571 L7.64778325,17.0320197 L7.64778325,9.42118227 C7.64778325,9.38423645 7.64778325,9.33497537 7.66009852,9.29802956 C7.67241379,9.24876847 7.70935961,9.26108374 7.74630542,9.27339901 C7.90640394,9.34729064 8.07881773,9.42118227 8.23891626,9.49507389 C8.71921182,9.71674877 9.19950739,9.93842365 9.67980296,10.1477833 C10.0985222,10.3325123 10.5049261,10.5295567 10.9236453,10.7142857 C11.3423645,10.8990148 11.7610837,11.0960591 12.179803,11.2807882 C12.5369458,11.4408867 12.9064039,11.6133005 13.2635468,11.773399 C13.6206897,11.9334975 13.9901478,12.1059113 14.3472906,12.2660099 C14.6305419,12.3891626 14.9137931,12.5246305 15.1970443,12.6477833 C15.1970443,12.6847291 15.2093596,12.6970443 15.2339901,12.7093596 L15.2339901,12.7093596 Z" id="Shape" fill="#454A75"></path>
            <path d="M7.67241379,24.8399015 C7.67241379,24.8522167 7.66009852,24.864532 7.66009852,24.8768473 L7.64778325,24.8768473 C7.64778325,24.8522167 7.62315271,24.8399015 7.61083744,24.8152709 C6.84729064,23.7438424 6.08374384,22.6600985 5.32019704,21.58867 C4.54433498,20.4926108 3.75615764,19.3842365 2.98029557,18.2881773 C2.22906404,17.229064 1.46551724,16.1576355 0.714285714,15.0985222 C0.517241379,14.8152709 0.320197044,14.544335 0.123152709,14.2610837 C0.110837438,14.2364532 0.0985221675,14.2241379 0.0738916256,14.1871921 C0.110837438,14.1871921 0.13546798,14.2118227 0.147783251,14.2241379 C1.21921182,14.8522167 2.27832512,15.4802956 3.34975369,16.1083744 C4.58128079,16.8349754 5.80049261,17.5615764 7.0320197,18.2881773 L7.66009852,18.6576355 C7.68472906,18.682266 7.68472906,18.7068966 7.68472906,18.7315271 L7.68472906,24.6674877 C7.68472906,24.729064 7.68472906,24.7906404 7.67241379,24.8399015 L7.67241379,24.8399015 Z" id="Shape" fill="#8A92B2"></path>
            <polygon id="Shape" fill="#808080" points="0.0869458128 12.7093596 0.136945813 12.7093596 0.136945813 12.7593596 0.0369458128 12.7593596 0.0369458128 12.7093596"></polygon>
            <path d="M7.71009852,0.210837438 C7.66009852,0.210837438 7.66009852,0.160837438 7.66009852,0.110837438 L7.71009852,0.110837438 L7.71009852,0.210837438 Z" id="Shape" fill="#FFFFFF"></path>
            <path d="M0.0615763547,12.7339901 L0.0615763547,12.7216749 C0.455665025,12.5492611 0.837438424,12.364532 1.23152709,12.1921182 C1.7364532,11.9581281 2.24137931,11.7364532 2.74630542,11.5024631 C3.12807882,11.3300493 3.52216749,11.1453202 3.90394089,10.9729064 C4.47044335,10.7142857 5.02463054,10.4679803 5.591133,10.2093596 C5.9729064,10.0369458 6.3546798,9.86453202 6.74876847,9.67980296 C7.01970443,9.55665025 7.30295567,9.43349754 7.57389163,9.31034483 C7.59852217,9.29802956 7.63546798,9.28571429 7.64778325,9.26108374 C7.66009852,9.26108374 7.66009852,9.27339901 7.64778325,9.28571429 L7.64778325,17.1059113 C7.64778325,17.1428571 7.63546798,17.179803 7.66009852,17.2044335 C7.63546798,17.2413793 7.61083744,17.2044335 7.59852217,17.1921182 C7.48768473,17.1305419 7.37684729,17.0689655 7.26600985,16.9950739 C4.88916256,15.591133 2.5,14.1748768 0.123152709,12.770936 C0.110837438,12.7586207 0.0862068966,12.7463054 0.0615763547,12.7339901 L0.0615763547,12.7339901 Z M15.2093596,14.1871921 L15.2216749,14.1871921 C15.2216749,14.2118227 15.1970443,14.2364532 15.1847291,14.2610837 C12.9187192,17.4507389 10.6527094,20.6527094 8.38669951,23.8423645 C8.15270936,24.1748768 7.90640394,24.5073892 7.67241379,24.8399015 C7.66009852,24.8275862 7.66009852,24.8152709 7.66009852,24.8029557 L7.66009852,24.729064 L7.66009852,18.7561576 L7.66009852,18.6453202 C8.1773399,18.3374384 8.68226601,18.0418719 9.19950739,17.7339901 C11.1945813,16.5517241 13.1896552,15.3817734 15.1724138,14.1995074 C15.1847291,14.2118227 15.1970443,14.1995074 15.2093596,14.1871921 L15.2093596,14.1871921 Z" id="Shape" fill="#62688F"></path>
            <path d="M7.66009852,9.28571429 L7.66009852,9.26108374 L7.66009852,9.18719212 L7.66009852,0.246305419 C7.66009852,0.209359606 7.64778325,0.184729064 7.67241379,0.147783251 C10.1724138,4.29802956 12.6724138,8.43596059 15.1600985,12.5862069 C15.1847291,12.6231527 15.2216749,12.6724138 15.2339901,12.7216749 C15.0615764,12.6600985 14.9014778,12.5738916 14.7413793,12.5 C14.544335,12.4137931 14.3349754,12.3152709 14.137931,12.229064 C14.0147783,12.1674877 13.8793103,12.1182266 13.7561576,12.0566502 C13.546798,11.9581281 13.3374384,11.8719212 13.1280788,11.773399 C13.0049261,11.7241379 12.8817734,11.6625616 12.7586207,11.6009852 L11.9458128,11.2315271 C11.8103448,11.1699507 11.6748768,11.1083744 11.5270936,11.046798 L10.9359606,10.7881773 C10.8128079,10.7389163 10.6896552,10.6773399 10.5665025,10.6157635 L9.75369458,10.2463054 C9.6182266,10.1847291 9.48275862,10.1231527 9.33497537,10.0615764 L8.74384236,9.80295567 C8.60837438,9.74137931 8.48522167,9.67980296 8.34975369,9.6182266 C8.11576355,9.50738916 7.8817734,9.39655172 7.63546798,9.29802956 C7.67241379,9.28571429 7.66009852,9.28571429 7.66009852,9.28571429 Z" id="Shape" fill="#62688F"></path>
        </g>
    </g>
</svg>