<?xml version="1.0" encoding="UTF-8"?>
<svg width="24px" height="21px" viewBox="0 0 24 21" version="1.1" xmlns="http://www.w3.org/2000/svg" xmlns:xlink="http://www.w3.org/1999/xlink">
    <title>FTX</title>
    <g id="Page-1" stroke="none" stroke-width="1" fill="none" fill-rule="evenodd">
        <g id="FTX" fill-rule="nonzero">
            <path d="M6.78481823,0.00132814315 C12.5224122,-0.000442714384 18.2603661,-0.000442714384 23.99868,0.00132814315 C24.00044,1.86740952 24.00044,3.73316892 23.99868,5.59860635 C18.2609261,5.60037721 12.5229722,5.60037721 6.78481823,5.59860635 C6.78297826,3.73252497 6.78297826,1.86676557 6.78481823,0.00132814315 Z" id="Path" fill="#02A6C2"></path>
            <path d="M0.007199892,7.70443769 C1.85829213,7.69477847 3.70970435,7.69477847 5.56143658,7.70443769 C5.57103643,9.56697735 5.57103643,11.429839 5.56143658,13.2930226 C3.70978435,13.3026013 1.85837212,13.3027623 0.007199892,13.2935056 C-0.002399964,11.4306439 -0.002399964,9.5676213 0.007199892,7.70443769 Z" id="Path" fill="#5FCADE"></path>
            <path d="M6.78913816,7.70443769 C10.930436,7.6955834 15.0714539,7.6955834 19.2121918,7.70443769 C19.2209917,9.56697735 19.2209917,11.429839 19.2121918,13.2930226 C15.0709739,13.3017159 10.9299561,13.3017159 6.78913816,13.2930226 C6.78049829,11.4304024 6.78049829,9.56754081 6.78913816,7.70443769 Z" id="Path" fill="#5FCADE"></path>
            <path d="M6.79429809,15.4092376 C8.64227037,15.3890337 10.4899227,15.3890337 12.3372549,15.4092376 C12.3564547,17.2674306 12.3567346,19.1265091 12.3380949,20.9864729 C10.4901226,21.0048254 8.64251036,21.0045035 6.79525807,20.985507 C6.77605836,19.127475 6.77573836,17.2687185 6.79429809,15.4092376 Z" id="Path" fill="#ABEBF4"></path>
        </g>
    </g>
</svg>