<?xml version="1.0" encoding="UTF-8"?>
<svg width="24px" height="24px" viewBox="0 0 24 24" version="1.1" xmlns="http://www.w3.org/2000/svg" xmlns:xlink="http://www.w3.org/1999/xlink">
    <title>SNX</title>
    <defs>
        <linearGradient x1="50.0068771%" y1="-0.000289415656%" x2="50.0068771%" y2="26.4605706%" id="linearGradient-1">
            <stop stop-color="#090220" offset="0%"></stop>
            <stop stop-color="#170659" offset="100%"></stop>
        </linearGradient>
    </defs>
    <g id="Page-1" stroke="none" stroke-width="1" fill="none" fill-rule="evenodd">
        <g id="SNX" fill-rule="nonzero">
            <circle id="Oval" fill="url(#linearGradient-1)" cx="12" cy="12" r="12"></circle>
            <g id="Group" transform="translate(4.349504, 6.498808)" fill="#00D1FF">
                <path d="M3.69790518,2.51773037 C3.60198456,2.3986565 3.45644983,2.33250435 3.30099228,2.33250435 L0.0959206174,2.33250435 C0.0694597574,2.33250435 0.046306505,2.32258153 0.02646086,2.30604349 C0.00992282249,2.28950545 -3.55271368e-15,2.26965981 -3.55271368e-15,2.24650655 L-3.55271368e-15,0.0866388582 C-3.55271368e-15,0.0634856057 0.00992282249,0.0436399607 0.02646086,0.0271019232 C0.046306505,0.00725627827 0.0694597574,-0.00266654423 0.0959206174,0.000641063272 L3.48291069,0.000641063272 C4.33627343,0.000641063272 5.0738699,0.351247458 5.69570011,1.04915264 L6.51929438,2.05466532 L4.91510474,4.00946135 L3.69790518,2.51773037 Z M9.6185226,1.03922982 C10.2370452,0.34793985 10.9779493,0.000641063272 11.8412348,0.000641063272 L15.2183021,0.000641063272 C15.2414553,-0.00266654423 15.2646086,0.00725627827 15.2811466,0.0204867083 C15.2976847,0.0370247457 15.3042999,0.0601779982 15.3009923,0.0866388582 L15.3009923,2.24650655 C15.3009923,2.26965981 15.2943771,2.28950545 15.2811466,2.30604349 C15.2646086,2.32588913 15.2414553,2.33581196 15.2183021,2.33250435 L12.0132304,2.33250435 C11.8610805,2.32919674 11.7155458,2.3986565 11.6163175,2.51773037 L9.25468578,5.39204128 L11.6262404,8.28619784 C11.722161,8.39534889 11.8643881,8.46150104 12.0099228,8.45819343 L15.2149945,8.45819343 C15.2381477,8.45488583 15.2646086,8.46811626 15.277839,8.48465429 C15.2910695,8.50449994 15.3009923,8.5309608 15.2976847,8.55411405 L15.2976847,10.7139817 C15.2976847,10.737135 15.2910695,10.7569806 15.277839,10.7735187 C15.261301,10.7933643 15.2381477,10.8032871 15.2149945,10.7999795 L11.8412348,10.7999795 C10.9779493,10.7999795 10.2436604,10.4493731 9.62844542,9.75146797 L7.66372657,7.35345253 L5.69900772,9.75146797 C5.08048512,10.4493731 4.33958104,10.7999795 3.47629548,10.7999795 L0.0959206174,10.7999795 C0.0727673649,10.8032871 0.046306505,10.7900567 0.033076075,10.7735187 C0.0165380375,10.753673 0.00992282249,10.7272122 0.01323043,10.7040589 L0.01323043,8.54419123 C0.01323043,8.52103798 0.019845645,8.50119233 0.033076075,8.48465429 C0.0496141125,8.46480865 0.0727673649,8.45488583 0.0959206174,8.45819343 L3.30099228,8.45819343 C3.45314223,8.45819343 3.59867696,8.38873368 3.69790518,8.27296741 L6.01653804,5.4416554 L9.6185226,1.03922982 Z" id="Shape"></path>
            </g>
        </g>
    </g>
</svg>