<?xml version="1.0" encoding="UTF-8"?>
<svg width="25px" height="25px" viewBox="0 0 25 25" version="1.1" xmlns="http://www.w3.org/2000/svg" xmlns:xlink="http://www.w3.org/1999/xlink">
    <title>sUSD</title>
    <g id="Page-1" stroke="none" stroke-width="1" fill="none" fill-rule="evenodd">
        <g id="sUSD" fill-rule="nonzero">
            <path d="M12.5,25 C19.427125,25 25,19.427125 25,12.5 C25,5.572875 19.427125,0 12.5,0 C5.572875,0 0,5.572875 0,12.5 C0,19.427125 5.572875,25 12.5,25 Z" id="Path" fill="#2775CA"></path>
            <path d="M15.9375,14.479125 C15.9375,12.65625 14.84375,12.03125 12.65625,11.770875 C11.09375,11.5625 10.78125,11.145875 10.78125,10.416625 C10.78125,9.687375 11.302125,9.21875 12.34375,9.21875 C13.28125,9.21875 13.802125,9.53125 14.0625,10.3125 C14.114625,10.46875 14.270875,10.572875 14.427125,10.572875 L15.260375,10.572875 C15.46875,10.572875 15.625,10.416625 15.625,10.208375 L15.625,10.15625 C15.416625,9.010375 14.479125,8.125 13.28125,8.020875 L13.28125,6.770875 C13.28125,6.5625 13.125,6.40625 12.864625,6.354125 L12.083375,6.354125 C11.875,6.354125 11.71875,6.510375 11.666625,6.770875 L11.666625,7.96875 C10.104125,8.177125 9.114625,9.21875 9.114625,10.520875 C9.114625,12.239625 10.15625,12.916625 12.34375,13.177125 C13.802125,13.4375 14.270875,13.75 14.270875,14.583375 C14.270875,15.41675 13.541625,15.989625 12.552125,15.989625 C11.197875,15.989625 10.729125,15.416625 10.572875,14.635375 C10.520875,14.427125 10.364625,14.322875 10.208375,14.322875 L9.322875,14.322875 C9.114625,14.322875 8.958375,14.479125 8.958375,14.6875 L8.958375,14.739625 C9.166625,16.041625 10,16.979125 11.71875,17.239625 L11.71875,18.489625 C11.71875,18.697875 11.875,18.854125 12.135375,18.90625 L12.916625,18.90625 C13.125,18.90625 13.28125,18.75 13.333375,18.489625 L13.333375,17.239625 C14.895875,16.979125 15.9375,15.885375 15.9375,14.479125 L15.9375,14.479125 Z" id="Path" fill="#FFFFFF"></path>
            <path d="M9.84375,19.947875 C5.78125,18.489625 3.697875,13.958375 5.208375,9.947875 C5.989625,7.760375 7.708375,6.09375 9.84375,5.3125 C10.052125,5.208375 10.15625,5.052125 10.15625,4.791625 L10.15625,4.0625 C10.15625,3.854125 10.052125,3.697875 9.84375,3.645875 C9.791625,3.645875 9.6875,3.645875 9.635375,3.697875 C4.6875,5.260375 1.979125,10.520875 3.541625,15.46875 C4.479125,18.385375 6.71875,20.625 9.635375,21.5625 C9.84375,21.666625 10.052125,21.5625 10.104125,21.354125 C10.15625,21.302125 10.15625,21.25 10.15625,21.145875 L10.15625,20.416625 C10.15625,20.260375 10,20.052125 9.84375,19.947875 Z M15.364625,3.697875 C15.15625,3.59375 14.947875,3.697875 14.895875,3.90625 C14.84375,3.958375 14.84375,4.010375 14.84375,4.114625 L14.84375,4.84375 C14.84375,5.052125 15,5.260375 15.15625,5.364625 C19.21875,6.822875 21.302125,11.354125 19.791625,15.364625 C19.010375,17.552125 17.291625,19.21875 15.15625,20 C14.947875,20.104125 14.84375,20.260375 14.84375,20.520875 L14.84375,21.25 C14.84375,21.458375 14.947875,21.614625 15.15625,21.666625 C15.208375,21.666625 15.3125,21.666625 15.364625,21.614625 C20.3125,20.052125 23.020875,14.791625 21.458375,9.84375 C20.520875,6.875 18.229125,4.635375 15.364625,3.697875 Z" id="Shape" fill="#FFFFFF"></path>
        </g>
    </g>
</svg>