<?xml version="1.0" encoding="UTF-8"?>
<svg width="25px" height="25px" viewBox="0 0 25 25" version="1.1" xmlns="http://www.w3.org/2000/svg" xmlns:xlink="http://www.w3.org/1999/xlink">
    <title>TUSD</title>
    <g id="TUSD" stroke="none" stroke-width="1" fill="none" fill-rule="evenodd">
        <g id="Group" transform="translate(1.000000, 0.000000)">
            <path d="M2.17524194,12.3752419 C2.17524194,6.98427419 7.33693548,2.26516129 13.6106452,2.26516129 C17.5104032,2.26516129 20.8604839,4.14024194 22.8377419,6.85362903 C20.9759677,2.96080645 16.7820161,0.000967741935 11.776371,0.000967741935 C4.9816129,0.000967741935 0.0257258065,4.88129032 0.0257258065,10.7198387 C0.0257258065,14.6610484 2.47798387,18.1389516 6.16153226,19.9834677 C3.73758065,18.0516935 2.17524194,15.2845161 2.17524194,12.3752419" id="Fill-3" fill="#606161"></path>
            <path d="M21.2071774,12.5960484 C21.2071774,17.9870161 16.0454839,22.706129 9.77177419,22.706129 C5.87201613,22.706129 2.52193548,20.831129 0.544758065,18.1175 C2.40653226,22.0104032 6.60048387,24.9702419 11.6060484,24.9702419 C18.4008065,24.9702419 23.3566935,20.0900806 23.3566935,14.251371 C23.3566935,10.3102419 21.2110484,6.62854839 17.2208871,4.98782258 C19.9807258,6.67354839 21.2071774,9.68677419 21.2071774,12.5960484" id="Fill-4" fill="#5DC9BC"></path>
            <path d="M8.98733871,7.37693548 C7.04475806,7.37693548 6.18330645,9.53943548 6.18330645,9.53943548 L10.5402419,9.53943548 L10.5466935,18.5770161 C10.5466935,18.5770161 12.9275806,17.7039516 12.9275806,15.7350806 C12.9275806,14.5095161 12.9275806,11.5780645 12.9275806,9.53943548 C13.7449194,9.53943548 14.4000806,9.53943548 14.7053226,9.53943548 C15.9698387,9.53943548 17.2160484,7.37693548 17.2160484,7.37693548 C17.2160484,7.37693548 10.93,7.37693548 8.98733871,7.37693548" id="Fill-5" fill="#606161"></path>
        </g>
    </g>
</svg>