<?xml version="1.0" encoding="UTF-8"?>
<svg width="24px" height="28px" viewBox="0 0 24 28" version="1.1" xmlns="http://www.w3.org/2000/svg" xmlns:xlink="http://www.w3.org/1999/xlink">
    <title>UNI</title>
    <g id="Page-1" stroke="none" stroke-width="1" fill="none" fill-rule="evenodd">
        <g id="UNI" fill="#FF007A">
            <path d="M9.40966543,6.36823105 C9.11028716,6.32490975 9.09603105,6.31046931 9.23859213,6.29602888 C9.50945818,6.25270758 10.1367269,6.31046931 10.5786663,6.41155235 C11.6051061,6.65703971 12.5317531,7.29241877 13.5154245,8.40433213 L13.7720345,8.70758123 L14.1426933,8.64981949 C15.7251213,8.3898917 17.3503176,8.59205776 18.7046479,9.22743682 C19.0753067,9.40072202 19.6598071,9.74729242 19.7310876,9.83393502 C19.7595999,9.86281588 19.8023682,10.0505415 19.8308804,10.2382671 C19.9306732,10.9169675 19.8879048,11.4223827 19.6740632,11.8122744 C19.5600144,12.0288809 19.5600144,12.0866426 19.6312949,12.2743682 C19.6883193,12.4187726 19.8593926,12.5198556 20.0162098,12.5198556 C20.3583564,12.5198556 20.7147591,11.9711191 20.8858324,11.2057762 L20.9571129,10.9025271 L21.0854179,11.0469314 C21.8124794,11.8700361 22.3827237,13.0108303 22.4682604,13.8194946 L22.4967726,14.0361011 L22.3684676,13.8483755 C22.154626,13.5162455 21.9550405,13.299639 21.6841744,13.1119134 C21.1994668,12.7797834 20.6862469,12.6787004 19.3319166,12.6064982 C18.1058913,12.534296 17.407342,12.433213 16.7230489,12.2021661 C15.554048,11.8122744 14.9552915,11.3068592 13.572449,9.44404332 C12.9594363,8.62093863 12.5745214,8.1732852 12.1896065,7.79783394 C11.3484961,6.97472924 10.5073857,6.54151625 9.40966543,6.36823105 Z" id="Path" fill-rule="nonzero"></path>
            <path d="M20.0304659,8.20216606 C20.0589781,7.6534296 20.1302587,7.29241877 20.2870759,6.96028881 C20.3441003,6.83032491 20.4011247,6.71480144 20.4153808,6.71480144 C20.4296369,6.71480144 20.4011247,6.81588448 20.3583564,6.93140794 C20.2443075,7.24909747 20.2300514,7.6967509 20.301332,8.20216606 C20.4011247,8.85198556 20.443893,8.93862816 21.1281862,9.64620939 C21.4418206,9.97833935 21.8124794,10.3971119 21.9550405,10.5703971 L22.1973943,10.8880866 L21.9550405,10.6570397 C21.6556622,10.368231 20.971369,9.81949458 20.8145519,9.74729242 C20.7147591,9.68953069 20.700503,9.68953069 20.6292225,9.76173285 C20.572198,9.81949458 20.5579419,9.90613718 20.5579419,10.3249097 C20.5436858,10.9747292 20.4581492,11.3790614 20.2443075,11.7978339 C20.1302587,12.0144404 20.1160026,11.9711191 20.2157953,11.7256318 C20.2870759,11.5379061 20.301332,11.4512635 20.301332,10.8303249 C20.301332,9.57400722 20.1587709,9.27075812 19.2891483,8.76534296 C19.0753067,8.63537906 18.7046479,8.44765343 18.4908062,8.3465704 C18.2627085,8.24548736 18.0916352,8.15884477 18.1058913,8.15884477 C18.1344035,8.1299639 18.9755139,8.37545126 19.3034044,8.5198556 C19.8023682,8.72202166 19.8879048,8.73646209 19.9449293,8.72202166 C19.9876976,8.67870036 20.0162098,8.5631769 20.0304659,8.20216606 Z" id="Path" fill-rule="nonzero"></path>
            <path d="M9.99416586,10.3537906 C9.39540932,9.51624549 9.0104944,8.2166065 9.09603105,7.24909747 L9.12454326,6.94584838 L9.26710435,6.97472924 C9.52371429,7.01805054 9.96565364,7.19133574 10.1794953,7.32129964 C10.7497396,7.66787004 11.0063495,8.14440433 11.2487034,9.32851986 C11.3199839,9.67509025 11.4197767,10.0794224 11.462545,10.2093863 C11.5338255,10.4259928 11.8046916,10.9314079 12.0327893,11.2490975 C12.1896065,11.4801444 12.0898137,11.5956679 11.733411,11.566787 C11.1916789,11.5090253 10.4646174,11.0036101 9.99416586,10.3537906 Z" id="Path" fill-rule="nonzero"></path>
            <path d="M19.3034044,16.6353791 C16.480695,15.4801444 15.4827675,14.4837545 15.4827675,12.7942238 C15.4827675,12.5487365 15.4970236,12.3465704 15.4970236,12.3465704 C15.5112797,12.3465704 15.6110724,12.433213 15.7393774,12.534296 C16.3096217,12.9963899 16.9511466,13.198556 18.7331601,13.4584838 C19.773856,13.6173285 20.3726125,13.732852 20.9143446,13.9205776 C22.6393337,14.4981949 23.7085418,15.6823105 23.9651517,17.2851986 C24.0364323,17.7472924 23.993664,18.6281588 23.8796151,19.0902527 C23.7798223,19.4512635 23.4947002,20.1155235 23.4234196,20.1299639 C23.4091635,20.1299639 23.3806513,20.0577617 23.3806513,19.9422383 C23.3521391,19.3357401 23.0527608,18.7581227 22.553797,18.3104693 C21.9550405,17.7906137 21.1852107,17.400722 19.3034044,16.6353791 Z" id="Path" fill-rule="nonzero"></path>
            <path d="M17.3075493,17.1119134 C17.2790371,16.8953069 17.2077565,16.6209386 17.1649882,16.5054152 L17.0937077,16.2888087 L17.2220126,16.4476534 C17.407342,16.6642599 17.5499031,16.9241877 17.6782081,17.2851986 C17.7780008,17.5595668 17.7780008,17.6462094 17.7780008,18.0938628 C17.7780008,18.5270758 17.7637447,18.6281588 17.6782081,18.8736462 C17.535647,19.2635379 17.3645737,19.5379061 17.0794516,19.8411552 C16.5662317,20.3754513 15.8961946,20.6642599 14.9410353,20.7942238 C14.769962,20.8086643 14.2852544,20.8519856 13.8575711,20.8808664 C12.788363,20.9386282 12.0755576,21.0541516 11.4340328,21.2851986 C11.3484961,21.3140794 11.2629595,21.3429603 11.2487034,21.3285199 C11.2201911,21.299639 11.6621305,21.0397112 12.0185332,20.866426 C12.517497,20.6209386 13.0307169,20.4909747 14.1569494,20.2888087 C14.7129376,20.2021661 15.2831819,20.0866426 15.425743,20.0288809 C16.8370977,19.5812274 17.535647,18.4693141 17.3075493,17.1119134 Z" id="Path" fill-rule="nonzero"></path>
            <path d="M18.6048551,19.4368231 C18.2341963,18.6137184 18.1486597,17.833935 18.3482452,17.0974729 C18.3767574,17.0252708 18.4052696,16.9530686 18.4337818,16.9530686 C18.462294,16.9530686 18.5478307,16.9963899 18.6333673,17.0541516 C18.8044406,17.1696751 19.1608433,17.3718412 20.0732342,17.8772563 C21.227979,18.5126354 21.88376,19.0036101 22.3399554,19.566787 C22.7391264,20.0577617 22.9814803,20.6209386 23.0955291,21.3140794 C23.1668097,21.7039711 23.1240414,22.6425993 23.0242486,23.032491 C22.7106142,24.2599278 21.9978088,25.2418773 20.9571129,25.8050542 C20.8002958,25.8916968 20.6719908,25.9494585 20.6577347,25.9494585 C20.6434786,25.9494585 20.700503,25.8050542 20.7860396,25.631769 C21.1281862,24.8953069 21.1709546,24.1877256 20.9143446,23.3935018 C20.7575274,22.9025271 20.4296369,22.3104693 19.773856,21.3140794 C18.98977,20.1588448 18.8044406,19.8555957 18.6048551,19.4368231 Z" id="Path" fill-rule="nonzero"></path>
            <path d="M7.98405462,23.8555957 C9.03900662,22.9602888 10.3363124,22.3249097 11.5338255,22.1227437 C12.0470454,22.0361011 12.9024119,22.0649819 13.3728635,22.1949458 C14.1284372,22.3971119 14.8127304,22.8303249 15.1691331,23.3646209 C15.5112797,23.8844765 15.6680969,24.33213 15.824914,25.3285199 C15.8819385,25.7184116 15.953219,26.1227437 15.9674751,26.2093863 C16.081524,26.7292419 16.3096217,27.133574 16.5947439,27.3501805 C17.0366832,27.6823105 17.8065131,27.6967509 18.5620868,27.4079422 C18.6903918,27.3646209 18.8044406,27.3212996 18.8044406,27.3357401 C18.8329528,27.3646209 18.4480379,27.6245487 18.191428,27.7545126 C17.8350253,27.9422383 17.5499031,28 17.1649882,28 C16.480695,28 15.8961946,27.6389892 15.425743,26.9169675 C15.3259503,26.7725632 15.1263648,26.3537906 14.9552915,25.9638989 C14.4563277,24.7942238 14.1997177,24.4476534 13.6152173,24.0577617 C13.1019974,23.7256318 12.4462164,23.6534296 11.9472527,23.898917 C11.2914717,24.2166065 11.1203984,25.0685921 11.5765938,25.5884477 C11.7619233,25.8050542 12.1040698,25.9783394 12.389192,26.0216606 C12.916668,26.0938628 13.3728635,25.6750903 13.3728635,25.1407942 C13.3728635,24.7942238 13.2445585,24.5920578 12.9024119,24.433213 C12.4462164,24.2310469 11.9472527,24.4620939 11.9615088,24.9097473 C11.9615088,25.0974729 12.0470454,25.2129964 12.2323748,25.299639 C12.3464237,25.3574007 12.3464237,25.3574007 12.260887,25.3429603 C11.8474599,25.2563177 11.7476671,24.7364621 12.0755576,24.4043321 C12.4747287,24 13.315839,24.1732852 13.6009612,24.7364621 C13.7150101,24.967509 13.7292662,25.4296029 13.6294734,25.7184116 C13.3871196,26.3537906 12.7028264,26.6859206 12.0042771,26.4981949 C11.5338255,26.368231 11.33424,26.2382671 10.7639957,25.6462094 C9.76606813,24.6064982 9.38115321,24.4043321 7.95554241,24.1877256 L7.68467635,24.1444043 L7.98405462,23.8555957 Z" id="Path" fill-rule="nonzero"></path>
            <path d="M0.485341792,0.620938628 C3.80701497,4.70758123 8.92495775,11.0613718 9.1815677,11.4079422 C9.39540932,11.6967509 9.30987267,11.9711191 8.95346997,12.1732852 C8.75388446,12.2888087 8.34045732,12.4043321 8.14087181,12.4043321 C7.91277408,12.4043321 7.64190803,12.2888087 7.45657862,12.101083 C7.32827365,11.9711191 6.77228544,11.1480144 5.51774793,9.16967509 C4.56258869,7.6534296 3.74999053,6.39711191 3.73573443,6.38267148 C3.67870999,6.35379061 3.67870999,6.35379061 5.41795517,9.50180505 C6.51567549,11.4801444 6.87207819,12.1877256 6.87207819,12.2743682 C6.87207819,12.4620939 6.81505376,12.5631769 6.58695603,12.8231047 C6.20204112,13.2563177 6.03096782,13.7472924 5.90266285,14.7725632 C5.76010177,15.9133574 5.37518685,16.7220217 4.27746653,18.0938628 C3.63594167,18.9025271 3.53614891,19.0469314 3.37933172,19.3790614 C3.17974621,19.7833935 3.12272178,20.0144404 3.09420956,20.534296 C3.06569735,21.0830325 3.12272178,21.4296029 3.27953897,21.9494585 C3.42210005,22.4115523 3.57891724,22.7148014 3.96383215,23.3068592 C4.29172264,23.8267148 4.49130815,24.2166065 4.49130815,24.3610108 C4.49130815,24.4765343 4.51982037,24.4765343 5.03304026,24.3610108 C6.25906555,24.0722022 7.27124922,23.5812274 7.82723743,22.9747292 C8.16938403,22.599278 8.25492067,22.3971119 8.25492067,21.8772563 C8.25492067,21.5451264 8.24066457,21.4729242 8.15512792,21.2707581 C8.01256684,20.9530686 7.74170078,20.6931408 7.15720036,20.2888087 C6.38737052,19.7545126 6.05948004,19.3212996 5.97394339,18.7436823 C5.90266285,18.2527076 5.9881995,17.9205776 6.41588274,17.0108303 C6.85782209,16.0722022 6.97187095,15.6823105 7.04315149,14.7292419 C7.08591982,14.1227437 7.15720036,13.8772563 7.32827365,13.6895307 C7.51360306,13.4873646 7.67042024,13.4151625 8.11235959,13.3574007 C8.8394211,13.2563177 9.30987267,13.0685921 9.68053148,12.7075812 C10.008422,12.4043321 10.150983,12.101083 10.1652392,11.6534296 L10.1794953,11.3212996 L9.99416586,11.1191336 C9.32412878,10.3393502 0.0434024426,-1.79932435e-15 0.000634118485,-1.79932435e-15 C-0.0136219896,-1.79932435e-15 0.214475739,0.274368231 0.485341792,0.620938628 Z M4.86196696,21.1552347 C5.01878415,20.8808664 4.9332475,20.534296 4.67663756,20.3610108 C4.43428372,20.2021661 4.06362491,20.2743682 4.06362491,20.4909747 C4.06362491,20.5487365 4.09213713,20.6064982 4.17767377,20.6353791 C4.30597875,20.7075812 4.32023485,20.7797834 4.2204421,20.9386282 C4.12064934,21.0974729 4.12064934,21.2418773 4.24895431,21.3429603 C4.44853983,21.5018051 4.71940588,21.4151625 4.86196696,21.1552347 Z" id="Shape"></path>
            <path d="M10.6356907,13.5595668 C10.2935441,13.6606498 9.96565364,14.0361011 9.86586088,14.4115523 C9.80883645,14.6425993 9.83734867,15.0613718 9.93714142,15.1913357 C10.0939586,15.3935018 10.2365197,15.4512635 10.6356907,15.4512635 C11.4197767,15.4512635 12.0898137,15.1046931 12.1610943,14.6859206 C12.2323748,14.3393502 11.9329965,13.8628159 11.5195694,13.6462094 C11.3057278,13.5306859 10.8637884,13.4873646 10.6356907,13.5595668 Z M11.5480816,14.2815884 C11.6621305,14.1083032 11.6193622,13.9205776 11.4055206,13.7906137 C11.0206056,13.5451264 10.4361052,13.7472924 10.4361052,14.1227437 C10.4361052,14.3104693 10.7354835,14.5126354 11.0206056,14.5126354 C11.205935,14.5126354 11.462545,14.3971119 11.5480816,14.2815884 Z" id="Shape"></path>
        </g>
    </g>
</svg>