<?xml version="1.0" encoding="UTF-8"?>
<svg width="25px" height="25px" viewBox="0 0 25 25" version="1.1" xmlns="http://www.w3.org/2000/svg" xmlns:xlink="http://www.w3.org/1999/xlink">
    <title>USDT</title>
    <g id="USDT" stroke="none" stroke-width="1" fill="none" fill-rule="evenodd">
        <g id="usdt" fill-rule="nonzero">
            <g id="Group">
                <path d="M24.9776119,12.4956468 C24.9776119,19.3650498 19.409204,24.9334577 12.539801,24.9334577 C5.67064677,24.9334577 0.10199005,19.3650498 0.10199005,12.4956468 C0.10199005,5.62636816 5.67064677,0.0578358209 12.539801,0.0578358209 C19.409204,0.0578358209 24.9776119,5.62636816 24.9776119,12.4956468" id="Shape" fill="#1BA27A"></path>
                <polygon id="Shape" fill="#FFFFFF" points="18.3772388 6.32972637 6.59987562 6.32972637 6.59987562 9.17300995 11.0669154 9.17300995 11.0669154 13.3521144 13.910199 13.3521144 13.910199 9.17300995 18.3772388 9.17300995"></polygon>
                <path d="M12.5155473,13.7972637 C8.82027363,13.7972637 5.82437811,13.2124378 5.82437811,12.4909204 C5.82437811,11.7695274 8.82014925,11.1845771 12.5155473,11.1845771 C16.2108209,11.1845771 19.206592,11.7695274 19.206592,12.4909204 C19.206592,13.2124378 16.2108209,13.7972637 12.5155473,13.7972637 M20.028607,12.7087065 C20.028607,11.7783582 16.6649254,11.0242537 12.5155473,11.0242537 C8.36629353,11.0242537 5.00236318,11.7783582 5.00236318,12.7087065 C5.00236318,13.5279851 7.61069652,14.2105721 11.0670398,14.3618159 L11.0670398,20.3610697 L13.9100746,20.3610697 L13.9100746,14.3641791 C17.3930348,14.2176617 20.028607,13.5322139 20.028607,12.7087065" id="Shape" fill="#FFFFFF"></path>
            </g>
        </g>
    </g>
</svg>