<?xml version="1.0" encoding="UTF-8"?>
<svg width="24px" height="24px" viewBox="0 0 24 24" version="1.1" xmlns="http://www.w3.org/2000/svg" xmlns:xlink="http://www.w3.org/1999/xlink">
    <title>wrapped-bitcoin-wbtc-seeklogo.com</title>
    <g id="Page-1" stroke="none" stroke-width="1" fill="none" fill-rule="evenodd">
        <g id="wrapped-bitcoin-wbtc-seeklogo.com" fill-rule="nonzero">
            <path d="M19.5694668,5.03679267 L18.9104882,5.69577124 C22.169723,9.25997646 22.169723,14.7224499 18.9104882,18.2866552 L19.5694668,18.9456337 C23.1955682,15.0124515 23.1955682,8.95459871 19.5694668,5.0214165 L19.5694668,5.03679267 Z" id="Shape" fill="#5A5564"></path>
            <path d="M5.71114741,5.09390414 C9.27535263,1.83466938 14.7378261,1.83466938 18.3020313,5.09390414 L18.9610099,4.43492557 C15.0278277,0.8088242 8.96997488,0.8088242 5.03679267,4.43492557 L5.71114741,5.09390414 Z" id="Shape-2" fill="#5A5564"></path>
            <path d="M5.09390414,18.293245 C1.83868473,14.7300087 1.83868473,9.27218705 5.09390414,5.70895081 L4.43492557,5.04997224 C0.8088242,8.98315445 0.8088242,15.0410073 4.43492557,18.9741895 L5.09390414,18.293245 Z" id="Shape-3" fill="#5A5564"></path>
            <path d="M18.293245,18.9017018 C14.7290397,22.1609366 9.26656625,22.1609366 5.70236103,18.9017018 L5.04338245,19.5606804 C8.97656467,23.1867818 15.0344175,23.1867818 18.9675997,19.5606804 L18.293245,18.9017018 Z" id="Shape-4" fill="#5A5564"></path>
            <path d="M16.160351,9.80120775 C16.0285553,8.42613913 14.8423938,7.96485413 13.3421193,7.82427203 L13.3421193,5.93080693 L12.182317,5.93080693 L12.182317,7.78912651 C11.8769903,7.78912651 11.5650737,7.78912651 11.2553538,7.78912651 L11.2553538,5.93080693 L10.1043379,5.93080693 L10.1043379,7.8374516 L7.75178439,7.8374516 L7.75178439,9.07852791 C7.75178439,9.07852791 8.60845653,9.06315175 8.59527696,9.07852791 C8.91633366,9.04320838 9.20768425,9.26851951 9.25425553,9.58813801 L9.25425553,14.8072483 C9.24758797,14.9168121 9.19688085,15.0190186 9.11367344,15.0906091 C9.03201501,15.1635761 8.92412184,15.2000694 8.81493648,15.1916525 C8.83031265,15.204832 7.97144391,15.1916525 7.97144391,15.1916525 L7.75178439,16.5777041 L10.0823719,16.5777041 L10.0823719,18.5151011 L11.2421742,18.5151011 L11.2421742,16.6062598 L12.1691374,16.6062598 L12.1691374,18.5063147 L13.3311363,18.5063147 L13.3311363,16.5908836 C15.2904993,16.4722675 16.6567815,15.9890165 16.8281159,14.1548595 C16.9665014,12.6787475 16.2723773,12.0197689 15.1630967,11.7539809 C15.8374515,11.422295 16.2548046,10.8072484 16.160351,9.80120775 Z M14.5348705,13.9264136 C14.5348705,15.3673801 12.0658974,15.2026355 11.2795163,15.2026355 L11.2795163,12.6457986 C12.0658974,12.6479952 14.5348705,12.4217459 14.5348705,13.9264136 Z M13.9967047,10.3239974 C13.9967047,11.6419546 11.9362983,11.4816031 11.2817129,11.4816031 L11.2817129,9.15760534 C11.9362983,9.15760534 13.9967047,8.95112539 13.9967047,10.3239974 Z" id="Shape-5" fill="#F09242"></path>
            <path d="M11.997803,24 C5.37095814,23.9987862 -0.000404384138,18.6261125 0,11.9992675 C0.000404384138,5.37242257 5.37242257,0.000404384138 11.9992675,-3.55271365e-15 C18.6261125,-0.000404384138 23.9987862,5.37095814 24,11.997803 C24.0005822,15.181162 22.7362558,18.2343062 20.485281,20.485281 C18.2343062,22.7362558 15.181162,24.0005822 11.997803,24 Z M11.997803,0.935745853 C5.89254383,0.940601053 0.946505378,5.89253831 0.948929776,11.9977989 C0.951355958,18.1030595 5.90132712,23.0510668 12.0065882,23.0510668 C18.1118493,23.0510668 23.0618223,18.1030636 23.0642507,11.997803 C23.0654168,9.062845 21.8997253,6.24782427 19.8239845,4.17290747 C17.7482436,2.09799067 14.9327603,0.93341701 11.997803,0.935745853 Z" id="Shape-6" fill="#282138"></path>
        </g>
    </g>
</svg>