<?xml version="1.0" encoding="UTF-8"?>
<svg width="24px" height="24px" viewBox="0 0 24 24" version="1.1" xmlns="http://www.w3.org/2000/svg" xmlns:xlink="http://www.w3.org/1999/xlink">
    <title>YFI</title>
    <g id="Page-1" stroke="none" stroke-width="1" fill="none" fill-rule="evenodd">
        <g id="YFI">
            <path d="M12,0 C18.6264,0 24,5.3736 24,12 C24,18.6264 18.6264,24 12,24 C5.3736,24 0,18.6264 0,12 C0,5.3736 5.3736,0 12,0 Z" id="SVGID" fill="#006AE3"></path>
            <polygon id="SVGID-2" fill="#FFFFFF" fill-rule="nonzero" points="11.5056 17.0592 11.5056 7.0752 12.5928 7.0752 12.5928 17.0592"></polygon>
            <path d="M17.04,10.4016 L13.6824,11.292 L12.9336,7.8072 L13.932,7.5816 L14.3256,9.2328 C14.3256,9.2328 15.2328,7.7448 14.0232,6.204 C13.3104,5.412 12.972,5.3784 12.1728,5.2536 C11.4696,5.1528 9.8352,5.3904 9.348,7.2984 C9.1416,8.5272 9.3744,9.4368 10.9584,10.6272 L10.8696,11.952 C10.8696,11.952 9.1008,10.7064 8.6448,9.8328 C8.292,9.1416 7.6872,7.776 8.7792,5.8752 C9.3672,4.9248 10.5264,4.0128 12.5688,4.1088 C13.596,4.152 16.104,5.4072 15.7152,8.34 C15.648,8.8896 15.3624,9.6216 15.3624,9.6216 L16.74,9.3144 L17.04,10.4016 Z" id="SVGID-3" fill="#FFFFFF" fill-rule="nonzero"></path>
            <path d="M15.1224,18.2136 C14.508,19.1472 13.3248,20.028 11.2872,19.8792 C10.26,19.8096 7.788,18.4872 8.2536,15.5664 C8.3352,15.0192 8.64,14.2968 8.64,14.2968 L7.2552,14.5656 L6.984,13.4736 L10.3656,12.672 L11.0232,16.176 L10.0176,16.3752 L9.6672,14.712 C9.6672,14.712 8.7216,16.1736 9.888,17.748 C10.5792,18.5592 10.9152,18.6 11.7144,18.7464 C12.4128,18.8664 14.0544,18.6696 14.592,16.776 C14.8296,15.5544 14.6208,14.6376 13.0704,13.404 L13.1952,12.0816 C13.1952,12.0816 14.9304,13.3728 15.3624,14.2584 C15.6936,14.9616 16.2624,16.344 15.1224,18.2136 L15.1224,18.2136 Z" id="SVGID-4" fill="#FFFFFF" fill-rule="nonzero"></path>
        </g>
    </g>
</svg>