<?xml version="1.0" encoding="utf-8"?>
<!-- Generator: Adobe Illustrator 25.4.1, SVG Export Plug-In . SVG Version: 6.00 Build 0)  -->
<svg version="1.1" id="Layer_1" xmlns="http://www.w3.org/2000/svg" xmlns:xlink="http://www.w3.org/1999/xlink" x="0px" y="0px"
	 viewBox="0 0 2513.8 1076.8" style="enable-background:new 0 0 2513.8 1076.8;" xml:space="preserve">
<style type="text/css">
	.st0{fill:#606060;}
	.st1{opacity:0.2;fill:#FFFFFF;}
	.st2{fill:#47EACC;}
	.st3{opacity:0.75;fill:#47EACC;}
	.st4{opacity:0.5;fill:#47EACC;}
	.st5{opacity:0.8;fill:#FFFFFF;}
	.st6{fill:#FFFFFF;}
	.st7{opacity:0.6;fill:#FFFFFF;}
	.st8{fill:none;stroke:url(#SVGID_1_);stroke-width:40;stroke-miterlimit:10;}
	.st9{fill:none;stroke:url(#SVGID_00000160878100305649077940000002305832983231542913_);stroke-width:40;stroke-miterlimit:10;}
	.st10{fill:none;stroke:url(#SVGID_00000034076719686341948810000006596299695701984696_);stroke-width:40;stroke-miterlimit:10;}
	.st11{fill:none;stroke:url(#SVGID_00000023998615654846119290000016365401247640086685_);stroke-width:40;stroke-miterlimit:10;}
	.st12{fill:none;stroke:url(#SVGID_00000077284006410472850670000017755402815217880449_);stroke-width:40;stroke-miterlimit:10;}
	.st13{fill:none;stroke:url(#SVGID_00000131351464492407619130000005286381092539575449_);stroke-width:40;stroke-miterlimit:10;}
	.st14{fill:none;stroke:#000000;stroke-width:9.4522;stroke-miterlimit:10;}
	.st15{fill:none;stroke:#000000;stroke-width:2;stroke-miterlimit:10;}
	
		.st16{fill:url(#SVGID_00000183234289248975997270000002485895667590846138_);stroke:#C8FCF7;stroke-width:0.8472;stroke-miterlimit:10;}
	.st17{fill:#F2F5F7;}
	
		.st18{fill:url(#SVGID_00000067232025808514929350000004694041074529931404_);stroke:#C8FCF7;stroke-width:0.8472;stroke-miterlimit:10;}
	.st19{fill:#FFDCA4;}
	.st20{fill:#FEFEFE;}
	.st21{fill:none;stroke:#37BEB0;stroke-width:2;stroke-miterlimit:10;}
	.st22{fill:none;stroke:#A4FFE0;stroke-width:2;stroke-miterlimit:10;}
	.st23{fill:#8A9DED;}
	.st24{fill:url(#SVGID_00000183928385837448049880000007565674275510758551_);}
	.st25{fill:url(#SVGID_00000093876611362801598160000007867293972860129199_);}
	.st26{fill:#D5DBDA;}
	.st27{fill:#F9B53D;}
	.st28{fill:#F7F9F8;}
	.st29{fill:none;stroke:#FFFFFF;stroke-width:2;stroke-miterlimit:10;}
	.st30{fill:#D2FBCA;}
	.st31{fill:#A4FFE0;}
	.st32{fill:#FFF6B3;}
	.st33{fill:none;stroke:#FFFFFF;stroke-miterlimit:10;}
	
		.st34{fill:url(#SVGID_00000090988606033391752370000013443734614815543990_);stroke:#C8FCF7;stroke-width:0.8472;stroke-miterlimit:10;}
	.st35{fill:#F0F8FF;}
	.st36{fill:#97C7FA;}
	.st37{fill:#EFEFEF;}
	.st38{fill:none;stroke:#37BEB0;stroke-width:2;stroke-miterlimit:10;stroke-dasharray:9.972,9.972;}
	.st39{fill:#37BEB0;}
	.st40{fill:url(#SVGID_00000061457635794828057860000003726328081306619310_);}
	.st41{fill:none;stroke:#FFFFFF;stroke-width:6;stroke-miterlimit:10;}
	.st42{fill:none;stroke:#FFFFFF;stroke-width:6.7176;stroke-miterlimit:10;}
	.st43{fill:url(#SVGID_00000160169771385065318190000003975137796190775220_);}
	.st44{fill:#E1E2F4;}
	.st45{fill:#EEEEFF;}
	.st46{fill:#8487FF;}
	.st47{fill:#B9BAFF;}
	.st48{fill:#8185C9;}
	.st49{fill:url(#SVGID_00000164490036919513230670000016764836866089742750_);}
	.st50{fill:url(#SVGID_00000056401327960503131260000016399874675551947443_);}
	.st51{opacity:0.53;fill:url(#SVGID_00000125603697301529958640000013851513305732248480_);}
	.st52{fill:#D1D3E5;}
	.st53{fill:#D2D3E5;}
	.st54{fill:#D2D4E6;}
	.st55{fill:#D3D4E6;}
	.st56{fill:#D3D5E7;}
	.st57{fill:#D4D5E7;}
	.st58{fill:#D4D6E8;}
	.st59{fill:#D5D6E8;}
	.st60{fill:#D5D7E9;}
	.st61{fill:#D6D7E9;}
	.st62{fill:#D6D8EA;}
	.st63{fill:#D7D8EA;}
	.st64{fill:#D7D9EB;}
	.st65{fill:#D8D9EB;}
	.st66{fill:#D8DAEC;}
	.st67{fill:#D9DAEC;}
	.st68{fill:#D9DBED;}
	.st69{fill:#DADBED;}
	.st70{fill:#DADCEE;}
	.st71{fill:#DBDCEE;}
	.st72{fill:#DBDDEF;}
	.st73{fill:#DCDDEF;}
	.st74{fill:#DCDEF0;}
	.st75{fill:#DDDEF0;}
	.st76{fill:#DDDFF1;}
	.st77{fill:#DEDFF1;}
	.st78{fill:#DEE0F2;}
	.st79{fill:#DFE0F2;}
	.st80{fill:#DFE1F3;}
	.st81{fill:#E0E1F3;}
	.st82{fill:#E0E2F4;}
	.st83{fill:#CFD3E2;}
	.st84{fill:#D3D4FF;}
	.st85{fill:url(#SVGID_00000026163238912736994020000016935747380013395895_);}
	.st86{fill:url(#SVGID_00000087388318096302252890000012829371859291477383_);}
	.st87{opacity:0.53;fill:url(#SVGID_00000014606013634782755520000010210109501739777177_);}
	.st88{fill:none;stroke:#1A2576;stroke-miterlimit:10;}
	.st89{fill:none;stroke:#8A9DED;stroke-miterlimit:10;}
	.st90{fill:#FFFFFF;stroke:#8A9DED;stroke-miterlimit:10;}
	.st91{fill:#00B6A9;}
	.st92{fill:#4C4B4A;}
	.st93{fill:none;stroke:url(#SVGID_00000022547672793551704210000002676826580338257064_);stroke-width:40;stroke-miterlimit:10;}
	.st94{fill:none;stroke:url(#SVGID_00000073001231637575185040000006870688280517542272_);stroke-width:40;stroke-miterlimit:10;}
	.st95{fill:none;stroke:url(#SVGID_00000023964823989885938940000001602394317671767456_);stroke-width:40;stroke-miterlimit:10;}
	.st96{fill:none;stroke:url(#SVGID_00000054977963419606901720000015399620454715564169_);stroke-width:40;stroke-miterlimit:10;}
	.st97{fill:none;stroke:url(#SVGID_00000062164376840077196840000009964102658882166443_);stroke-width:40;stroke-miterlimit:10;}
	.st98{fill:#A4E5E0;}
	.st99{fill:none;stroke:url(#SVGID_00000035490447142727161820000003473089222332728511_);stroke-width:40;stroke-miterlimit:10;}
	.st100{opacity:0.2;}
	.st101{opacity:0.1;fill:#00FFCE;}
	.st102{opacity:0.3;fill:#00B6A9;}
	.st103{fill:none;}
	.st104{fill:#00A1FF;}
	.st105{fill:#00EAA1;}
	.st106{fill:#FAFAFA;}
	.st107{fill:#FFFFFF;stroke:#00B6A9;stroke-width:2;stroke-miterlimit:10;}
	.st108{fill:#013BAC;}
	.st109{fill:#023BAC;}
	.st110{fill:#013B9B;}
	.st111{fill:#4293FE;}
	.st112{fill:#2544B5;}
	.st113{fill:#4192FE;}
	.st114{fill:#2443B5;}
	.st115{fill:none;stroke:#000000;stroke-width:5.7712;stroke-miterlimit:10;}
	.st116{fill:none;stroke:#000000;stroke-width:0.9577;stroke-miterlimit:10;}
	.st117{fill:none;stroke:#000000;stroke-width:3;stroke-miterlimit:10;}
	.st118{fill:none;stroke:#000000;stroke-width:5;stroke-miterlimit:10;}
	.st119{fill:#FCFCFC;}
	.st120{opacity:0.2;fill:url(#SVGID_00000174561250975924507570000002194580875140937119_);}
	.st121{opacity:0.2;fill:url(#SVGID_00000155855143630512563510000009181346458489443722_);}
	.st122{opacity:0.2;fill:url(#SVGID_00000039850624766533296230000012213851781010192536_);}
	.st123{opacity:0.2;fill:url(#SVGID_00000028287836622545076880000005076766211679009196_);}
	.st124{opacity:0.2;fill:url(#SVGID_00000165923185814492436040000010544663501160263844_);}
	.st125{opacity:0.2;fill:url(#SVGID_00000181084347928173821860000007812612579486471860_);}
	.st126{opacity:0.2;fill:url(#SVGID_00000023276171995337641330000012963225524734056338_);}
	.st127{opacity:0.2;fill:url(#SVGID_00000103265257651061070000000001272346946455556736_);}
	.st128{font-family:'RobotoCondensed-Regular';}
	.st129{font-size:34.8807px;}
	.st130{fill:#F3BA2F;}
	.st131{fill:#F7931A;}
	.st132{fill:#3AB83A;}
	.st133{fill:#0B8311;}
	.st134{fill:#146714;}
	.st135{fill:#1E1E1E;}
	.st136{fill:#E6007A;}
	.st137{display:none;fill:#333333;}
	
		.st138{fill:url(#SVGID_00000095340209846286569890000008782038085827432891_);stroke:#C8FCF7;stroke-width:0.8472;stroke-miterlimit:10;}
	
		.st139{fill:url(#SVGID_00000149345371121646248710000003431999698280694207_);stroke:#C8FCF7;stroke-width:0.8472;stroke-miterlimit:10;}
	.st140{fill:url(#SVGID_00000116947394746495622300000001249907230451441330_);}
	.st141{fill:url(#SVGID_00000140722132121357354220000007257878414391687089_);}
	
		.st142{fill:url(#SVGID_00000083074837004511878900000017098098894496669079_);stroke:#C8FCF7;stroke-width:0.8472;stroke-miterlimit:10;}
	.st143{fill:url(#SVGID_00000067922855202924044720000017823987870955618232_);}
	.st144{fill:url(#SVGID_00000054953228700439311570000001158370743404380337_);}
	.st145{fill:url(#SVGID_00000079486315748962116490000013782837651505496222_);}
	.st146{fill:url(#SVGID_00000049929011367245925570000010757233134748598452_);}
	.st147{opacity:0.53;fill:url(#SVGID_00000080903949467909721190000009087795992290815418_);}
	.st148{fill:url(#SVGID_00000116207072763267440770000002834141813599496358_);}
	.st149{fill:url(#SVGID_00000163030812568226183020000002475074763532905371_);}
	.st150{opacity:0.53;fill:url(#SVGID_00000073685366545193877140000005538381764600455314_);}
</style>
<g>
	<circle class="st119" cx="175.9" cy="886" r="55"/>
	<g>
		<linearGradient id="SVGID_1_" gradientUnits="userSpaceOnUse" x1="447.743" y1="712.0436" x2="284.5416" y2="712.0436">
			<stop  offset="0" style="stop-color:#00FFCE"/>
			<stop  offset="1" style="stop-color:#00FFCE;stop-opacity:0"/>
		</linearGradient>
		<path style="opacity:0.2;fill:url(#SVGID_1_);" d="M453.1,908.3H268.4v-40h184.7c58.9,0,117.3-14.9,169-43.2
			c51.7-28.3,95.7-69.5,127.4-119.1l30.8-48.2c27.8-43.4,66.3-79.4,111.5-104.2c45.2-24.7,96.3-37.8,147.8-37.8h174.2v40h-174.2
			c-44.8,0-89.3,11.4-128.6,32.9c-39.3,21.5-72.9,52.9-97,90.6l-30.8,48.2c-35.3,55.3-84.4,101.1-141.9,132.6
			C583.7,891.6,518.7,908.3,453.1,908.3z"/>
	</g>
	<g>
		
			<linearGradient id="SVGID_00000015335442787804971110000006827275638832929183_" gradientUnits="userSpaceOnUse" x1="447.743" y1="595.0577" x2="284.5416" y2="595.0577">
			<stop  offset="0" style="stop-color:#00FFCE"/>
			<stop  offset="1" style="stop-color:#00FFCE;stop-opacity:0"/>
		</linearGradient>
		<path style="opacity:0.2;fill:url(#SVGID_00000015335442787804971110000006827275638832929183_);" d="M564.7,674.3H268.4v-40
			h296.3c57,0,113.7-14,164.1-40.5l97.6-51.3c33.2-17.4,70.6-26.7,108-26.7h279.4v40H934.4c-31,0-62,7.6-89.4,22.1l-97.6,51.3
			C691.3,658.7,628.1,674.3,564.7,674.3z"/>
	</g>
	<g>
		
			<linearGradient id="SVGID_00000002368181580655804640000008058423304691940485_" gradientUnits="userSpaceOnUse" x1="447.743" y1="478.9606" x2="284.5416" y2="478.9606">
			<stop  offset="0" style="stop-color:#00FFCE"/>
			<stop  offset="1" style="stop-color:#00FFCE;stop-opacity:0"/>
		</linearGradient>
		<path style="opacity:0.2;fill:url(#SVGID_00000002368181580655804640000008058423304691940485_);" d="M1213.8,555.8H932.5
			c-36.2,0-72.4-8.6-104.6-24.9l-101-51c-49-24.8-104-37.8-159-37.8H268.4v-40h299.6c61.2,0,122.4,14.6,177,42.1l101,51
			c26.7,13.5,56.7,20.6,86.6,20.6h281.2V555.8z"/>
	</g>
	<g>
		
			<linearGradient id="SVGID_00000045586228139255410860000013186135482180406168_" gradientUnits="userSpaceOnUse" x1="447.743" y1="363.1161" x2="284.5416" y2="363.1161">
			<stop  offset="0" style="stop-color:#00FFCE"/>
			<stop  offset="1" style="stop-color:#00FFCE;stop-opacity:0"/>
		</linearGradient>
		<path style="opacity:0.2;fill:url(#SVGID_00000045586228139255410860000013186135482180406168_);" d="M1213.8,555.8h-175.9
			c-51,0-101.7-12.8-146.6-37.1C846.4,494.4,808,459,780.1,416.2L750,370c-31.9-48.9-75.8-89.4-127.1-117.1
			c-51.3-27.8-109.2-42.5-167.6-42.5H268.4v-40h186.9c65,0,129.5,16.4,186.6,47.3c57.1,30.9,106.1,76,141.6,130.5l30.2,46.2
			c24.3,37.2,57.7,68,96.7,89.2c39,21.1,83.1,32.3,127.5,32.3h175.9V555.8z"/>
	</g>
	<g>
		
			<linearGradient id="SVGID_00000095337094639639158540000014644431679854904705_" gradientUnits="userSpaceOnUse" x1="1923.0356" y1="711.2114" x2="2134.4761" y2="711.2114">
			<stop  offset="0.5069" style="stop-color:#00FFCE"/>
			<stop  offset="1" style="stop-color:#00FFCE;stop-opacity:0"/>
		</linearGradient>
		<path style="opacity:0.2;fill:url(#SVGID_00000095337094639639158540000014644431679854904705_);" d="M2091.8,907.4h79.7v-40
			h-79.7c-58.9,0-117.3-14.9-169-43.2c-51.7-28.3-95.7-69.5-127.4-119.1l-30.8-48.2c-27.8-43.4-66.3-79.4-111.5-104.2
			c-45.2-24.7-96.3-37.8-147.8-37.8h-174.2v40h174.2c44.8,0,89.3,11.4,128.6,32.9c39.3,21.5,72.9,52.9,97,90.6l30.8,48.2
			c35.3,55.3,84.4,101.1,141.9,132.6C1961.1,890.8,2026.2,907.4,2091.8,907.4z"/>
	</g>
	<g>
		
			<linearGradient id="SVGID_00000105413121473368375070000015321540984888203675_" gradientUnits="userSpaceOnUse" x1="1923.0356" y1="594.2255" x2="2134.4761" y2="594.2255">
			<stop  offset="0.5069" style="stop-color:#00FFCE"/>
			<stop  offset="1" style="stop-color:#00FFCE;stop-opacity:0"/>
		</linearGradient>
		<path style="opacity:0.2;fill:url(#SVGID_00000105413121473368375070000015321540984888203675_);" d="M1980.2,673.4h191.3v-40
			h-191.3c-57,0-113.7-14-164.1-40.5l-97.6-51.3c-33.2-17.4-70.6-26.7-108-26.7h-279.4v40h279.4c31,0,62,7.6,89.4,22.1l97.6,51.3
			C1853.6,657.9,1916.8,673.4,1980.2,673.4z"/>
	</g>
	<g>
		
			<linearGradient id="SVGID_00000069358955897598804520000008908875070596820900_" gradientUnits="userSpaceOnUse" x1="1961.9882" y1="478.1284" x2="2164.5276" y2="478.1284">
			<stop  offset="0.5069" style="stop-color:#00FFCE"/>
			<stop  offset="1" style="stop-color:#00FFCE;stop-opacity:0"/>
		</linearGradient>
		<path style="opacity:0.2;fill:url(#SVGID_00000069358955897598804520000008908875070596820900_);" d="M1331.1,555h281.2
			c36.2,0,72.4-8.6,104.6-24.9l101-51c49-24.8,104-37.8,159-37.8h194.6v-40h-194.6c-61.2,0-122.4,14.6-177,42.1l-101,51
			c-26.7,13.5-56.7,20.6-86.6,20.6h-281.2V555z"/>
	</g>
	<g>
		
			<linearGradient id="SVGID_00000138540836256663756310000015501044275034819970_" gradientUnits="userSpaceOnUse" x1="1923.0356" y1="362.2839" x2="2134.4761" y2="362.2839">
			<stop  offset="0.5069" style="stop-color:#00FFCE"/>
			<stop  offset="1" style="stop-color:#00FFCE;stop-opacity:0"/>
		</linearGradient>
		<path style="opacity:0.2;fill:url(#SVGID_00000138540836256663756310000015501044275034819970_);" d="M1331.1,555H1507
			c51,0,101.7-12.8,146.6-37.1c44.9-24.3,83.3-59.7,111.2-102.5l30.2-46.2c31.9-48.9,75.8-89.4,127.1-117.1
			c51.3-27.8,109.2-42.5,167.6-42.5h81.9v-40h-81.9c-65,0-129.5,16.4-186.6,47.3c-57.1,30.9-106.1,76-141.6,130.5l-30.2,46.2
			c-24.3,37.2-57.7,68-96.7,89.2c-39,21.1-83.1,32.3-127.5,32.3h-175.9V555z"/>
	</g>
	<g class="st100">
		
			<image style="overflow:visible;" width="2196" height="2196" xlink:href="B63436CDFD235AEB.png"  transform="matrix(0.24 0 0 0.24 950.1589 271.5239)">
		</image>
	</g>
	<circle class="st101" cx="1213.8" cy="535" r="227.4"/>
	<circle class="st101" cx="1213.8" cy="535" r="392.6"/>
	<circle class="st102" cx="1213.8" cy="535" r="196.1"/>
	<circle class="st91" cx="1213.8" cy="535" r="145.7"/>
	<g>
		<path class="st39" d="M1535.5,761.7l-2-9.8h-44.2v83.6h9.8v-34.4h27.5l2,9.8h34.4v-49.2H1535.5z"/>
	</g>
	<g>
		<g>
			<path class="st39" d="M964.4,781.7c-5.8,0-9,5.8-7.7,10L942.5,806c-1.2-0.4-3-0.4-4.2,0l-10.2-10.2c1.4-4.3-1.9-10.1-7.7-10.1
				c-5.8,0-9.1,5.8-7.7,10.1L894.5,814c-4.3-1.3-10,1.9-10,7.7c0,4.4,3.6,8,8,8c5.8,0,9-5.8,7.7-10l18.2-18.2c1.2,0.4,3,0.4,4.2,0
				l10.2,10.2c-1.4,4.3,1.9,10.1,7.7,10.1c5.8,0,9.1-5.8,7.7-10.1l14.2-14.2c4.3,1.3,10-1.9,10-7.7
				C972.4,785.3,968.8,781.7,964.4,781.7z"/>
			<polygon class="st98" points="940.4,785.7 944.2,777.4 952.4,773.7 944.2,770 940.4,761.7 936.7,770 928.4,773.7 936.7,777.4 			
				"/>
			<polygon class="st98" points="894.4,793.7 896.4,785.7 904.4,783.7 896.4,781.7 894.4,773.7 892.4,781.7 884.4,783.7 
				892.4,785.7 			"/>
		</g>
	</g>
	<g>
		<path class="st98" d="M1544.4,271.5c0,23.1-18.7,41.8-41.8,41.8c-23.1,0-41.8-18.7-41.8-41.8c0-23.1,18.7-41.8,41.8-41.8v41.9
			l38-17.5C1543.1,259.5,1544.4,265.3,1544.4,271.5z"/>
		<path class="st39" d="M1545.1,247.7l-38,17.5v-41.9C1524,223.2,1538.6,233.3,1545.1,247.7z"/>
	</g>
	<g>
		<circle class="st5" cx="1214.5" cy="576" r="21.5"/>
		<g>
			<path class="st6" d="M1284.3,597.7L1284.3,597.7c8-4.6,10.7-14.9,6.1-22.8l-62.1-107.6c-4.6-8-14.9-10.7-22.8-6.1l0,0
				c-8,4.6-10.7,14.9-6.1,22.8l62.1,107.6C1266,599.5,1276.3,602.3,1284.3,597.7z"/>
			<path class="st7" d="M1143.2,597.7L1143.2,597.7c8,4.6,18.2,1.8,22.8-6.1l62.1-107.6c4.6-8,1.8-18.2-6.1-22.8h0
				c-8-4.6-18.2-1.8-22.8,6.1l-62.1,107.6C1132.5,582.8,1135.3,593.1,1143.2,597.7z"/>
		</g>
	</g>
	<text transform="matrix(1 0 0 1 2169.6895 244.2073)" class="st2 st128 st129">Investment Bot</text>
	<text transform="matrix(1 0 0 1 2159.3936 736.4904)" class="st2 st128 st129">Investment Fund</text>
	<text transform="matrix(1 0 0 1 2186.4744 973.8162)" class="st2 st128 st129">Crypto News</text>
	<text transform="matrix(1 0 0 1 2237.9944 519.7109)" class="st2 st128 st129">Dapp</text>
	<g>
		<path class="st6" d="M2289.7,386.8h-32.4c-5.6,0-10.1,4.5-10.1,10.1v68.9c0,5.6,4.5,10.1,10.1,10.1h32.4c5.6,0,10.1-4.5,10.1-10.1
			v-57.4v-5.6v-5.8C2299.8,391.3,2295.3,386.8,2289.7,386.8z M2273.5,471.8c-3.4,0-6.1-2.7-6.1-6.1s2.7-6.1,6.1-6.1s6.1,2.7,6.1,6.1
			S2276.9,471.8,2273.5,471.8z M2291.7,408.3v47.3l-36.5,0v-56.7h36.5v3.8V408.3z"/>
		<g>
			<polygon class="st6" points="2273.5,405.6 2260,427.5 2273.5,435.2 2287,427.5 			"/>
			<polygon class="st6" points="2273.5,438.2 2260,429.9 2273.5,449 2287,429.9 			"/>
		</g>
	</g>
	<g>
		<rect x="2218.9" y="687.2" class="st6" width="109.2" height="5.2"/>
		<rect x="2224.8" y="679.6" class="st6" width="97.4" height="5.2"/>
		<path class="st6" d="M2235,632.3v43.2h8.6v-30.4c0-3.7,3-6.8,6.8-6.8s6.8,3,6.8,6.8v30.4h9.7v-30.4c0-3.7,3-6.8,6.8-6.8
			c3.7,0,6.8,3,6.8,6.8v30.4h9.5v-30.4c0-3.7,3-6.8,6.8-6.8s6.8,3,6.8,6.8v30.4h8.6v-43.2H2235z"/>
		<path class="st6" d="M2321.7,622.8l-46.3-30c-1.2-0.8-2.7-0.8-3.9,0l-46.3,30c-2.3,1.5-1.2,5,1.5,5h93.5
			C2323,627.8,2324,624.3,2321.7,622.8z M2272,608.2c0.4,0.4,1.2,0.9,2.3,1.3c1.1,0.5,2.1,0.9,2.8,1.3c0.7,0.4,1.4,0.9,1.9,1.4
			c0.5,0.5,0.9,1.1,1.2,1.8c0.3,0.7,0.4,1.4,0.4,2.3c0,1.6-0.5,2.9-1.5,4c-1,1-2.4,1.6-4.2,1.8v2.9h-2.3v-2.8
			c-2-0.2-3.5-0.9-4.6-2.1c-1.1-1.2-1.6-2.8-1.6-4.7h4.1c0,1.1,0.3,2,0.8,2.6c0.5,0.6,1.3,0.9,2.3,0.9c0.8,0,1.5-0.2,2-0.7
			c0.5-0.4,0.7-1,0.7-1.8c0-0.8-0.2-1.4-0.7-1.9c-0.4-0.5-1.2-0.9-2.2-1.3c-1-0.4-1.9-0.8-2.7-1.2c-0.8-0.4-1.4-0.8-1.9-1.3
			c-0.5-0.5-1-1.1-1.3-1.8c-0.3-0.7-0.5-1.5-0.5-2.4c0-1.6,0.5-2.9,1.5-4c1-1,2.4-1.6,4.1-1.8v-3.1h2.3v3.1c1.7,0.2,3,0.9,4,2.1
			c1,1.2,1.4,2.7,1.4,4.6h-4.1c0-1.1-0.2-2-0.7-2.6c-0.5-0.6-1.1-0.9-1.9-0.9c-0.8,0-1.4,0.2-1.8,0.7c-0.4,0.4-0.6,1.1-0.6,1.8
			C2271.4,607.2,2271.6,607.8,2272,608.2z"/>
	</g>
	<g>
		<g>
			<path class="st6" d="M2294.8,146.6h-42.5c-6.8,0-12.4,5.5-12.4,12.4v33c0,6.8,5.5,12.4,12.4,12.4h42.5c6.8,0,12.4-5.5,12.4-12.4
				v-33C2307.2,152.1,2301.6,146.6,2294.8,146.6z M2252.2,170.1c0-3.9,3.2-7.1,7.1-7.1c3.9,0,7.1,3.2,7.1,7.1c0,3.9-3.2,7.1-7.1,7.1
				C2255.4,177.1,2252.2,173.9,2252.2,170.1z M2288.7,189.3h-30.3v-6.1h30.3V189.3z M2287.7,177.1c-3.9,0-7.1-3.2-7.1-7.1
				c0-3.9,3.2-7.1,7.1-7.1c3.9,0,7.1,3.2,7.1,7.1C2294.8,173.9,2291.6,177.1,2287.7,177.1z"/>
		</g>
		<g>
			<g>
				<path class="st6" d="M2236.8,180.4L2236.8,180.4c-5.7,0-10.3-4.6-10.3-10.3v0c0-5.7,4.6-10.3,10.3-10.3l0,0V180.4z"/>
			</g>
			<g>
				<path class="st6" d="M2310.2,159.7L2310.2,159.7c5.7,0,10.3,4.6,10.3,10.3v0c0,5.7-4.6,10.3-10.3,10.3h0V159.7z"/>
			</g>
		</g>
		<g>
			<g>
				<g>
					
						<rect x="2250.5" y="127.9" transform="matrix(0.8786 -0.4775 0.4775 0.8786 206.2259 1092.2496)" class="st6" width="2.5" height="25"/>
				</g>
				<g>
					<circle class="st6" cx="2245.7" cy="129.5" r="5.9"/>
				</g>
			</g>
			<g>
				<g>
					
						<rect x="2282.8" y="139.2" transform="matrix(0.4772 -0.8788 0.8788 0.4772 1076.6331 2090.5696)" class="st6" width="25" height="2.5"/>
				</g>
				<g>
					<circle class="st6" cx="2301.3" cy="129.5" r="5.9"/>
				</g>
			</g>
		</g>
	</g>
	<g>
		<path class="st6" d="M2319.1,868.5l-66.8-17.3c-0.9-0.2-1.9,0.3-2.1,1.2l-13,50.1c-0.2,0.9-1.2,1.5-2.1,1.2s-1.5-1.2-1.2-2.1
			l10.4-40.1c0.2-0.9-0.3-1.9-1.2-2.1l-3.3-0.9c-0.9-0.2-1.9,0.3-2.1,1.2l-10.4,40.1c-1.3,5-0.5,8.8,4.5,10.1l66.8,17.3
			c3.7,1,7.5-1.3,8.4-4.9l13.4-51.8C2320.6,869.7,2320,868.7,2319.1,868.5z M2267.6,867.6c0.2-0.9,1.2-1.5,2.1-1.2l6.7,1.7
			c0.9,0.2,1.5,1.2,1.2,2.1c-0.2,0.9-1.2,1.5-2.1,1.2l-5-1.3l-0.9,3.3l3.3,0.9c0.9,0.2,1.5,1.2,1.2,2.1s-1.2,1.5-2.1,1.2l-3.3-0.9
			l-0.9,3.3l5,1.3c0.9,0.2,1.5,1.2,1.2,2.1c-0.2,0.9-1.2,1.5-2.1,1.2l-6.7-1.7c-0.9-0.2-1.5-1.2-1.2-2.1L2267.6,867.6z
			 M2254.3,864.1c0.2-0.9,1.2-1.5,2.1-1.2l3.3,0.9c2.8,0.7,4.4,3.5,3.7,6.3l-2.6,10c-0.2,0.9-1.2,1.5-2.1,1.2
			c-0.9-0.2-1.5-1.2-1.2-2.1l2.6-10c0.2-0.9-0.3-1.9-1.2-2.1l-1.7-0.4l-3,11.7c-0.2,0.9-1.2,1.5-2.1,1.2c-0.9-0.2-1.5-1.2-1.2-2.1
			L2254.3,864.1z M2271.5,907.8c-0.2,0.9-1.2,1.5-2.1,1.2L2246,903c-0.9-0.2-1.5-1.2-1.2-2.1l4.3-16.7c0.2-0.9,1.2-1.5,2.1-1.2
			l23.4,6.1c0.9,0.2,1.5,1.2,1.2,2.1L2271.5,907.8z M2278.8,879.4l2.2-8.4c0.2-0.9,1.2-1.5,2.1-1.2c0.9,0.2,1.5,1.2,1.2,2.1l-2,7.8
			l1,2.9l2.3-2.1l2-7.8c0.2-0.9,1.2-1.5,2.1-1.2c0.9,0.2,1.5,1.2,1.2,2.1l-2,7.8l1,2.9l2.3-2.1l2-7.8c0.2-0.9,1.2-1.5,2.1-1.2
			c0.9,0.2,1.5,1.2,1.2,2.1l-2.2,8.4c-0.1,0.3-0.3,0.6-0.5,0.9l-4.6,4.1c-0.4,0.4-1,0.5-1.6,0.4c-0.6-0.1-1-0.6-1.2-1.1l-1.2-3.4
			l-2.7,2.4c-0.4,0.4-1,0.5-1.6,0.4c-0.6-0.1-1-0.6-1.2-1.1l-2-5.9C2278.8,880.1,2278.7,879.8,2278.8,879.4z M2299.4,916.9
			l-23.4-6.1c-0.9-0.2-1.5-1.2-1.2-2.1c0.2-0.9,1.2-1.5,2.1-1.2l23.4,6.1c0.9,0.2,1.5,1.2,1.2,2.1
			C2301.3,916.6,2300.3,917.1,2299.4,916.9z M2301.2,910.2l-23.4-6.1c-0.9-0.2-1.5-1.2-1.2-2.1c0.2-0.9,1.2-1.5,2.1-1.2l23.4,6.1
			c0.9,0.2,1.5,1.2,1.2,2.1C2303,909.9,2302.1,910.4,2301.2,910.2z M2302.9,903.5l-23.4-6.1c-0.9-0.2-1.5-1.2-1.2-2.1
			c0.2-0.9,1.2-1.5,2.1-1.2l23.4,6.1c0.9,0.2,1.5,1.2,1.2,2.1C2304.8,903.2,2303.8,903.7,2302.9,903.5z M2304.8,882.6
			c2.8,0.7,4.4,3.5,3.7,6.3c-0.7,2.8-3.5,4.4-6.3,3.7l-3.3-0.9c-0.9-0.2-1.5-1.2-1.2-2.1c0.2-0.9,1.2-1.5,2.1-1.2l3.3,0.9
			c0.9,0.2,1.9-0.3,2.1-1.2c0.2-0.9-0.3-1.9-1.2-2.1c-2.8-0.7-4.4-3.5-3.7-6.3c0.7-2.8,3.5-4.4,6.3-3.7l3.3,0.9
			c0.9,0.2,1.5,1.2,1.2,2.1c-0.2,0.9-1.2,1.5-2.1,1.2l-3.3-0.9c-0.9-0.2-1.9,0.3-2.1,1.2S2303.8,882.3,2304.8,882.6z"/>
	</g>
	<g id="Layer_2_00000133486832914875748940000009474874955906657431_">
		<g id="Layer_1-2">
			<path class="st130" d="M161.9,880.3l14-14l14,14l8.2-8.2l-22.2-22.2l-22.2,22.2L161.9,880.3 M139.8,886l8.2-8.2l8.2,8.2l-8.2,8.2
				L139.8,886z M161.9,891.8l14,14l14-14l8.2,8.2l0,0l-22.2,22.2l-22.2-22.2l0,0L161.9,891.8 M195.7,886l8.2-8.2l8.2,8.2l-8.2,8.2
				L195.7,886z"/>
			<path class="st130" d="M184.2,886L184.2,886l-8.3-8.3l-6.1,6.1l0,0l-0.7,0.7l-1.4,1.4l0,0l0,0l8.3,8.3L184.2,886L184.2,886
				L184.2,886"/>
		</g>
	</g>
	<g>
		<g>
			<circle class="st131" cx="175.9" cy="189.3" r="55"/>
		</g>
		<g>
			<path class="st6" d="M201.4,177.9c-1.8-3.3-4.7-5.7-8.3-6.7l-2-0.6l2.9-9.6l-7.4-2.2l-2.9,9.6l-6.3-1.9l2.9-9.6l-1.8-0.5l0,0
				l-7.1-2.1l-2.8,9.3l-8.7-2.6l-2.5,8.3l8.7,2.6l-8.9,30l-8.7-2.6l-2.5,8.3l8.7,2.6l-2.3,7.8l1.8,0.5l0,0l7.1,2.1l2.4-8.2l6.3,1.9
				l-2.4,8.2l7.3,2.2l2.4-8.2l2.1,0.6c1.3,0.4,2.7,0.6,4,0.6c2.3,0,4.5-0.6,6.6-1.7c3.3-1.8,5.7-4.7,6.7-8.3
				c1.1-3.8,0.6-7.6-1.2-10.8c3.2-1.7,5.8-4.6,6.9-8.4C203.5,184.9,203.2,181.2,201.4,177.9z M194.5,181.6c0.8,1.4,0.9,3.1,0.5,4.6
				c-1,3.2-4.3,5-7.5,4.1c0,0,0,0,0,0l-15.5-4.6l3.4-11.6l15.5,4.6C192.4,179.2,193.7,180.2,194.5,181.6z M189.2,205.4
				c-0.5,1.5-1.5,2.8-2.9,3.6c-1.4,0.8-3.1,0.9-4.6,0.5l-15.5-4.6l3.5-11.6l15.5,4.6h0C188.4,198.8,190.2,202.2,189.2,205.4z"/>
		</g>
	</g>
	<g>
		<g>
			<g>
				<path class="st39" d="M905.9,241.9c16.5,0,29.9,13.4,29.9,29.9c0,16.5-13.4,29.9-29.9,29.9c-16.5,0-29.9-13.4-29.9-29.9
					C876,255.3,889.5,241.9,905.9,241.9 M905.9,237.8c-18.8,0-34,15.2-34,34c0,18.8,15.2,34,34,34c18.8,0,34-15.2,34-34
					C939.9,253,924.7,237.8,905.9,237.8L905.9,237.8z"/>
			</g>
			<g>
				<g>
					<g>
						<path class="st39" d="M916.8,277.5c-0.2,3.6-1.2,6.2-3,8.1c-1.8,1.8-4.4,2.7-7.8,2.7c-3.5,0-6.2-1.2-8.1-3.5
							c-1.9-2.3-2.8-5.6-2.8-9.9v-5.2c0-4.3,1-7.6,2.9-9.9c1.9-2.3,4.6-3.5,8.1-3.5c3.4,0,6,0.9,7.7,2.8c1.8,1.9,2.8,4.6,3,8.2h-6.3
							c-0.1-2.2-0.4-3.7-1-4.5c-0.6-0.8-1.8-1.3-3.4-1.3c-1.7,0-2.9,0.6-3.6,1.8s-1.1,3.1-1.1,5.8v5.9c0,3.1,0.3,5.2,1,6.4
							c0.7,1.2,1.9,1.7,3.6,1.7c1.7,0,2.8-0.4,3.4-1.2c0.6-0.8,1-2.3,1.1-4.4H916.8z"/>
					</g>
				</g>
				<g>
					<g>
						<rect x="901.5" y="252.3" class="st39" width="3.6" height="6.9"/>
					</g>
					<g>
						<rect x="906.8" y="252.3" class="st39" width="3.6" height="6.9"/>
					</g>
				</g>
				<g>
					<g>
						<rect x="901.5" y="284" class="st39" width="3.6" height="7.2"/>
					</g>
					<g>
						<rect x="906.8" y="284" class="st39" width="3.6" height="7.2"/>
					</g>
				</g>
			</g>
			<g>
				<polygon class="st39" points="918.7,243.3 914.9,243.3 914.9,224.7 926.9,214.7 926.9,202.1 930.7,202.1 930.7,216.5 
					918.7,226.5 				"/>
			</g>
			<g>
				<path class="st39" d="M928.8,204c-4.9,0-8.9-4-8.9-8.9c0-4.9,4-8.9,8.9-8.9c4.9,0,8.9,4,8.9,8.9C937.6,200,933.7,204,928.8,204z
					 M928.8,190.1c-2.8,0-5,2.2-5,5c0,2.8,2.2,5,5,5c2.8,0,5-2.2,5-5C933.8,192.4,931.5,190.1,928.8,190.1z"/>
			</g>
			<g>
				<polygon class="st39" points="900.8,239.9 897,239.9 897,226.2 885,216.2 885,203.8 888.9,203.8 888.9,214.4 900.8,224.4 				
					"/>
			</g>
			<g>
				<path class="st39" d="M886.9,205.7c-4.9,0-8.9-4-8.9-8.9c0-4.9,4-8.9,8.9-8.9s8.9,4,8.9,8.9
					C895.8,201.8,891.8,205.7,886.9,205.7z M886.9,191.9c-2.8,0-5,2.2-5,5c0,2.8,2.2,5,5,5c2.8,0,5-2.2,5-5
					C892,194.1,889.7,191.9,886.9,191.9z"/>
			</g>
			<g>
				<path class="st39" d="M944.5,234.8c-4.9,0-8.9-4-8.9-8.9s4-8.9,8.9-8.9s8.9,4,8.9,8.9S949.4,234.8,944.5,234.8z M944.5,220.9
					c-2.8,0-5,2.2-5,5c0,2.8,2.2,5,5,5c2.8,0,5-2.2,5-5C949.5,223.2,947.3,220.9,944.5,220.9z"/>
			</g>
			<g>
				<polygon class="st39" points="936.9,261.7 933.7,259.7 942.6,245.7 942.6,232.9 946.4,232.9 946.4,246.8 				"/>
			</g>
			<g>
				<path class="st39" d="M870.8,229.3c-4.9,0-8.9-4-8.9-8.9c0-4.9,4-8.9,8.9-8.9s8.9,4,8.9,8.9
					C879.7,225.4,875.7,229.3,870.8,229.3z M870.8,215.5c-2.8,0-5,2.2-5,5c0,2.8,2.2,5,5,5s5-2.2,5-5
					C875.9,217.7,873.6,215.5,870.8,215.5z"/>
			</g>
			<g>
				<polygon class="st39" points="878.4,256.3 868.9,241.3 868.9,227.4 872.8,227.4 872.8,240.2 881.7,254.2 				"/>
			</g>
		</g>
		<g>
			<path class="st39" d="M905.9,298.3c-14.6,0-26.6-11.9-26.6-26.6s11.9-26.6,26.6-26.6c14.6,0,26.6,11.9,26.6,26.6
				S920.6,298.3,905.9,298.3z M905.9,246c-14.2,0-25.7,11.5-25.7,25.7c0,14.2,11.5,25.7,25.7,25.7s25.7-11.5,25.7-25.7
				C931.7,257.6,920.1,246,905.9,246z"/>
		</g>
	</g>
	<g>
		<circle class="st119" cx="175.9" cy="425.3" r="55"/>
		<g id="Layer_2_00000017516377669253893630000002691173106331641993_">
			<g id="svg8">
				<g id="layer5">
					<g id="g1627">
						<path id="path1599" class="st132" d="M152.3,429.9c8.3,4.4,17,9,23.7,12.6l23.5-12.6c-8.5,12.6-15.6,23.2-23.5,34.8
							C168.1,453.1,159.3,440.3,152.3,429.9z M153.2,426.4l22.8-12.2l22.5,12.1L176,438.5L153.2,426.4z M176,410.4l-23.7,12.5
							l23.6-34.5l23.6,34.6L176,410.4z"/>
						<path id="path1593" class="st133" d="M176,442.5l23.5-12.6c-8.5,12.6-23.5,34.8-23.5,34.8V442.5z M176,414.3l22.5,12.1
							L176,438.5L176,414.3z M176,410.4l-0.1-22.1l23.6,34.6L176,410.4z"/>
						<path id="path1603" class="st133" d="M153.2,426.4l22.8,1.9l22.5-1.9L176,438.5L153.2,426.4z"/>
						<path id="path1606" class="st134" d="M176,428.3l22.5-1.9L176,438.5L176,428.3z"/>
					</g>
				</g>
			</g>
		</g>
	</g>
	<g>
		<circle class="st119" cx="175.9" cy="650.9" r="55"/>
		<g>
			<path class="st135" d="M176.2,615.8c-14.9,0.1-27.1,12.2-27.1,27.1c0,3,0.5,6,1.4,8.8c0.7,1.9,2.8,3,4.8,2.4
				c1.9-0.7,2.9-2.8,2.3-4.8c-0.8-2.2-1.2-4.6-1.1-6.9c0.3-10.8,9.3-19.3,20.1-19c10.8,0.3,19.3,9.3,19,20.1
				c-0.3,10.1-8.3,18.3-18.4,18.9c0,0-3.8,0.2-5.7,0.5c-0.7,0.1-1.4,0.2-2.1,0.4c-0.1,0.1-0.3,0.1-0.4,0l0,0c-0.1-0.1-0.1-0.2,0-0.3
				l0.6-3.2l3.6-16.1c0.4-2-0.8-4-2.9-4.4c-2-0.4-4,0.8-4.4,2.9c0,0-8.5,39.3-8.5,39.7c-0.5,1.9,0.7,3.9,2.6,4.3c0,0,0,0,0.1,0h0.2
				c1.9,0.5,3.9-0.7,4.4-2.6c0,0,0-0.1,0-0.1c0-0.1,0-0.1,0-0.2c0.1-0.5,1.2-5.7,1.2-5.7c0.8-4,4-7,8-7.6c0.8-0.1,4.3-0.4,4.3-0.4
				c14.9-1.5,25.8-14.8,24.3-29.7C201.1,626.6,189.9,616.2,176.2,615.8z"/>
			<path class="st136" d="M177.9,678.3c-2.4-0.5-4.8,1.1-5.3,3.5c0,0,0,0,0,0.1c-0.5,2.4,1,4.8,3.4,5.4c0,0,0,0,0,0h0.1
				c2.4,0.6,4.8-0.9,5.3-3.3c0,0,0,0,0-0.1v-0.2C181.9,681.2,180.3,678.9,177.9,678.3z"/>
		</g>
	</g>
</g>
</svg>
