<svg width="180" height="29" viewBox="0 0 180 29" fill="none" xmlns="http://www.w3.org/2000/svg">
<g clip-path="url(#clip0)">
<path d="M5.63256 18.6829V28.6127H-0.0282593V0.387516H9.46772C10.6828 0.329269 11.8965 0.530354 13.0301 0.977754C14.1637 1.42515 15.192 2.1089 16.0485 2.98475C16.8787 3.88773 17.5238 4.94882 17.9465 6.10652C18.3692 7.26423 18.5611 8.49549 18.5109 9.72893C18.5716 10.9329 18.3868 12.1367 17.968 13.265C17.5492 14.3933 16.9054 15.4219 16.0768 16.2866C15.1681 17.121 14.104 17.7628 12.9472 18.1744C11.7903 18.5859 10.5641 18.7588 9.34039 18.6829H5.63256ZM5.63256 13.9333H9.49605C9.96162 13.9616 10.4273 13.8805 10.8569 13.6963C11.2865 13.5121 11.6684 13.2298 11.9727 12.8714C12.6204 11.9775 12.9316 10.8782 12.8501 9.77198C12.9054 8.58135 12.5938 7.40279 11.9585 6.39989C11.6936 6.00225 11.3346 5.67831 10.9143 5.45771C10.494 5.23712 10.0258 5.1269 9.55262 5.13715H5.63256V13.9333Z" fill="#47EACC"/>
<path d="M61.4906 0.387451L66.7411 20.8066L71.9774 0.387451H79.3223V28.6126H73.6615V20.9787L74.1709 9.21229L68.6092 28.6126H64.7881L59.2122 9.21229L59.7358 20.9787V28.6126H54.075V0.387451H61.4906Z" fill="#47EACC"/>
<path d="M101.583 19.8164C101.608 22.3742 100.712 24.8535 99.0643 26.7902C98.238 27.5559 97.2688 28.1459 96.2139 28.5255C95.159 28.905 94.0398 29.0663 92.9224 29C91.6941 29.0451 90.4733 28.7881 89.3643 28.2508C88.2553 27.7136 87.291 26.9121 86.5539 25.9149C84.881 23.4498 84.0553 20.4947 84.2046 17.5062V11.3216C84.031 8.34396 84.8703 5.39605 86.5823 2.97029C87.3529 1.9785 88.3451 1.18672 89.477 0.66029C90.6089 0.133857 91.848 -0.112145 93.0922 -0.0574172C94.1995 -0.126082 95.3088 0.0400706 96.3493 0.430436C97.3898 0.820801 98.3386 1.4268 99.1351 2.20978C100.735 4.16455 101.602 6.62934 101.583 9.1692H99.3615C99.3676 7.19457 98.7419 5.27119 97.5783 3.68776C96.9172 3.10318 96.1479 2.65791 95.3153 2.37791C94.4826 2.09791 93.6033 1.98879 92.7286 2.05691C91.8539 2.12502 91.0014 2.36902 90.2207 2.77466C89.44 3.1803 88.7468 3.73947 88.1814 4.41958C86.8861 6.47721 86.2713 8.89995 86.4265 11.336V17.3914C86.2854 19.8456 86.8772 22.2859 88.1248 24.3938C88.6451 25.1933 89.36 25.8431 90.2004 26.2805C91.0409 26.7179 91.9784 26.928 92.9224 26.8906C93.7764 26.973 94.6379 26.8683 95.4485 26.5836C96.2592 26.2989 97 25.8408 97.6208 25.2405C98.7684 23.6512 99.3789 21.7286 99.3615 19.759L101.583 19.8164Z" fill="white"/>
<path d="M124.496 28.6126H122.288V15.0955H109.211V28.6126H107.032V0.387451H109.211V13.0436H122.288V0.387451H124.496V28.6126Z" fill="white"/>
<path d="M144.11 20.7205H133.666L131.303 28.6126H129.024L137.898 0.387451H139.921L148.795 28.6126H146.516L144.11 20.7205ZM134.303 18.6542H143.473L138.888 3.50126L134.303 18.6542Z" fill="white"/>
<path d="M155.503 28.6126H153.323V0.387451H155.503V28.6126Z" fill="white"/>
<path d="M180 28.6126H177.821L164.688 4.57746V28.6126H162.494V0.387451H164.688L177.849 24.4656V0.387451H180V28.6126Z" fill="white"/>
<path opacity="0.75" d="M35.1254 28.1391C37.4702 28.1391 39.371 26.2118 39.371 23.8343C39.371 21.4569 37.4702 19.5295 35.1254 19.5295C32.7806 19.5295 30.8798 21.4569 30.8798 23.8343C30.8798 26.2118 32.7806 28.1391 35.1254 28.1391Z" fill="#47EACC"/>
<path d="M48.9018 28.1823L48.914 28.1751C50.4912 27.2519 51.0316 25.2071 50.121 23.608L37.8441 2.0473C36.9335 0.448183 34.9168 -0.0997018 33.3397 0.823551L33.3274 0.830733C31.7503 1.75399 31.21 3.79874 32.1205 5.39786L44.3974 26.9585C45.308 28.5576 47.3246 29.1056 48.9018 28.1823Z" fill="#47EACC"/>
<path opacity="0.5" d="M21.0323 28.1678L21.0445 28.175C22.6217 29.0982 24.6384 28.5503 25.5489 26.9512L37.8258 5.39057C38.7364 3.79145 38.196 1.74665 36.6189 0.823397L36.6067 0.816259C35.0295 -0.106994 33.0128 0.440889 32.1023 2.04001L19.8254 23.6007C18.9148 25.1998 19.4552 27.2446 21.0323 28.1678Z" fill="#47EACC"/>
</g>
<defs>
<clipPath id="clip0">
<rect width="180" height="29" fill="white"/>
</clipPath>
</defs>
</svg>
