<svg width="146" height="90" viewBox="0 0 146 90" fill="none" xmlns="http://www.w3.org/2000/svg">
<g clip-path="url(#clip0)">
<path d="M86.0045 66.5609H51.007V88.1217H86.0045V66.5609Z" fill="#47EACC"/>
<path d="M117.885 0H19.1325C17.4754 -6.54637e-07 15.8862 0.657875 14.7139 1.82906C13.5417 3.00025 12.8824 4.58893 12.8809 6.24598V70.6119C12.8809 72.2699 13.5396 73.86 14.712 75.0324C15.8844 76.2048 17.4745 76.8634 19.1325 76.8634H117.885C119.542 76.8619 121.13 76.2027 122.302 75.0304C123.473 73.8582 124.131 72.2689 124.131 70.6119V6.24598C124.131 4.58944 123.473 3.00075 122.301 1.8294C121.13 0.658054 119.541 0 117.885 0ZM120.696 63.4323H16.9431V3.75093H120.696V63.4323Z" fill="#47EACC"/>
<path d="M12.8809 67.5556V70.6119C12.8809 72.2699 13.5396 73.86 14.712 75.0324C15.8844 76.2048 17.4745 76.8634 19.1325 76.8634H117.885C119.542 76.8619 121.13 76.2027 122.302 75.0304C123.473 73.8582 124.131 72.2689 124.131 70.6119V67.5444L12.8809 67.5556Z" fill="#47EACC"/>
<path d="M88.1996 86.7325H48.8121V90H88.1996V86.7325Z" fill="#47EACC"/>
<path d="M68.8224 37.4704C67.4341 37.4704 66.1027 36.9189 65.121 35.9372C64.1393 34.9555 63.5878 33.6241 63.5878 32.2357C63.5878 30.8469 64.1392 29.5149 65.1207 28.5323C66.1023 27.5498 67.4336 26.997 68.8224 26.9956C70.2122 26.9956 71.5452 27.5476 72.5279 28.5304C73.5106 29.5131 74.0627 30.846 74.0627 32.2357C74.0612 33.6246 73.5084 34.956 72.5259 35.9375C71.5433 36.919 70.2112 37.4704 68.8224 37.4704ZM79.9363 33.6861C80.0024 33.2054 80.0378 32.721 80.042 32.2357C80.0366 31.734 80.0013 31.2329 79.9363 30.7354L83.0983 28.2959C83.2356 28.1829 83.3287 28.0252 83.3612 27.8504C83.3937 27.6756 83.3635 27.4949 83.276 27.3401L80.2809 22.161C80.1947 22.005 80.0547 21.8857 79.887 21.8253C79.7193 21.765 79.5353 21.7678 79.3695 21.8332L75.6408 23.328C74.8687 22.7261 74.018 22.2325 73.1123 21.861L72.5567 17.8933C72.5253 17.7172 72.4331 17.5577 72.2959 17.4429C72.1587 17.3281 71.9854 17.2652 71.8065 17.2654H65.8217C65.6428 17.2652 65.4696 17.3281 65.3324 17.4429C65.1952 17.5577 65.1028 17.7172 65.0715 17.8933L64.5158 21.861C63.6107 22.2338 62.7603 22.7272 61.9875 23.328L58.2587 21.8332C58.0929 21.7678 57.909 21.765 57.7413 21.8253C57.5735 21.8857 57.4336 22.005 57.3474 22.161L54.3522 27.3401C54.2606 27.4943 54.2288 27.6767 54.2626 27.8528C54.2964 28.0289 54.3935 28.1865 54.5356 28.2959L57.6919 30.7354C57.6269 31.2329 57.5917 31.734 57.5863 32.2357C57.5905 32.721 57.6257 33.2054 57.6919 33.6861L54.5356 36.1701C54.393 36.2804 54.2957 36.439 54.2619 36.616C54.2282 36.7931 54.2602 36.9764 54.3522 37.1314L57.3474 42.3049C57.4352 42.4594 57.575 42.5777 57.7419 42.6388C57.9088 42.6999 58.0919 42.6997 58.2587 42.6383L61.9875 41.1268C62.7572 41.7351 63.6082 42.2326 64.5158 42.605L65.0715 46.5726C65.1018 46.7492 65.1939 46.9093 65.3313 47.0243C65.4687 47.1394 65.6425 47.2018 65.8217 47.2005H71.8065C71.9854 47.2007 72.1587 47.1378 72.2959 47.023C72.4331 46.9082 72.5253 46.7487 72.5567 46.5726L73.1123 42.605C74.0174 42.2274 74.8678 41.7303 75.6408 41.1268L79.3695 42.6383C79.5362 42.6997 79.7194 42.6999 79.8863 42.6388C80.0532 42.5777 80.1931 42.4594 80.2809 42.3049L83.276 37.1314C83.3639 36.9758 83.3944 36.7942 83.3619 36.6184C83.3294 36.4426 83.236 36.2839 83.0983 36.1701L79.9363 33.6861Z" fill="#47EACC"/>
<path d="M135.972 46.9394H102.009C99.7988 46.9394 98.0075 48.7307 98.0075 50.9404C98.0075 53.1501 99.7988 54.9414 102.009 54.9414H135.972C138.182 54.9414 139.973 53.1501 139.973 50.9404C139.973 48.7307 138.182 46.9394 135.972 46.9394Z" fill="#47EACC"/>
<path d="M141.113 24.3505H107.149C104.939 24.3505 103.148 26.1418 103.148 28.3515C103.148 30.5611 104.939 32.3524 107.149 32.3524H141.113C143.322 32.3524 145.114 30.5611 145.114 28.3515C145.114 26.1418 143.322 24.3505 141.113 24.3505Z" fill="#47EACC"/>
<path d="M28.9683 14.3035H10.9694C8.75969 14.3035 6.96838 16.0948 6.96838 18.3045C6.96838 20.5142 8.75969 22.3055 10.9694 22.3055H28.9683C31.1779 22.3055 32.9692 20.5142 32.9692 18.3045C32.9692 16.0948 31.1779 14.3035 28.9683 14.3035Z" fill="#47EACC"/>
<path d="M37.9649 43.1996H4.00099C1.7913 43.1996 0 44.9909 0 47.2006C0 49.4103 1.7913 51.2016 4.00099 51.2016H37.9649C40.1746 51.2016 41.9659 49.4103 41.9659 47.2006C41.9659 44.9909 40.1746 43.1996 37.9649 43.1996Z" fill="#47EACC"/>
<path d="M41.9659 47.9451H50.2735L59.7092 36.3534" stroke="#47EACC" stroke-width="0.96" stroke-miterlimit="10"/>
<path d="M99.1356 50.9404H90.828L81.3923 39.3486" stroke="#47EACC" stroke-width="0.96" stroke-miterlimit="10"/>
<path d="M29.524 17.8822H51.9573L59.7092 28.3515" stroke="#47EACC" stroke-width="0.96" stroke-miterlimit="10"/>
<path d="M80.0475 28.2347H103.148" stroke="#47EACC" stroke-width="0.96" stroke-miterlimit="10"/>
</g>
<defs>
<clipPath id="clip0">
<rect width="145.114" height="90" fill="white"/>
</clipPath>
</defs>
</svg>
