<svg width="119" height="82" viewBox="0 0 119 82" fill="none" xmlns="http://www.w3.org/2000/svg">
<g clip-path="url(#clip0)">
<path d="M56.4322 26.7665H15.3643V70.214H56.4322V26.7665Z" stroke="#47EACC" stroke-width="3" stroke-miterlimit="10"/>
<path d="M102.85 26.7665H61.782V43.5597H102.85V26.7665Z" stroke="#47EACC" stroke-width="3" stroke-miterlimit="10"/>
<path d="M100.512 48.1124H64.1203C62.8288 48.1124 61.782 49.1593 61.782 50.4507C61.782 51.7421 62.8288 52.789 64.1203 52.789H100.512C101.803 52.789 102.85 51.7421 102.85 50.4507C102.85 49.1593 101.803 48.1124 100.512 48.1124Z" fill="#47EACC"/>
<path d="M100.512 55.759H64.1203C62.8288 55.759 61.782 56.8059 61.782 58.0973C61.782 59.3887 62.8288 60.4356 64.1203 60.4356H100.512C101.803 60.4356 102.85 59.3887 102.85 58.0973C102.85 56.8059 101.803 55.759 100.512 55.759Z" fill="#47EACC"/>
<path d="M82.7971 63.4058H64.1203C62.8288 63.4058 61.782 64.4527 61.782 65.7441C61.782 67.0355 62.8288 68.0824 64.1203 68.0824H82.7971C84.0886 68.0824 85.1354 67.0355 85.1354 65.7441C85.1354 64.4527 84.0886 63.4058 82.7971 63.4058Z" fill="#47EACC"/>
<path d="M111.341 2.9524C112.38 2.95396 113.377 3.36756 114.112 4.10251C114.847 4.83746 115.26 5.83382 115.262 6.8732V75.1327C115.26 76.1715 114.847 77.1673 114.111 77.9013C113.376 78.6353 112.38 79.0476 111.341 79.0476H6.86728C5.82947 79.046 4.83469 78.6331 4.10084 77.8992C3.367 77.1654 2.95402 76.1705 2.95246 75.1327V6.8732C2.95402 5.83484 3.36673 4.83935 4.10041 4.10457C4.83409 3.36978 5.82892 2.95552 6.86728 2.9524H111.341V2.9524ZM111.341 0H6.86728C5.04542 0.00156517 3.29879 0.726376 2.0111 2.01518C0.7234 3.30398 6.03628e-05 5.05134 6.10352e-05 6.8732V75.1327C6.10352e-05 76.954 0.723519 78.7007 2.01138 79.9886C3.29925 81.2765 5.04596 82 6.86728 82H111.341C113.163 82 114.91 81.2767 116.199 79.989C117.488 78.7013 118.213 76.9546 118.214 75.1327V6.8732C118.214 5.05032 117.49 3.30206 116.201 2.01309C114.912 0.724116 113.164 0 111.341 0V0Z" fill="#47EACC"/>
<path d="M0 17.4605H118.214" stroke="#47EACC" stroke-width="5" stroke-miterlimit="10"/>
<path d="M111.341 0H6.86728C5.04542 0.00156517 3.29879 0.726376 2.0111 2.01518C0.7234 3.30398 6.03628e-05 5.05134 6.10352e-05 6.8732V17.4605H118.214V6.8732C118.214 5.05032 117.49 3.30206 116.201 2.01309C114.912 0.724116 113.164 0 111.341 0V0ZM9.18782 11.6384C8.50659 11.6384 7.8534 11.3677 7.37169 10.886C6.88999 10.4043 6.61932 9.751 6.61932 9.06977C6.62089 8.38956 6.89218 7.73774 7.37371 7.25731C7.85525 6.77689 8.50761 6.5071 9.18782 6.5071C9.86749 6.5071 10.5193 6.77708 10.9999 7.25768C11.4805 7.73827 11.7506 8.3901 11.7506 9.06977C11.7521 9.74638 11.4861 10.3962 11.0104 10.8774C10.5348 11.3586 9.88806 11.6321 9.21147 11.6384H9.18782ZM17.4545 11.6384C17.1175 11.6384 16.7838 11.5719 16.4725 11.4427C16.1612 11.3136 15.8785 11.1243 15.6404 10.8857C15.4024 10.6471 15.2137 10.3639 15.0853 10.0523C14.9568 9.74069 14.8912 9.4068 14.892 9.06977C14.892 8.3901 15.1619 7.73827 15.6425 7.25768C16.1231 6.77708 16.7749 6.5071 17.4545 6.5071C18.1348 6.5071 18.7873 6.77689 19.2688 7.25731C19.7503 7.73774 20.0216 8.38956 20.0232 9.06977C20.0233 9.74189 19.76 10.3873 19.2897 10.8675C18.8194 11.3477 18.1797 11.6245 17.5077 11.6384H17.4545ZM25.7567 11.6384C25.0755 11.6384 24.4222 11.3677 23.9405 10.886C23.4588 10.4043 23.1882 9.751 23.1882 9.06977C23.1898 8.38956 23.4611 7.73774 23.9426 7.25731C24.4242 6.77689 25.0765 6.5071 25.7567 6.5071C26.4364 6.5071 27.0882 6.77708 27.5688 7.25768C28.0494 7.73827 28.3195 8.3901 28.3195 9.06977C28.3212 9.74135 28.0592 10.3868 27.5899 10.8671C27.1206 11.3475 26.4814 11.6245 25.8099 11.6384H25.7567ZM107.763 11.4317H39.0307C38.4043 11.4317 37.8036 11.1828 37.3606 10.7399C36.9177 10.297 36.6688 9.69619 36.6688 9.06977C36.6688 8.44335 36.9177 7.84258 37.3606 7.39964C37.8036 6.95669 38.4043 6.70785 39.0307 6.70785H107.816C108.442 6.70785 109.043 6.95669 109.486 7.39964C109.929 7.84258 110.178 8.44335 110.178 9.06977C110.178 9.69619 109.929 10.297 109.486 10.7399C109.043 11.1828 108.442 11.4317 107.816 11.4317H107.763Z" fill="#47EACC"/>
</g>
<defs>
<clipPath id="clip0">
<rect width="118.214" height="82" fill="white"/>
</clipPath>
</defs>
</svg>
