<svg width="100" height="88" viewBox="0 0 100 88" fill="none" xmlns="http://www.w3.org/2000/svg">
<g clip-path="url(#clip0)">
<path d="M82.9697 80.7218C82.9697 80.7853 82.9697 80.8699 82.9697 80.9386C82.8745 84.7788 80.0077 87.8678 76.4849 87.8731L6.53767 87.9947C2.94616 87.9947 0.0264953 84.8211 0.0212059 80.8593V75.3636C0.0571985 77.0605 0.756985 78.6756 1.97039 79.8623C3.18379 81.049 4.8141 81.7127 6.51133 81.7109L60.0349 81.621H62.6796C63.3095 81.6205 63.9328 81.4934 64.5126 81.2471C65.0923 81.0009 65.6165 80.6405 66.0542 80.1876L81.6316 64.0919C82.4783 63.2141 82.9522 62.0426 82.954 60.823L82.9697 80.7218Z" fill="#47EACC"/>
<path d="M77.1461 65.1497L67.0962 75.5434V67.0275C67.0931 66.7839 67.1383 66.5421 67.2291 66.3161C67.3199 66.09 67.4544 65.8842 67.6251 65.7104C67.7987 65.5395 68.0046 65.4047 68.2307 65.3139C68.4567 65.2231 68.6987 65.1781 68.9423 65.1815H77.1514L77.1461 65.1497ZM82.9328 58.1095C82.9242 59.3199 82.4375 60.4778 81.5787 61.3308C81.1516 61.7623 80.6434 62.105 80.0833 62.3392C79.5232 62.5734 78.9223 62.6945 78.3152 62.6955H68.9317C68.3652 62.6961 67.8042 62.8085 67.2811 63.0261C66.758 63.2437 66.283 63.5623 65.8831 63.9637C65.4832 64.365 65.1664 64.8413 64.9507 65.3652C64.735 65.8891 64.6247 66.4503 64.6261 67.0169V76.9451C64.6275 77.5527 64.5091 78.1546 64.2777 78.7164C64.0462 79.2782 63.7062 79.7889 63.2773 80.2193C62.4175 81.0892 61.2474 81.5819 60.0243 81.5892H62.6425C63.2724 81.5887 63.8958 81.4616 64.4755 81.2154C65.0552 80.9691 65.5796 80.6088 66.0173 80.1558L81.5946 64.0601C82.4413 63.1824 82.9152 62.0108 82.9169 60.7912V58.1042L82.9328 58.1095Z" fill="#47EACC"/>
<path d="M20.1949 4.697C20.1907 3.47275 19.7011 2.30017 18.8334 1.43647C17.9658 0.57278 16.7909 0.0885304 15.5667 0.0899384C14.9587 0.0920153 14.3571 0.213994 13.7964 0.448905C13.2356 0.683815 12.7266 1.02703 12.2986 1.45891C11.8707 1.89079 11.5321 2.40283 11.3024 2.96574C11.0726 3.52864 10.9561 4.13134 10.9596 4.73932V12.7528C10.9638 13.9766 11.4525 15.1489 12.3189 16.0133C13.1853 16.8777 14.3587 17.3638 15.5826 17.3652V17.3652C15.7497 17.3652 15.9152 17.3321 16.0695 17.268C16.2239 17.2039 16.3642 17.1099 16.4821 16.9915C16.6001 16.873 16.6935 16.7325 16.7569 16.5778C16.8204 16.4232 16.8527 16.2576 16.852 16.0904C16.852 15.9233 16.819 15.7577 16.7549 15.6034C16.6907 15.449 16.5968 15.3088 16.4784 15.1909C16.3599 15.0729 16.2194 14.9795 16.0648 14.9161C15.9101 14.8526 15.7444 14.8203 15.5773 14.8209V14.8209C15.0278 14.8196 14.5012 14.6006 14.1126 14.2121C13.7241 13.8236 13.5053 13.297 13.5039 12.7475V4.73403C13.5053 4.18454 13.7241 3.65798 14.1126 3.26943C14.5012 2.88089 15.0278 2.66198 15.5773 2.66059C16.1268 2.66058 16.654 2.87813 17.0435 3.26569C17.433 3.65324 17.6532 4.17925 17.656 4.72873V8.02932H20.2002L20.1949 4.697Z" fill="#47EACC"/>
<path d="M72.0313 4.6071C72.0285 3.38333 71.54 2.21074 70.6731 1.34689C69.8063 0.483049 68.6321 -0.00140196 67.4083 3.04758e-06C66.8019 0.000697266 66.2016 0.120845 65.6416 0.353545C65.0816 0.586246 64.573 0.926942 64.1447 1.35622C63.7164 1.7855 63.3768 2.29495 63.1454 2.85546C62.914 3.41597 62.7953 4.01658 62.796 4.62298V12.6364C62.8002 13.8602 63.2889 15.0326 64.1552 15.897C65.0216 16.7614 66.1951 17.2474 67.4189 17.2488V17.2488C67.7556 17.246 68.0777 17.1107 68.3154 16.8721C68.553 16.6334 68.6869 16.3108 68.6883 15.974C68.6883 15.8069 68.6553 15.6414 68.5912 15.487C68.5271 15.3326 68.4332 15.1925 68.3147 15.0745C68.1963 14.9566 68.0557 14.8632 67.9011 14.7997C67.7465 14.7362 67.5808 14.7039 67.4136 14.7046V14.7046C66.8641 14.7032 66.3375 14.4843 65.9489 14.0958C65.5604 13.7072 65.3416 13.1806 65.3402 12.6311V4.61768C65.3402 4.06777 65.5587 3.54038 65.9475 3.15154C66.3364 2.76269 66.8637 2.54421 67.4136 2.54421C67.9631 2.5442 68.4903 2.76179 68.8798 3.14934C69.2694 3.5369 69.4895 4.06291 69.4923 4.61239V7.91298H72.0366L72.0313 4.6071Z" fill="#47EACC"/>
<path d="M80.5948 58.3528V60.8071C80.6012 61.3982 80.3752 61.968 79.9654 62.394H79.9389L64.3828 78.4526C64.1733 78.6704 63.9219 78.8435 63.6437 78.9617C63.3656 79.0799 63.0664 79.1406 62.7642 79.1402H60.1195L6.59063 79.2302C5.54388 79.2241 4.53989 78.8142 3.78798 78.0859C3.03608 77.3577 2.59437 76.3673 2.55486 75.3213V73.946L2.49662 22.3531V19.9094V14.5406C2.49654 13.4643 2.92251 12.4317 3.68145 11.6684C4.05595 11.2906 4.50174 10.9908 4.99295 10.7865C5.48417 10.5823 6.01098 10.4775 6.54298 10.4783H13.6731L62.8647 10.3937H65.5094H76.4955C77.5697 10.3937 78.6 10.8197 79.3605 11.5782C80.121 12.3368 80.5498 13.366 80.5526 14.4401V18.1745C81.374 18.2167 82.1918 18.3103 83.0015 18.4548V14.4348C83.0029 13.5757 82.8343 12.7249 82.5054 11.9312C82.1765 11.1376 81.6938 10.4169 81.0851 9.81067C80.4764 9.20443 79.7537 8.72465 78.9588 8.39895C78.1638 8.07325 77.3124 7.90809 76.4533 7.91298V7.91298H65.4407H62.796L13.6044 7.99759H13.488H11.0602H6.47427C5.6199 7.99898 4.77412 8.16866 3.9853 8.4969C3.19649 8.82514 2.48005 9.30553 1.8769 9.91065C1.27374 10.5158 0.795762 11.2338 0.47009 12.0236C0.144418 12.8135 -0.0225342 13.6598 -0.0211439 14.5142V22.3266L0.0634403 73.9355V75.3319C0.0986311 76.9718 0.753056 78.5376 1.89511 79.715C3.03716 80.8924 4.58233 81.5941 6.22039 81.6792H6.55886L59.982 81.5892H60.0773H62.595H62.7114C63.3421 81.5889 63.9662 81.4618 64.5468 81.2156C65.1274 80.9694 65.6526 80.609 66.0913 80.1558L81.6686 64.0601C82.2704 63.4345 82.6878 62.6547 82.8746 61.8068C82.9533 61.4741 82.9923 61.1332 82.9909 60.7912V58.0513C82.1988 58.1983 81.3987 58.299 80.5948 58.3528Z" fill="#47EACC"/>
<path d="M65.6364 25.1194C64.948 25.4856 64.2837 25.8955 63.6476 26.3466H1.11602V25.1194H65.6364Z" fill="#47EACC"/>
<path d="M79.4312 19.9464C79.7327 19.9464 80.0501 19.9464 80.4309 19.9464C81.1759 19.986 81.9178 20.0708 82.6525 20.2003C86.8828 20.9505 90.7133 23.1681 93.4704 26.4632C96.2276 29.7582 97.7348 33.9196 97.7273 38.216C97.728 42.4973 96.2255 46.6428 93.4821 49.9296C90.7386 53.2163 86.9283 55.4355 82.7159 56.2C81.9867 56.3327 81.2501 56.4211 80.5102 56.4645C80.0976 56.4645 79.7591 56.4962 79.4523 56.4962C74.6011 56.4892 69.9507 54.5587 66.5209 51.1279C63.0911 47.697 61.1618 43.0461 61.1562 38.1949C61.1639 35.2641 61.8739 32.3779 63.2268 29.778C64.5796 27.1781 66.536 24.9404 68.9317 23.2523C69.5146 22.8457 70.1203 22.4731 70.746 22.1362C73.4151 20.6986 76.3994 19.9461 79.4312 19.9464V19.9464ZM79.4312 18.1057C76.0919 18.103 72.8049 18.9339 69.868 20.523C69.1807 20.8893 68.5165 21.2973 67.8792 21.7448C65.2252 23.5999 63.0586 26.0686 61.5639 28.941C60.0692 31.8135 59.2906 35.0045 59.2943 38.2425C59.2943 43.5831 61.416 48.705 65.1923 52.4814C68.9687 56.2577 74.0905 58.3793 79.4312 58.3793C79.8226 58.3793 80.2087 58.3793 80.5948 58.3793C81.4181 58.3294 82.2377 58.2305 83.0492 58.0831C87.6854 57.235 91.8772 54.7876 94.8947 51.167C97.9122 47.5464 99.5641 42.9821 99.5627 38.2689C99.5634 33.5433 97.9022 28.968 94.8698 25.3437C91.8373 21.7194 87.6267 19.2771 82.975 18.4442C82.1654 18.2997 81.3475 18.2061 80.5261 18.1639C80.1611 18.1639 79.8014 18.1321 79.4312 18.1321V18.1057Z" fill="#47EACC"/>
<path d="M70.7619 44.886L71.5023 47.7211L72.2376 44.886H73.2955V48.8054H72.4968V47.7475L72.5708 46.1131L71.788 48.8054H71.259L70.4762 46.1131L70.5502 47.7475V48.8054H69.7568V44.886H70.7619Z" fill="#47EACC"/>
<path d="M76.6701 47.1975C76.6971 47.6384 76.5638 48.0743 76.2946 48.4246C76.1639 48.5743 76.0005 48.6917 75.817 48.7679C75.6335 48.844 75.4349 48.8768 75.2367 48.8636C75.0391 48.8755 74.8413 48.8426 74.6582 48.7675C74.475 48.6924 74.3112 48.577 74.1788 48.4299C73.9118 48.0843 73.7768 47.6548 73.798 47.2186V46.5257C73.7712 46.075 73.9042 45.6292 74.1735 45.2668C74.3018 45.1133 74.4644 44.9921 74.6482 44.9131C74.832 44.8341 75.0317 44.7994 75.2314 44.8119C75.4258 44.8023 75.6199 44.8374 75.7987 44.9144C75.9775 44.9914 76.1362 45.1083 76.2628 45.2562C76.5363 45.615 76.6732 46.0594 76.6489 46.5098L76.6701 47.1975ZM75.8767 46.5416C75.894 46.2701 75.8411 45.9987 75.7233 45.7534C75.6751 45.6721 75.606 45.6052 75.5232 45.5596C75.4404 45.5141 75.347 45.4915 75.2526 45.4943C75.16 45.4913 75.0682 45.5128 74.9865 45.5564C74.9049 45.6 74.8361 45.6643 74.787 45.7429C74.6736 45.9801 74.6208 46.2419 74.6336 46.5046V47.1975C74.6139 47.4606 74.667 47.7241 74.787 47.9591C74.8372 48.0375 74.9071 48.1013 74.9898 48.144C75.0724 48.1867 75.1649 48.2069 75.2579 48.2024C75.3485 48.2056 75.4385 48.1853 75.5191 48.1436C75.5997 48.102 75.6681 48.0402 75.718 47.9644C75.8349 47.7357 75.8896 47.4804 75.8767 47.2239V46.5416Z" fill="#47EACC"/>
<path d="M79.976 48.8054H79.1931L78.0348 46.2348V48.8054H77.2414V44.886H78.0348L79.1931 47.4619V44.886H79.9813L79.976 48.8054Z" fill="#47EACC"/>
<path d="M83.1549 45.5472H82.1816V48.8054H81.3882V45.5472H80.4362V44.886H83.1549V45.5472Z" fill="#47EACC"/>
<path d="M86.3603 48.8054H85.5722V47.1287H84.398V48.8054H83.6099V44.886H84.398V46.4728H85.5722V44.886H86.3603V48.8054Z" fill="#47EACC"/>
<path d="M88.6506 47.7793C88.6551 47.7143 88.6468 47.649 88.6259 47.5872C88.605 47.5255 88.572 47.4685 88.5289 47.4196C88.3974 47.3075 88.247 47.2198 88.0847 47.1604C87.7616 47.0568 87.4691 46.8752 87.233 46.6315C87.0624 46.4351 86.9702 46.1828 86.9739 45.9227C86.9682 45.7722 86.9973 45.6223 87.0587 45.4848C87.1201 45.3472 87.2123 45.2256 87.3282 45.1293C87.5771 44.9227 87.8937 44.8153 88.2169 44.8278C88.4415 44.824 88.6634 44.8767 88.8622 44.9812C89.0469 45.0768 89.1981 45.2262 89.296 45.4097C89.4016 45.6023 89.4544 45.8194 89.4493 46.0391H88.6611C88.6726 45.8905 88.6315 45.7425 88.5448 45.6212C88.5032 45.5729 88.451 45.5348 88.3923 45.5101C88.3336 45.4853 88.27 45.4744 88.2063 45.4784C88.1469 45.4739 88.0872 45.4824 88.0315 45.5034C87.9757 45.5244 87.9252 45.5574 87.8836 45.6001C87.8432 45.6441 87.8121 45.6958 87.7921 45.7522C87.7721 45.8085 87.7636 45.8683 87.7673 45.928C87.7673 45.9826 87.7786 46.0367 87.8005 46.0867C87.8223 46.1368 87.8542 46.1818 87.8942 46.2189C88.0305 46.3365 88.1863 46.4296 88.3544 46.494C88.6732 46.5969 88.9606 46.7789 89.1901 47.0229C89.3668 47.2386 89.4589 47.5112 89.4493 47.7899C89.4566 47.9389 89.4312 48.0878 89.3745 48.2258C89.3178 48.3639 89.2314 48.4877 89.1214 48.5886C88.8743 48.7938 88.5587 48.8978 88.2381 48.8795C87.9978 48.8828 87.7601 48.8284 87.5452 48.7208C87.3431 48.6214 87.1727 48.4675 87.0533 48.2765C86.9333 48.0676 86.8729 47.8297 86.8787 47.5889H87.6721C87.6584 47.7632 87.7051 47.9369 87.8043 48.0808C87.8604 48.1374 87.9285 48.1806 88.0036 48.2071C88.0787 48.2337 88.1589 48.2429 88.2381 48.2342C88.5131 48.2183 88.6506 48.0702 88.6506 47.7793Z" fill="#47EACC"/>
<path d="M75.1784 42.8231H72.2587V31.3821L69.413 32.4823V30.0544L74.8717 27.8223H75.1784V42.8231Z" fill="#47EACC"/>
<path d="M88.2539 42.8231H79.4312V40.7655L83.4829 35.6083C83.9215 35.0223 84.3023 34.3953 84.6201 33.7359C84.8505 33.2511 84.9749 32.7228 84.985 32.1861C85.0163 31.6358 84.8976 31.0873 84.6413 30.5993C84.5429 30.4232 84.3983 30.2774 84.223 30.1776C84.0477 30.0779 83.8484 30.028 83.6468 30.0333C83.4171 30.0328 83.1914 30.0938 82.9932 30.2101C82.7951 30.3264 82.6318 30.4936 82.5202 30.6945C82.2119 31.2609 82.0672 31.9019 82.1023 32.5458H79.1932C79.1827 31.6716 79.3785 30.8072 79.7645 30.0227C80.1148 29.2936 80.6651 28.6791 81.3513 28.2508C82.0573 27.8234 82.8693 27.6035 83.6945 27.616C84.2605 27.5825 84.8274 27.6631 85.3617 27.853C85.896 28.0429 86.3867 28.3383 86.8046 28.7215C87.19 29.1444 87.4866 29.6405 87.6765 30.1802C87.8664 30.7199 87.9458 31.2924 87.9101 31.8635C87.8985 32.7552 87.689 33.6333 87.2966 34.4341C86.6956 35.5899 85.9509 36.6652 85.0802 37.6342L83.1602 40.3847H88.2487L88.2539 42.8231Z" fill="#47EACC"/>
<path d="M51.5401 35.7564H14.1175C12.3705 35.7564 10.9544 37.1726 10.9544 38.9195V38.9248C10.9544 40.6717 12.3705 42.0879 14.1175 42.0879H51.5401C53.287 42.0879 54.7031 40.6717 54.7031 38.9248V38.9195C54.7031 37.1726 53.287 35.7564 51.5401 35.7564Z" fill="#47EACC"/>
<path d="M53.3544 50.1172H14.1175C12.3705 50.1172 10.9544 51.5334 10.9544 53.2803V53.2856C10.9544 55.0325 12.3705 56.4487 14.1175 56.4487H53.3544C55.1013 56.4487 56.5174 55.0325 56.5174 53.2856V53.2803C56.5174 51.5334 55.1013 50.1172 53.3544 50.1172Z" fill="#47EACC"/>
<path d="M42.5745 64.478H14.1175C12.3705 64.478 10.9544 65.8941 10.9544 67.641V67.6463C10.9544 69.3933 12.3705 70.8094 14.1175 70.8094H42.5745C44.3214 70.8094 45.7376 69.3933 45.7376 67.6463V67.641C45.7376 65.8941 44.3214 64.478 42.5745 64.478Z" fill="#47EACC"/>
</g>
<defs>
<clipPath id="clip0">
<rect width="99.5627" height="88" fill="white"/>
</clipPath>
</defs>
</svg>
