<svg width="85" height="96" viewBox="0 0 85 96" fill="none" xmlns="http://www.w3.org/2000/svg">
<g clip-path="url(#clip0)">
<path d="M51.4802 14.3991H59.4818C59.5869 14.3991 59.6909 14.3783 59.788 14.338C59.885 14.2976 59.9731 14.2384 60.0472 14.1639C60.1213 14.0894 60.18 14.0009 60.2198 13.9036C60.2596 13.8063 60.2797 13.7022 60.2791 13.5971C60.2791 13.3856 60.1952 13.1828 60.0456 13.0332C59.8961 12.8837 59.6933 12.7997 59.4818 12.7997H51.4802C51.2687 12.7997 51.0659 12.8837 50.9164 13.0332C50.7668 13.1828 50.6829 13.3856 50.6829 13.5971C50.6823 13.7022 50.7024 13.8063 50.7422 13.9036C50.782 14.0009 50.8407 14.0894 50.9148 14.1639C50.9889 14.2384 51.077 14.2976 51.174 14.338C51.2711 14.3783 51.3751 14.3991 51.4802 14.3991ZM83.4818 13.5971H80.283C80.0703 13.5971 79.8663 13.6815 79.7159 13.8319C79.5655 13.9823 79.481 14.1864 79.481 14.3991C79.481 14.6118 79.5655 14.8158 79.7159 14.9662C79.8663 15.1166 80.0703 15.2011 80.283 15.2011H83.4818C83.6937 15.1999 83.8964 15.1148 84.0458 14.9645C84.1952 14.8143 84.2791 14.611 84.2791 14.3991C84.2791 14.1872 84.1952 13.9839 84.0458 13.8336C83.8964 13.6833 83.6937 13.5983 83.4818 13.5971ZM77.2343 7.84211C77.4463 7.84306 77.6503 7.7605 77.8019 7.61229L80.0626 5.34689C80.137 5.27281 80.1961 5.18473 80.2364 5.08773C80.2767 4.99074 80.2975 4.88675 80.2975 4.78171C80.2975 4.67668 80.2767 4.57268 80.2364 4.47569C80.1961 4.3787 80.137 4.29065 80.0626 4.21656C79.9123 4.06734 79.7092 3.98359 79.4975 3.98359C79.2857 3.98359 79.0825 4.06734 78.9322 4.21656L76.6715 6.47723C76.5969 6.55172 76.5377 6.64021 76.4973 6.7376C76.457 6.83498 76.4362 6.93934 76.4362 7.04476C76.4362 7.15018 76.457 7.25458 76.4973 7.35196C76.5377 7.44934 76.5969 7.5378 76.6715 7.61229C76.7454 7.68596 76.8332 7.7442 76.9298 7.78365C77.0265 7.82311 77.13 7.84298 77.2343 7.84211ZM69.88 4.79814C70.0919 4.79815 70.2952 4.71429 70.4455 4.56489C70.5958 4.41549 70.6808 4.21269 70.6821 4.0008V0.797348C70.6808 0.58545 70.5958 0.38265 70.4455 0.233253C70.2952 0.0838555 70.0919 -3.62329e-06 69.88 1.17362e-10C69.6686 1.17362e-10 69.4657 0.0840084 69.3162 0.233539C69.1667 0.38307 69.0827 0.58588 69.0827 0.797348V4.0008C69.0827 4.21226 69.1667 4.41507 69.3162 4.5646C69.4657 4.71414 69.6686 4.79814 69.88 4.79814ZM47.7233 14.1786C47.7944 14.2554 47.8808 14.3164 47.977 14.3576C48.0731 14.3988 48.1768 14.4194 48.2814 14.4178C48.386 14.4194 48.4899 14.3988 48.586 14.3576C48.6822 14.3164 48.7686 14.2554 48.8397 14.1786C48.9216 14.1106 48.9832 14.0214 49.0178 13.9207C49.0633 13.8273 49.0859 13.7244 49.0836 13.6205C49.0843 13.5149 49.0629 13.4103 49.0209 13.3134C48.9789 13.2165 48.9172 13.1294 48.8397 13.0577C48.7744 12.9759 48.6862 12.9155 48.5864 12.8841C48.4414 12.8251 48.2821 12.8102 48.1287 12.841C47.9752 12.8719 47.8342 12.9472 47.7233 13.0577C47.6448 13.1286 47.5825 13.2156 47.5404 13.3127C47.4984 13.4098 47.4775 13.5147 47.4794 13.6205C47.4771 13.7244 47.4996 13.8273 47.5451 13.9207C47.5827 14.0146 47.6441 14.097 47.7233 14.1599V14.1786Z" fill="#47EACC"/>
<path d="M77.8816 17.5978V14.3991C77.8791 12.2777 77.0352 10.2439 75.5352 8.74385C74.0351 7.2438 72.0014 6.39997 69.88 6.39749H37.8831C35.7617 6.39997 33.7279 7.2438 32.2279 8.74385C30.7278 10.2439 29.884 12.2777 29.8815 14.3991V17.5978C29.6692 17.599 29.4659 17.6839 29.3157 17.8341C29.1656 17.9842 29.0807 18.1875 29.0795 18.3998V23.198C29.0807 23.4103 29.1656 23.6136 29.3157 23.7637C29.4659 23.9139 29.6692 23.9988 29.8815 24V28.7981C29.6692 28.7994 29.4659 28.8842 29.3157 29.0344C29.1656 29.1845 29.0807 29.3878 29.0795 29.6002V31.1995C29.0807 31.4114 29.1658 31.6142 29.3161 31.7636C29.4663 31.913 29.6696 31.9969 29.8815 31.9969V33.6009C29.6696 33.6009 29.4663 33.6848 29.3161 33.8342C29.1658 33.9836 29.0807 34.1864 29.0795 34.3983V35.9976C29.0807 36.21 29.1656 36.4133 29.3157 36.5634C29.4659 36.7136 29.6692 36.7985 29.8815 36.7997V87.9985C29.884 90.1198 30.7278 92.1536 32.2279 93.6537C33.7279 95.1537 35.7617 95.9975 37.8831 96H69.88C72.0014 95.9975 74.0351 95.1537 75.5352 93.6537C77.0352 92.1536 77.8791 90.1198 77.8816 87.9985V27.1988C77.9867 27.1988 78.0907 27.178 78.1878 27.1376C78.2848 27.0972 78.3729 27.0381 78.447 26.9636C78.5211 26.889 78.5798 26.8006 78.6196 26.7033C78.6594 26.606 78.6795 26.5018 78.6789 26.3967V18.3998C78.6789 18.1879 78.595 17.9847 78.4456 17.8344C78.2962 17.6841 78.0935 17.599 77.8816 17.5978ZM33.0803 19.1972H74.6828V78.3975H33.0803V19.1972ZM37.8831 9.60094H69.88C71.1526 9.60218 72.3728 10.1079 73.2731 11.0074C74.1734 11.9068 74.6803 13.1265 74.6828 14.3991V17.5978H33.0803V14.3991C33.0815 13.1261 33.5881 11.9057 34.4886 11.006C35.3892 10.1063 36.6101 9.60094 37.8831 9.60094ZM69.88 92.7966H37.8831C36.6101 92.7966 35.3892 92.2912 34.4886 91.3915C33.5881 90.4918 33.0815 89.2714 33.0803 87.9985V79.9969H74.6828V87.9985C74.6803 89.271 74.1734 90.4907 73.2731 91.3902C72.3728 92.2896 71.1526 92.7953 69.88 92.7966Z" fill="#47EACC"/>
<path d="M53.8816 83.2003C53.0336 83.2016 52.2207 83.539 51.6211 84.1386C51.0215 84.7382 50.6841 85.5511 50.6828 86.3991C50.6841 87.2471 51.0215 88.06 51.6211 88.6596C52.2207 89.2592 53.0336 89.5966 53.8816 89.5978C54.7296 89.5966 55.5424 89.2592 56.142 88.6596C56.7416 88.06 57.079 87.2471 57.0803 86.3991C57.079 85.5511 56.7416 84.7382 56.142 84.1386C55.5424 83.539 54.7296 83.2016 53.8816 83.2003ZM53.8816 87.9985C53.4574 87.9985 53.0506 87.83 52.7506 87.53C52.4507 87.2301 52.2822 86.8233 52.2822 86.3991C52.2822 85.9749 52.4507 85.5681 52.7506 85.2681C53.0506 84.9682 53.4574 84.7997 53.8816 84.7997C54.3058 84.7997 54.7125 84.9682 55.0125 85.2681C55.3124 85.5681 55.4809 85.9749 55.4809 86.3991C55.4809 86.8233 55.3124 87.2301 55.0125 87.53C54.7125 87.83 54.3058 87.9985 53.8816 87.9985ZM51.4801 29.5908C51.4814 28.9543 51.7347 28.3442 52.1848 27.8941C52.6349 27.444 53.2451 27.1906 53.8816 27.1894C54.5181 27.1906 55.1282 27.444 55.5783 27.8941C56.0284 28.3442 56.2817 28.9543 56.283 29.5908C56.2849 29.913 56.2211 30.2322 56.0954 30.5288C55.3667 30.3817 54.625 30.3079 53.8816 30.3084C53.1382 30.3079 52.3964 30.3817 51.6677 30.5288C51.5443 30.2315 51.4806 29.9127 51.4801 29.5908ZM53.8816 33.4884C56.0026 33.4921 58.0357 34.3363 59.5354 35.8361C61.0352 37.3359 61.8794 39.3689 61.8831 41.49V49.59H45.88V41.49C45.885 39.3702 46.7298 37.3388 48.2296 35.8408C49.7294 34.3428 51.7618 33.5003 53.8816 33.4978V33.4884ZM56.283 59.9883C56.2733 60.6222 56.0172 61.2274 55.5689 61.6756C55.1206 62.1239 54.5155 62.38 53.8816 62.3897C53.2477 62.38 52.6425 62.1239 52.1942 61.6756C51.7459 61.2274 51.4898 60.6222 51.4801 59.9883C51.4847 59.7159 51.5355 59.4463 51.6303 59.1909H56.1328C56.2299 59.4489 56.2807 59.722 56.283 59.9977V59.9883ZM65.0819 49.8855V41.49C65.0779 39.178 64.3591 36.9238 63.024 35.0363C61.689 33.1487 59.803 31.7202 57.6244 30.9463C57.7897 30.5132 57.8769 30.0543 57.8823 29.5908C57.8811 28.5301 57.4592 27.5132 56.7092 26.7632C55.9591 26.0132 54.9423 25.5912 53.8816 25.59C52.8209 25.5912 51.804 26.0132 51.0539 26.7632C50.3039 27.5132 49.8821 28.5301 49.8808 29.5908C49.888 30.0541 49.9753 30.5127 50.1388 30.9463C47.9602 31.7202 46.0741 33.1487 44.7391 35.0363C43.404 36.9238 42.6852 39.178 42.6812 41.49V49.8855C41.7484 50.2139 40.9401 50.823 40.3674 51.6292C39.7946 52.4354 39.4854 53.3992 39.4825 54.3881C39.4837 55.6607 39.9895 56.8809 40.889 57.7812C41.7884 58.6815 43.008 59.1885 44.2806 59.1909H48.3424C48.3032 59.4549 48.2828 59.7214 48.2814 59.9883C48.2888 61.4713 48.8812 62.8914 49.9298 63.94C50.9785 64.9887 52.3986 65.5811 53.8816 65.5885C55.3646 65.5811 56.7846 64.9887 57.8333 63.94C58.8819 62.8914 59.4743 61.4713 59.4817 59.9883C59.4787 59.7213 59.4567 59.4548 59.416 59.1909H63.4825C64.7551 59.1885 65.9747 58.6815 66.8741 57.7812C67.7736 56.8809 68.2794 55.6607 68.2807 54.3881C68.2757 53.4008 67.9657 52.4391 67.3931 51.6347C66.8205 50.8304 66.0132 50.2227 65.0819 49.8949V49.8855ZM63.4825 55.9828H44.2806C43.8564 55.9828 43.4496 55.8143 43.1497 55.5144C42.8497 55.2144 42.6812 54.8076 42.6812 54.3834C42.6812 53.9593 42.8497 53.5525 43.1497 53.2525C43.4496 52.9526 43.8564 52.7841 44.2806 52.7841H63.4825C63.9067 52.7841 64.3135 52.9526 64.6134 53.2525C64.9134 53.5525 65.0819 53.9593 65.0819 54.3834C65.0837 54.5947 65.0437 54.8042 64.9642 54.9998C64.8846 55.1955 64.7672 55.3735 64.6185 55.5235C64.4698 55.6735 64.2928 55.7926 64.0978 55.8738C63.9028 55.9551 63.6938 55.9969 63.4825 55.9969V55.9828Z" fill="#47EACC"/>
<path d="M36.9592 33.5024H18.2451C16.8515 33.5024 15.7217 34.6322 15.7217 36.0258V36.0305C15.7217 37.4241 16.8515 38.5538 18.2451 38.5538H36.9592C38.3528 38.5538 39.4825 37.4241 39.4825 36.0305V36.0258C39.4825 34.6322 38.3528 33.5024 36.9592 33.5024Z" fill="#47EACC"/>
<path d="M35.3082 43.1503H2.52335C1.12974 43.1503 0 44.28 0 45.6736V45.6783C0 47.0719 1.12974 48.2017 2.52335 48.2017H35.3082C36.7018 48.2017 37.8315 47.0719 37.8315 45.6783V45.6736C37.8315 44.28 36.7018 43.1503 35.3082 43.1503Z" fill="#47EACC"/>
<path d="M35.3082 52.7981H11.9038C10.5102 52.7981 9.38049 53.9279 9.38049 55.3215V55.3262C9.38049 56.7198 10.5102 57.8495 11.9038 57.8495H35.3082C36.7018 57.8495 37.8315 56.7198 37.8315 55.3262V55.3215C37.8315 53.9279 36.7018 52.7981 35.3082 52.7981Z" fill="#47EACC"/>
</g>
<defs>
<clipPath id="clip0">
<rect width="84.2791" height="96" fill="white"/>
</clipPath>
</defs>
</svg>
