<svg width="115" height="92" viewBox="0 0 115 92" fill="none" xmlns="http://www.w3.org/2000/svg">
<path d="M38.6172 48.7229H26.5167L19.6732 40.5573H10.4688" stroke="#47EACC" stroke-width="2" stroke-miterlimit="10"/>
<path d="M5.73441 45.2854C8.34916 45.2854 10.4688 43.1657 10.4688 40.551C10.4688 37.9363 8.34916 35.8166 5.73441 35.8166C3.11967 35.8166 1 37.9363 1 40.551C1 43.1657 3.11967 45.2854 5.73441 45.2854Z" stroke="#47EACC" stroke-width="2" stroke-miterlimit="10"/>
<path d="M36.3067 57.7888H26.309L19.4655 65.9544H11.6587" stroke="#47EACC" stroke-width="2" stroke-miterlimit="10"/>
<path d="M6.92431 70.6888C9.53905 70.6888 11.6587 68.5692 11.6587 65.9544C11.6587 63.3397 9.53905 61.22 6.92431 61.22C4.30956 61.22 2.1899 63.3397 2.1899 65.9544C2.1899 68.5692 4.30956 70.6888 6.92431 70.6888Z" stroke="#47EACC" stroke-width="2" stroke-miterlimit="10"/>
<path d="M22.9722 28.8409C25.587 28.8409 27.7066 26.7212 27.7066 24.1065C27.7066 21.4917 25.587 19.3721 22.9722 19.3721C20.3575 19.3721 18.2378 21.4917 18.2378 24.1065C18.2378 26.7212 20.3575 28.8409 22.9722 28.8409Z" stroke="#47EACC" stroke-width="2" stroke-miterlimit="10"/>
<path d="M46.701 30.3771L36.8166 24.1128H27.7066" stroke="#47EACC" stroke-width="2" stroke-miterlimit="10"/>
<path d="M16.2987 88.7892C18.9134 88.7892 21.0331 86.6695 21.0331 84.0548C21.0331 81.44 18.9134 79.3203 16.2987 79.3203C13.684 79.3203 11.5643 81.44 11.5643 84.0548C11.5643 86.6695 13.684 88.7892 16.2987 88.7892Z" stroke="#47EACC" stroke-width="2" stroke-miterlimit="10"/>
<path d="M40.0337 77.7842L30.1494 84.0547H21.0394" stroke="#47EACC" stroke-width="2" stroke-miterlimit="10"/>
<path d="M75.9511 48.7229H88.0515L94.8887 40.5573H104.093" stroke="#47EACC" stroke-width="2" stroke-miterlimit="10"/>
<path d="M108.828 45.2854C111.442 45.2854 113.562 43.1657 113.562 40.551C113.562 37.9363 111.442 35.8166 108.828 35.8166C106.213 35.8166 104.093 37.9363 104.093 40.551C104.093 43.1657 106.213 45.2854 108.828 45.2854Z" stroke="#47EACC" stroke-width="2" stroke-miterlimit="10"/>
<path d="M78.2616 57.7888H88.2593L95.0965 65.9544H102.903" stroke="#47EACC" stroke-width="2" stroke-miterlimit="10"/>
<path d="M107.638 70.6888C110.252 70.6888 112.372 68.5692 112.372 65.9544C112.372 63.3397 110.252 61.22 107.638 61.22C105.023 61.22 102.903 63.3397 102.903 65.9544C102.903 68.5692 105.023 70.6888 107.638 70.6888Z" stroke="#47EACC" stroke-width="2" stroke-miterlimit="10"/>
<path d="M91.5897 28.8409C94.2045 28.8409 96.3242 26.7212 96.3242 24.1065C96.3242 21.4917 94.2045 19.3721 91.5897 19.3721C88.975 19.3721 86.8553 21.4917 86.8553 24.1065C86.8553 26.7212 88.975 28.8409 91.5897 28.8409Z" stroke="#47EACC" stroke-width="2" stroke-miterlimit="10"/>
<path d="M67.861 30.3771L77.7454 24.1128H86.8553" stroke="#47EACC" stroke-width="2" stroke-miterlimit="10"/>
<path d="M98.2633 88.7892C100.878 88.7892 102.998 86.6695 102.998 84.0548C102.998 81.44 100.878 79.3203 98.2633 79.3203C95.6485 79.3203 93.5288 81.44 93.5288 84.0548C93.5288 86.6695 95.6485 88.7892 98.2633 88.7892Z" stroke="#47EACC" stroke-width="2" stroke-miterlimit="10"/>
<path d="M74.5345 77.7842L84.4189 84.0547H93.5289" stroke="#47EACC" stroke-width="2" stroke-miterlimit="10"/>
<path d="M78.8156 61.7992V45.6506C78.8076 41.2059 77.426 36.8723 74.8597 33.2432C72.2935 29.6142 68.6681 26.8672 64.4802 25.3782C64.7942 24.5446 64.9604 23.6625 64.9712 22.7718C64.9696 20.7319 64.1585 18.776 62.7161 17.3336C61.2736 15.8911 59.3177 15.08 57.2778 15.0784C55.2384 15.0817 53.2835 15.8933 51.8414 17.3354C50.3994 18.7775 49.5878 20.7324 49.5844 22.7718C49.5967 23.663 49.7651 24.5451 50.0818 25.3782C45.8932 26.8669 42.2671 29.6137 39.6998 33.2427C37.1325 36.8716 35.7494 41.2053 35.7401 45.6506V61.7992C33.9462 62.432 32.392 63.6043 31.2908 65.1553C30.1895 66.7063 29.5951 68.56 29.5891 70.4622C29.5907 72.9095 30.5636 75.2561 32.2941 76.9867C34.0247 78.7172 36.3713 79.6901 38.8186 79.6918H46.6255C46.5528 80.2028 46.5149 80.7181 46.512 81.2343C46.5154 84.0885 47.6507 86.8248 49.669 88.8431C51.6872 90.8613 54.4236 91.9967 57.2778 92C60.1332 91.9983 62.8711 90.8638 64.8907 88.8453C66.9103 86.8269 68.0466 84.0896 68.05 81.2343C68.0458 80.7177 68.0036 80.2022 67.9239 79.6918H75.7434C78.1902 79.6885 80.5358 78.715 82.266 76.9848C83.9962 75.2547 84.9696 72.909 84.9729 70.4622C84.9664 68.5592 84.3711 66.7049 83.2686 65.1539C82.1662 63.6028 80.6107 62.4309 78.8156 61.7992ZM57.2778 18.157C58.5018 18.157 59.6756 18.6432 60.541 19.5087C61.4064 20.3741 61.8927 21.5479 61.8927 22.7718C61.8917 23.3795 61.7696 23.9808 61.5338 24.5409C60.1326 24.2594 58.707 24.1181 57.2778 24.1191C55.8508 24.1181 54.4272 24.2594 53.0282 24.5409C52.7903 23.9812 52.6661 23.3799 52.663 22.7718C52.663 22.1658 52.7824 21.5657 53.0144 21.0058C53.2463 20.4459 53.5862 19.9372 54.0147 19.5087C54.4432 19.0801 54.9519 18.7402 55.5118 18.5083C56.0717 18.2763 56.6718 18.157 57.2778 18.157ZM39.379 45.6569C39.384 40.9108 41.2711 36.3604 44.6265 33.0038C47.9819 29.6472 52.5317 27.7584 57.2778 27.7517C62.025 27.7567 66.5764 29.6448 69.9332 33.0015C73.2899 36.3583 75.1779 40.9097 75.1829 45.6569V61.6103H39.379V45.6569ZM57.2778 88.3673C55.3936 88.3429 53.5935 87.5835 52.2611 86.2511C50.9286 84.9186 50.1691 83.1185 50.1447 81.2343C50.1505 80.7139 50.2182 80.1962 50.3462 79.6918H64.1969C64.3196 80.197 64.3851 80.7144 64.3921 81.2343C64.3677 83.1153 63.6109 84.9126 62.2825 86.2446C60.9541 87.5765 59.1588 88.338 57.2778 88.3673ZM75.7434 76.0591H38.8186C37.3347 76.0575 35.9121 75.4672 34.8629 74.418C33.8136 73.3687 33.2234 71.9461 33.2217 70.4622C33.2234 68.9783 33.8136 67.5557 34.8629 66.5064C35.9121 65.4571 37.3347 64.8669 38.8186 64.8653H75.7434C77.2267 64.8669 78.6485 65.4573 79.6968 66.5068C80.7451 67.5562 81.3339 68.9789 81.3339 70.4622C81.3339 71.9455 80.7451 73.3681 79.6968 74.4176C78.6485 75.467 77.2267 76.0575 75.7434 76.0591Z" fill="#47EACC"/>
<path d="M69.4287 5.66619L66.3941 8.70075C66.2941 8.8002 66.2149 8.91843 66.1608 9.04862C66.1066 9.17881 66.0788 9.31841 66.0788 9.4594C66.0788 9.60039 66.1066 9.73999 66.1608 9.87018C66.2149 10.0004 66.2941 10.1186 66.3941 10.218C66.4935 10.3179 66.6117 10.3973 66.7419 10.4514C66.8721 10.5055 67.0118 10.5333 67.1528 10.5333C67.2938 10.5333 67.4333 10.5055 67.5635 10.4514C67.6937 10.3973 67.8118 10.3179 67.9113 10.218L70.9459 7.18345C71.0458 7.084 71.1251 6.96581 71.1792 6.83561C71.2333 6.70542 71.2613 6.56583 71.2613 6.42484C71.2613 6.28385 71.2333 6.14425 71.1792 6.01406C71.1251 5.88387 71.0458 5.76564 70.9459 5.66619C70.8465 5.56625 70.7283 5.48694 70.5981 5.43282C70.4679 5.37871 70.3282 5.35086 70.1872 5.35086C70.0462 5.35086 69.9067 5.37871 69.7765 5.43282C69.6463 5.48694 69.5281 5.56625 69.4287 5.66619Z" fill="#47EACC"/>
<path d="M58.0396 6.13207C58.1395 6.03199 58.2187 5.91321 58.2728 5.7825C58.3268 5.65179 58.3545 5.51174 58.3544 5.37031V1.07659C58.3527 0.791574 58.2388 0.518672 58.0373 0.317132C57.8357 0.115592 57.5628 0.00165231 57.2778 0C56.9934 0.00166338 56.7212 0.115838 56.5207 0.317555C56.3201 0.519272 56.2076 0.792151 56.2076 1.07659V5.37031C56.2076 5.65474 56.3201 5.92762 56.5207 6.12934C56.7212 6.33106 56.9934 6.44519 57.2778 6.44686C57.5629 6.44444 57.836 6.33161 58.0396 6.13207Z" fill="#47EACC"/>
<path d="M48.149 10.218C48.2489 10.1186 48.3282 10.0004 48.3823 9.8702C48.4364 9.74 48.4642 9.60041 48.4642 9.45942C48.4642 9.31843 48.4364 9.17883 48.3823 9.04864C48.3282 8.91845 48.2489 8.80022 48.149 8.70077L45.1144 5.66621C45.0144 5.56608 44.8957 5.48666 44.765 5.43246C44.6343 5.37826 44.4941 5.35034 44.3526 5.35034C44.2111 5.35034 44.0709 5.37826 43.9402 5.43246C43.8095 5.48666 43.6908 5.56608 43.5908 5.66621C43.3905 5.86789 43.278 6.14061 43.278 6.42486C43.278 6.7091 43.3905 6.98179 43.5908 7.18347L46.6317 10.218C46.7312 10.318 46.8494 10.3973 46.9796 10.4514C47.1098 10.5055 47.2493 10.5334 47.3903 10.5334C47.5313 10.5334 47.6709 10.5055 47.8011 10.4514C47.9313 10.3973 48.0495 10.318 48.149 10.218Z" fill="#47EACC"/>
</svg>
