<svg width="96" height="96" viewBox="0 0 96 96" fill="none" xmlns="http://www.w3.org/2000/svg">
<g clip-path="url(#clip0)">
<path d="M48 62.1356C55.8069 62.1356 62.1356 55.8069 62.1356 48C62.1356 40.1932 55.8069 33.8644 48 33.8644C40.1931 33.8644 33.8644 40.1932 33.8644 48C33.8644 55.8069 40.1931 62.1356 48 62.1356Z" fill="#47EACC"/>
<path d="M81.8585 3.49433C84.6751 3.49744 87.3755 4.6177 89.3671 6.60935C91.3588 8.601 92.4792 11.3014 92.4823 14.118C92.4792 16.9341 91.3587 19.6339 89.3668 21.6246C87.375 23.6153 84.6746 24.7342 81.8585 24.7358C79.0434 24.7327 76.3446 23.6131 74.354 21.6225C72.3635 19.6319 71.2439 16.9331 71.2408 14.118C71.2439 11.3024 72.3632 8.60291 74.3536 6.61142C76.344 4.61994 79.0429 3.49899 81.8585 3.49433ZM81.8585 -0.0234375C78.109 -0.021883 74.5136 1.4687 71.8629 4.12056C69.2121 6.77243 67.723 10.3685 67.723 14.118C67.723 17.867 69.2122 21.4624 71.8631 24.1134C74.5141 26.7643 78.1095 28.2536 81.8585 28.2536C83.7153 28.2543 85.5542 27.8893 87.2699 27.1792C88.9856 26.4692 90.5445 25.4281 91.8577 24.1154C93.171 22.8028 94.2127 21.2442 94.9235 19.5288C95.6342 17.8134 96 15.9748 96 14.118C96 10.3675 94.5101 6.77052 91.858 4.11849C89.206 1.46645 85.6091 -0.0234375 81.8585 -0.0234375Z" fill="#47EACC"/>
<path d="M14.1356 3.49433C16.9516 3.49744 19.6514 4.61789 21.6422 6.60971C23.6329 8.60153 24.7519 11.3019 24.7534 14.118C24.7503 16.9331 23.6306 19.6319 21.64 21.6225C19.6495 23.6131 16.9506 24.7327 14.1356 24.7358C11.3205 24.7327 8.62164 23.6131 6.63109 21.6225C4.64054 19.6319 3.52093 16.9331 3.51783 14.118C3.51938 11.3019 4.63836 8.60153 6.62909 6.60971C8.61981 4.61789 11.3195 3.49744 14.1356 3.49433ZM14.1356 -0.0234375C12.2788 -0.0234377 10.4402 0.342397 8.72478 1.05314C7.00939 1.76389 5.45088 2.80562 4.13819 4.11885C2.8255 5.43208 1.78434 6.99107 1.07431 8.70676C0.364275 10.4224 -0.000715516 12.2612 5.46229e-05 14.118C-0.00071588 15.9745 0.364346 17.813 1.07445 19.5283C1.78456 21.2437 2.82571 22.8023 4.13847 24.1151C5.45124 25.4278 7.00985 26.469 8.72521 27.1791C10.4406 27.8892 12.279 28.2543 14.1356 28.2536C15.9921 28.2543 17.8305 27.8892 19.5459 27.1791C21.2613 26.469 22.8199 25.4278 24.1326 24.1151C25.4454 22.8023 26.4867 21.2437 27.1968 19.5283C27.9069 17.813 28.272 15.9745 28.2712 14.118C28.272 12.2612 27.9068 10.4224 27.1968 8.70676C26.4868 6.99107 25.4458 5.43208 24.1331 4.11885C22.8204 2.80562 21.2617 1.76389 19.5463 1.05314C17.8309 0.342397 15.9924 -0.0234377 14.1356 -0.0234375Z" fill="#47EACC"/>
<path d="M81.8585 71.2466C84.6746 71.2481 87.375 72.3671 89.3668 74.3579C91.3587 76.3486 92.4792 79.0483 92.4823 81.8644C92.4792 84.681 91.3588 87.3814 89.3671 89.373C87.3755 91.3647 84.6751 92.485 81.8585 92.4881C79.0429 92.4834 76.344 91.3625 74.3536 89.371C72.3632 87.3795 71.2439 84.68 71.2408 81.8644C71.2439 79.0493 72.3635 76.3504 74.354 74.3599C76.3446 72.3693 79.0434 71.2497 81.8585 71.2466ZM81.8585 67.7288C78.1095 67.7288 74.5141 69.2181 71.8631 71.869C69.2122 74.52 67.723 78.1154 67.723 81.8644C67.723 85.6139 69.2121 89.21 71.8629 91.8618C74.5136 94.5137 78.109 96.0043 81.8585 96.0058C85.6091 96.0058 89.206 94.5159 91.858 91.8639C94.5101 89.2119 96 85.6149 96 81.8644C96 80.0076 95.6342 78.169 94.9235 76.4536C94.2127 74.7382 93.171 73.1796 91.8577 71.867C90.5445 70.5543 88.9856 69.5132 87.2699 68.8031C85.5542 68.0931 83.7153 67.7281 81.8585 67.7288Z" fill="#47EACC"/>
<path d="M14.1356 71.2466C16.9506 71.2497 19.6495 72.3693 21.64 74.3599C23.6306 76.3504 24.7503 79.0493 24.7534 81.8644C24.7519 84.6805 23.6329 87.3809 21.6422 89.3727C19.6514 91.3645 16.9516 92.485 14.1356 92.4881C11.3195 92.485 8.61981 91.3645 6.62909 89.3727C4.63836 87.3809 3.51938 84.6805 3.51783 81.8644C3.52093 79.0493 4.64054 76.3504 6.63109 74.3599C8.62164 72.3693 11.3205 71.2497 14.1356 71.2466ZM14.1356 67.7288C12.279 67.7281 10.4406 68.0931 8.72521 68.8033C7.00985 69.5134 5.45124 70.5546 4.13847 71.8673C2.82571 73.1801 1.78456 74.7387 1.07445 76.454C0.364346 78.1694 -0.00071588 80.0079 5.46229e-05 81.8644C-0.000715516 83.7212 0.364275 85.56 1.07431 87.2757C1.78434 88.9914 2.8255 90.5503 4.13819 91.8636C5.45088 93.1768 7.00939 94.2185 8.72478 94.9293C10.4402 95.64 12.2788 96.0058 14.1356 96.0058C15.9924 96.0058 17.8309 95.64 19.5463 94.9293C21.2617 94.2185 22.8204 93.1768 24.1331 91.8636C25.4458 90.5503 26.4868 88.9914 27.1968 87.2757C27.9068 85.56 28.272 83.7212 28.2712 81.8644C28.272 80.0079 27.9069 78.1694 27.1968 76.454C26.4867 74.7387 25.4454 73.1801 24.1326 71.8673C22.8199 70.5546 21.2613 69.5134 19.5459 68.8033C17.8305 68.0931 15.9921 67.7281 14.1356 67.7288Z" fill="#47EACC"/>
<path d="M32.0293 14.1356H63.9707" stroke="#47EACC" stroke-width="3" stroke-miterlimit="10"/>
<path d="M32.0293 81.8644H63.9707" stroke="#47EACC" stroke-width="3" stroke-miterlimit="10"/>
<path d="M14.1356 63.9707V32.0293" stroke="#47EACC" stroke-width="3" stroke-miterlimit="10"/>
<path d="M81.8644 63.9707V32.0293" stroke="#47EACC" stroke-width="3" stroke-miterlimit="10"/>
<path d="M23.7919 23.7919L72.214 72.214" stroke="#47EACC" stroke-width="3" stroke-miterlimit="10"/>
<path d="M23.7919 72.214L72.214 23.7919" stroke="#47EACC" stroke-width="3" stroke-miterlimit="10"/>
</g>
<defs>
<clipPath id="clip0">
<rect width="96" height="96" fill="white"/>
</clipPath>
</defs>
</svg>
