<svg width="84" height="84" viewBox="0 0 84 84" fill="none" xmlns="http://www.w3.org/2000/svg">
<path d="M42 84C65.196 84 84 65.196 84 42C84 18.804 65.196 0 42 0C18.804 0 0 18.804 0 42C0 65.196 18.804 84 42 84Z" fill="#212121"/>
<path d="M50.2382 42L41.9969 33.7587L33.7556 42L41.9969 50.2413L50.2382 42Z" fill="#F4BB0B"/>
<path d="M60.732 42.0001L60.6942 42.0337L68.3424 49.6777L76.02 42.0001L68.2878 34.2679L60.6438 41.9119L60.732 42.0001Z" fill="#F4BB0B"/>
<path d="M28.7532 36.5191L42 23.2681L55.4442 36.7123L63.0882 29.0683L42 7.9801L21.1092 28.8709L28.7532 36.5191Z" fill="#F4BB0B"/>
<path d="M55.4946 47.2374L42 60.732L28.623 47.355L20.979 54.999L42 76.02L63.1386 54.8814L55.4946 47.2374Z" fill="#F4BB0B"/>
<path d="M23.268 42L23.5536 41.7186L15.9054 34.0746L7.98 42L15.7794 49.7994L23.4234 42.1554L23.268 42Z" fill="#F4BB0B"/>
</svg>
