<svg width="84" height="84" viewBox="0 0 84 84" fill="none" xmlns="http://www.w3.org/2000/svg">
<path d="M42 84C65.196 84 84 65.196 84 42C84 18.804 65.196 0 42 0C18.804 0 0 18.804 0 42C0 65.196 18.804 84 42 84Z" fill="#F7931A"/>
<path d="M61.4797 33.2809C60.8202 32.052 59.9239 30.9657 58.8427 30.0848C57.7614 29.204 56.5165 28.5459 55.1797 28.1485L53.613 27.6822L55.8055 20.328L50.1816 18.648L47.9934 26.0064L43.1928 24.5743L45.3852 17.2201L44.037 16.8001L38.577 15.1788L36.477 22.2685L29.8284 20.286L27.951 26.586L34.5997 28.5685L27.7705 51.5004L21.1218 49.518L19.2444 55.818L25.893 57.8004L24.1122 63.7854L25.4562 64.1844L30.9162 65.8099L32.7768 59.5602L37.59 60.9925L35.7252 67.242L41.3239 68.922L43.1886 62.6725L44.7636 63.1428C45.7532 63.4377 46.7803 63.5876 47.8128 63.588C49.666 63.5842 51.4858 63.0958 53.0919 62.1713C54.6979 61.2467 56.0342 59.9183 56.9682 58.3177C57.9022 56.7172 58.4015 54.9002 58.4163 53.0471C58.4311 51.1941 57.9611 49.3694 57.0528 47.7541C58.3041 47.104 59.4133 46.2112 60.3157 45.1278C61.2182 44.0445 61.8958 42.7922 62.3091 41.4441C62.7224 40.096 62.8629 38.6791 62.7226 37.2761C62.5824 35.8731 62.1641 34.5121 61.4922 33.2725L61.4797 33.2809ZM56.1834 36.1452C56.6152 36.9482 56.7997 37.8609 56.7137 38.7686C56.6278 39.6762 56.2753 40.5381 55.7006 41.2458C55.1258 41.9535 54.3545 42.4753 53.4838 42.7455C52.6131 43.0158 51.6818 43.0223 50.8074 42.7644L38.9802 39.2407L41.6178 30.3954L53.445 33.9193C54.026 34.0907 54.5673 34.3756 55.0373 34.7577C55.5074 35.1399 55.8969 35.6114 56.1834 36.1452ZM52.1976 54.2725C51.8476 55.4454 51.0463 56.4315 49.9699 57.0143C48.8934 57.597 47.6297 57.7287 46.4562 57.3804L34.629 53.8567L37.2624 45.0114L49.0897 48.5352C50.2617 48.8853 51.247 49.6858 51.8296 50.7613C52.4122 51.8368 52.5446 53.0995 52.1976 54.2725Z" fill="white"/>
</svg>
