<svg width="90" height="84" viewBox="0 0 90 84" fill="none" xmlns="http://www.w3.org/2000/svg">
<g clip-path="url(#clip0)">
<path d="M0 40.0699C0.316623 38.348 0.577228 36.6138 0.974224 34.9065C1.46134 32.7145 2.07999 30.559 2.72784 28.0455C4.0674 29.6749 5.11469 31.0364 6.25453 32.3199C12.6844 39.5535 18.1011 47.4886 22.7335 55.9643C25.0327 60.1778 26.891 64.6154 27.3611 69.4061C27.7021 72.9669 27.439 76.5886 27.3854 80.1835C27.3684 81.3379 27.1589 82.4924 27.0006 84C25.6854 83.5129 24.4993 83.2474 23.4885 82.6751C10.9089 75.5803 3.2734 64.9589 0.713632 50.7352C0.481442 49.446 0.248441 48.1576 0.0146276 46.87L0 40.0699Z" fill="#4293FE"/>
<path d="M49.8924 0C51.6947 0.321494 53.5044 0.596712 55.2945 0.974224C61.549 2.27968 67.2921 4.72496 72.3093 8.73876C72.0277 8.7449 71.7464 8.71713 71.4715 8.65599C68.0106 7.4723 64.4644 7.56726 60.9279 8.07385C55.408 8.86571 50.0045 10.3247 44.8362 12.4189C37.3566 15.4414 30.2009 18.9681 25.5514 26.0093C23.1524 24.4019 20.9799 22.5727 19.6062 19.9642C20.0008 19.6963 20.3832 19.4065 20.7923 19.1605C22.904 17.8916 25.096 16.7371 27.1248 15.3464C29.3996 13.7828 31.5088 11.9683 32.6438 9.35003C33.7398 6.81461 33.26 4.52769 30.3251 3.88227C30.1774 3.82664 30.0387 3.74951 29.9135 3.65334C33.9736 1.75117 38.2821 0.784221 42.7124 0.27519C43.0046 0.211698 43.29 0.120324 43.5648 0.00237848L49.8924 0Z" fill="#2544B5"/>
<path d="M25.5514 26.0069C30.2009 18.9657 37.3566 15.439 44.8362 12.4165C50.0046 10.3223 55.408 8.86324 60.928 8.07138C64.4644 7.56479 68.0106 7.46983 71.4715 8.65352C71.7464 8.71466 72.0277 8.74243 72.3093 8.73629L72.2801 8.72416L72.6649 8.98472C76.0966 11.3764 78.8001 14.4794 81.1894 17.8526C87.3513 26.5646 89.9574 36.2996 89.2706 46.9113C89.027 50.7497 88.082 54.4615 86.9811 58.1514C86.3552 60.2508 85.0327 60.9572 83.1402 61.1886C82.792 61.2544 82.4486 61.3439 82.1124 61.4565C81.6497 61.3737 81.1869 61.269 80.7218 61.213C78.7733 60.984 76.7859 60.8817 74.852 60.5285C66.973 59.0964 59.3838 56.6316 51.8531 53.9647C50.2651 53.4021 48.6381 52.9417 47.0307 52.4327C45.6887 51.8019 44.3515 51.1638 43.0047 50.5403C37.7609 48.1047 32.7315 45.3526 28.6714 41.1366C26.2578 38.6304 24.38 35.7784 24.2874 32.2005C24.2436 30.5176 24.8135 28.815 25.135 27.1296C25.2418 26.7443 25.3811 26.3687 25.5514 26.0069Z" fill="#4192FE"/>
<path d="M47.0282 52.4352C48.6357 52.9442 50.2626 53.4094 51.8506 53.9672C59.3813 56.6341 66.9705 59.0988 74.8496 60.5309C76.7834 60.8841 78.7611 60.9864 80.7193 61.2153C81.1845 61.2689 81.6472 61.3736 82.11 61.4589C81.4849 62.7578 80.8581 64.0568 80.2297 65.3558C79.8985 65.5043 79.577 65.6772 79.236 65.7941C72.8573 68.0129 66.7709 70.8188 61.6123 75.2539C59.4569 77.1049 57.5084 79.2653 58.4461 82.5606C54.5273 84.4944 50.9787 83.8246 47.603 81.182C43.3456 77.8477 40.1892 73.7707 38.5914 68.5659C37.6026 65.3266 38.0434 62.2651 39.8092 59.3863C41.6432 56.449 44.2103 54.3154 47.0282 52.4352Z" fill="#2443B5"/>
<path d="M29.9136 3.65087C30.0387 3.74704 30.1774 3.82417 30.3252 3.8798C33.26 4.52522 33.7349 6.80252 32.6438 9.34768C31.5137 11.9659 29.3996 13.7804 27.1248 15.3441C25.096 16.7348 22.904 17.8891 20.7924 19.1581C20.3832 19.4016 20.0008 19.694 19.6063 19.9619C18.8147 20.242 18.0329 20.5561 17.2316 20.7997C13.7536 21.8494 10.2732 22.8991 6.78061 23.9001C6.218 24.0633 5.58717 23.9927 4.75421 24.0438C4.8742 23.6654 5.01486 23.2938 5.17556 22.9308C9.14796 15.4634 14.7473 9.53524 22.0491 5.2316C24.4774 3.79949 27.1614 3.52909 29.9136 3.65087Z" fill="#4293FE"/>
<path d="M58.4559 82.5459C57.5084 79.2555 59.4569 77.0951 61.6221 75.2392C66.7806 70.8041 72.8671 67.9983 79.2458 65.7795C79.5868 65.6626 79.9083 65.4896 80.2395 65.3411L83.5884 64.7371L83.7662 65.0708C83.5738 65.4507 83.4082 65.8429 83.189 66.2058C78.9121 73.2933 73.1739 78.8707 65.8575 82.7846C63.3757 84.112 60.8622 84.3896 58.4559 82.5459Z" fill="#4293FE"/>
<path d="M72.6649 8.98468L72.2801 8.72412L72.6649 8.98468Z" fill="#2544B5"/>
</g>
<defs>
<clipPath id="clip0">
<rect width="89.3753" height="84" fill="white"/>
</clipPath>
</defs>
</svg>
